<svg xmlns="http://www.w3.org/2000/svg" viewBox="0 0 52.03 50.94"><defs><style>.cls-1,.cls-2{fill:none;stroke-linecap:round;stroke-miterlimit:10;}.cls-1{stroke:#fff;stroke-width:6px;}.cls-2{stroke:#000;stroke-width:2px;}</style></defs><title>Ativo 2</title><g id="Camada_2" data-name="Camada 2"><g id="Capa_1" data-name="Capa 1"><path d="M26.89,2.47a3.09,3.09,0,0,0-1.58.44l-.13.1L11.63,14.47H1a1,1,0,0,0-1,1v19a1,1,0,0,0,1,1H11.61L25.15,47.91l.16.12a3.09,3.09,0,0,0,1.58.44A3.14,3.14,0,0,0,30,45.31V5.63A3.14,3.14,0,0,0,26.89,2.47ZM13,33.47a1,1,0,0,1-2,0v-4a1,1,0,0,1,2,0Zm0-13a1,1,0,0,1-2,0v-4a1,1,0,0,1,2,0Z"/><path d="M38.8,6.52a1,1,0,0,0-.65,1.9,17.48,17.48,0,0,1,0,33.11,1,1,0,0,0,.32,1.94.86.86,0,0,0,.32,0,19.48,19.48,0,0,0,0-36.9Z"/><path d="M43,25a13.56,13.56,0,0,0-9.75-13,1,1,0,0,0-.56,1.92,11.49,11.49,0,0,1,0,22.08A1,1,0,0,0,33,38a.9.9,0,0,0,.28,0A13.56,13.56,0,0,0,43,25Z"/><line class="cls-1" x1="3.54" y1="47.94" x2="48.48" y2="3"/><line class="cls-2" x1="2.43" y1="49.06" x2="49.6" y2="1.88"/></g></g></svg>