<svg xmlns="http://www.w3.org/2000/svg" viewBox="0 0 30.7 22.58"><title>Ativo 3</title><g id="Camada_2" data-name="Camada 2"><g id="Camada_1-2" data-name="Camada 1"><path d="M18.51,11.37c0,2.83,0,5.65,0,8.48,0,1.83-.83,2.74-2.73,2.72-4.32,0-8.64-.05-13,0-2,0-2.83-.95-2.82-2.89C0,14,0,8.39,0,2.74,0,.9.84,0,2.73,0c4.32,0,8.64,0,13,0,2,0,2.85,1,2.83,2.9C18.49,5.72,18.51,8.55,18.51,11.37Zm-1.63,0c0-2.58-.06-5.17,0-7.75,0-1.45-.4-2.11-2-2.08-3.75.07-7.5.09-11.24,0-1.69,0-2.13.65-2.11,2.22q.1,7.62,0,15.23c0,1.46.4,2.11,2,2.08,3.75-.08,7.5-.1,11.24,0,1.7.05,2.16-.62,2.11-2.2C16.81,16.36,16.88,13.86,16.88,11.36Z"/><path d="M25.67,6.87l-4.36,3.85-.56-.58,3.93-4.3-4-4.35.59-.64,4.36,4,4.51-4,.56.57-4,4.46,4,4.33-.56.59Z"/><rect x="3.73" y="3.46" width="7" height="4" rx="1.23" ry="1.23"/></g></g></svg>