<svg xmlns="http://www.w3.org/2000/svg" viewBox="0 0 61.62 71.76"><title>Ativo 6</title><g id="Camada_2" data-name="Camada 2"><g id="Camada_1-2" data-name="Camada 1"><path d="M55.88,60.52c.35,0,.68,0,1,0A2.57,2.57,0,0,1,59,63.14q0,3,0,6a2.57,2.57,0,0,1-2.61,2.61H6.77a10.22,10.22,0,0,1-1.57-.05A2.56,2.56,0,0,1,3,69.06c0-.77,0-1.55,0-2.33,0-1.15,0-2.31,0-3.47a2.57,2.57,0,0,1,2.15-2.68,7.63,7.63,0,0,1,1-.06v-.37c0-5.36,0-10.73,0-16.09,0-8.55,3.88-14.92,11.08-19.34a22.56,22.56,0,0,1,9.6-3.18,38.66,38.66,0,0,1,8.93.06A23.4,23.4,0,0,1,54.05,34.89a21.11,21.11,0,0,1,1.82,8.72c0,5.5,0,11,0,16.5Zm-33.05,0v-.4c0-1.47,0-2.94.06-4.4a6.87,6.87,0,0,1,5.36-6.19,15.91,15.91,0,0,1,4.82-.11,6.86,6.86,0,0,1,6.08,6.34c.08,1.47,0,3,.05,4.42,0,.12,0,.23,0,.34h11V43.43a15.11,15.11,0,0,0-.9-5.16A17.58,17.58,0,0,0,35.2,27.2a32.74,32.74,0,0,0-7.27-.12,17.57,17.57,0,0,0-9.4,3.52,15.82,15.82,0,0,0-6.74,13.25c0,5.43,0,10.87,0,16.3v.37Z"/><path d="M33.83,8.77c0,2,0,3.9,0,5.86a2.82,2.82,0,0,1-5.63.22c0-.11,0-.23,0-.35,0-3.82,0-7.65,0-11.48A2.83,2.83,0,0,1,29.42.52,2.67,2.67,0,0,1,32.29.33a2.7,2.7,0,0,1,1.54,2.55C33.84,4.84,33.83,6.81,33.83,8.77Z"/><path d="M2.83,7.35a2.84,2.84,0,0,1,2.07.91l7.46,7.46c.28.28.57.56.84.85a2.81,2.81,0,1,1-4,4Q5,16.37.84,12.16a2.68,2.68,0,0,1-.7-2.82A2.74,2.74,0,0,1,2.31,7.4,4.36,4.36,0,0,1,2.83,7.35Z"/><path d="M47.55,18.56a3,3,0,0,1,1-2.09C51.24,13.74,54,11,56.7,8.27a2.82,2.82,0,0,1,4.74.94,2.73,2.73,0,0,1-.7,3c-1.36,1.37-2.74,2.73-4.1,4.1s-2.81,2.83-4.23,4.22a2.8,2.8,0,0,1-4.64-1A7.75,7.75,0,0,1,47.55,18.56Z"/></g></g></svg>