<?xml version="1.0" encoding="UTF-8" standalone="no"?>
<!-- Generator: Adobe Illustrator 16.0.0, SVG Export Plug-In . SVG Version: 6.00 Build 0)  -->

<svg
   xmlns:osb="http://www.openswatchbook.org/uri/2009/osb"
   xmlns:dc="http://purl.org/dc/elements/1.1/"
   xmlns:cc="http://creativecommons.org/ns#"
   xmlns:rdf="http://www.w3.org/1999/02/22-rdf-syntax-ns#"
   xmlns:svg="http://www.w3.org/2000/svg"
   xmlns="http://www.w3.org/2000/svg"
   xmlns:sodipodi="http://sodipodi.sourceforge.net/DTD/sodipodi-0.dtd"
   xmlns:inkscape="http://www.inkscape.org/namespaces/inkscape"
   version="1.1"
   id="Layer_1"
   x="0px"
   y="0px"
   width="260px"
   height="260px"
   viewBox="0 0 260 260"
   enable-background="new 0 0 260 260"
   xml:space="preserve"
   inkscape:version="0.91 r13725"
   sodipodi:docname="lacos.svg"><metadata
     id="metadata5293"><rdf:RDF><cc:Work
         rdf:about=""><dc:format>image/svg+xml</dc:format><dc:type
           rdf:resource="http://purl.org/dc/dcmitype/StillImage" /></cc:Work></rdf:RDF></metadata><defs
     id="defs5291"><linearGradient
       id="linearGradient4615"
       osb:paint="solid"><stop
         style="stop-color:#000000;stop-opacity:1;"
         offset="0"
         id="stop4617" /></linearGradient><style
       id="style4150">.cls-1{fill:none;}.cls-2{fill:#939598;}.cls-3{fill:#293c4a;}</style><style
       id="style4190">.cls-1{fill:none;}.cls-2{fill:#939598;}.cls-3{fill:#293c4a;}</style></defs><sodipodi:namedview
     pagecolor="#ffffff"
     bordercolor="#666666"
     borderopacity="1"
     objecttolerance="10"
     gridtolerance="10"
     guidetolerance="10"
     inkscape:pageopacity="0"
     inkscape:pageshadow="2"
     inkscape:window-width="1366"
     inkscape:window-height="731"
     id="namedview5289"
     showgrid="false"
     inkscape:zoom="1.8153846"
     inkscape:cx="251.90013"
     inkscape:cy="145.62448"
     inkscape:window-x="1920"
     inkscape:window-y="271"
     inkscape:window-maximized="1"
     inkscape:current-layer="Layer_1" /><path
     style="fill-rule:evenodd"
     d="M 1.5671734,9.3640096 1.5049375,27.501913 C 100.4197,32.297321 104.68527,40.029287 199.38645,67.679577 244.16964,96.227186 244.01628,139.74314 249.25076,126.63676 275.67262,60.48023 193.68598,19.919732 1.5671734,9.3640096 Z M 60.656991,211.42614 c -17.41054,1.80125 -40.453727,1.66639 -59.78996919,1.92185 l -0.0700104,20.21613 C 60.288664,229.62275 82.952885,232.34451 76.362745,225.07236 c -3.6177,-3.99209 -11.971519,-0.59709 -15.705754,-13.64622 z"
     id="path6738"
     inkscape:connector-curvature="0"
     sodipodi:nodetypes="cccsccccsc" /><path
     style="fill-opacity:1;fill-rule:nonzero;stroke-width:0.2;stroke-miterlimit:4;stroke-dasharray:none"
     d="m 146.9873,256.62443 c -12.93475,0.54747 -20.35905,0.005 -27.94008,-2.04243 -10.57583,-2.85589 -18.64824,-7.95651 -23.335857,-14.74501 -0.71761,-1.03924 -2.25191,-2.37455 -3.409554,-2.96737 -1.157617,-0.5928 -3.269433,-2.13298 -4.692899,-3.42266 -1.423484,-1.28964 -5.591711,-3.79206 -9.262768,-5.56097 C 74.47351,226.02 68.75477,222.5312 64.723675,219.57544 52.625896,210.7048 46.480983,202.35655 45.417441,193.34674 c -0.488638,-4.14053 0.610773,-31.04106 1.572992,-38.48399 0.402545,-3.11373 1.534724,-8.00234 2.515974,-10.86354 1.508091,-4.39752 2.597568,-6.28596 7.043202,-12.20822 13.44507,-17.91076 33.554723,-31.11673 61.272671,-40.237575 13.6343,-4.486494 38.62298,-8.082254 55.03503,-7.91928 30.85288,0.306344 55.37611,10.476737 68.08381,28.235995 4.82561,6.7439 6.59242,11.95791 10.25069,30.25066 2.48919,12.44694 2.85329,17.12763 1.84081,23.66438 -1.94178,12.53607 -8.15898,22.14712 -23.77041,36.74617 -3.2973,3.08345 -3.84726,3.92091 -5.35142,8.14897 -1.30087,3.6567 -2.87711,6.36231 -7.03608,12.07734 -5.79691,7.96586 -8.87546,10.998 -16.4768,16.2283 -5.73578,3.94664 -11.94617,7.08351 -20.4217,10.31501 -4.79468,1.82809 -8.72102,2.83368 -18.67488,4.7829 -6.93208,1.35745 -13.3734,2.50071 -14.31403,2.54062 z m 24.54706,-18.56844 c 12.87375,-3.61577 20.36049,-9.83316 28.98741,-15.8587 6.8775,-4.80358 5.23121,-4.44251 11.1612,-4.70044 l 0.0202,-2.99324 -0.0804,-4.047 c -0.15715,-7.90618 -0.33155,-7.54551 -10.40738,-11.10916 -3.53204,-1.24923 -6.43118,-2.35136 -6.44252,-2.4492 -0.0109,-0.0979 0.74184,-2.47172 1.67379,-5.27536 0.9319,-2.80363 2.01495,-7.47942 2.40679,-10.39064 0.68966,-5.1244 0.76223,-5.29861 2.27626,-5.4656 2.65493,-0.29283 11.07778,2.50123 14.79705,4.90856 2.41354,1.56216 4.25982,3.3727 5.81743,5.70488 2.10844,3.15691 2.33014,3.83346 2.91818,8.90511 0.35001,3.01876 0.81062,5.4577 1.02342,5.41994 0.21288,-0.0378 -0.9586,-8.28019 1.82778,-10.90887 9.62354,-9.07885 10.0913,-13.64352 11.70262,-22.38199 1.30451,-7.07456 2.53176,-14.75255 -0.22195,-28.0263 -1.3945,-6.72198 0,0 -6.63908,-17.99245 -3.40306,-9.22257 0.63438,-2.37036 -12.78573,-13.18372 -3.22502,-2.59857 -2.23364,-2.93019 -28.68873,-11.86022 -3.72142,-1.256182 -30.94569,1.887912 -42.45309,2.096958 -14.68098,0.266703 -30.78288,6.128742 -43.57053,11.172202 -20.894827,8.24096 -28.817042,16.52594 -39.312328,31.85617 -5.699346,8.32492 -9.005563,6.16268 -7.218818,31.60824 1.12592,16.03455 -0.891758,13.45173 0.423917,17.86166 2.952019,9.89465 4.47391,13.50084 13.63141,19.96271 5.030196,3.54953 12.388754,16.42466 12.824689,15.84062 0.08317,-0.11147 -0.222626,-0.95706 -0.679681,-1.87911 -1.140541,-2.30122 -0.858468,-4.79735 1.214367,-10.74663 2.623719,-7.53028 7.609837,-13.94561 14.911494,-19.18572 5.43014,-3.89696 13.38296,-8.23923 15.94955,-8.70845 1.54764,-0.28293 1.51144,-0.35291 3.11873,6.02689 0.68387,2.71456 2.22706,6.94669 3.42931,9.40474 1.20222,2.45804 2.02404,4.65794 1.82624,4.88861 -0.19783,0.23069 -2.78938,1.69826 -5.75903,3.26124 -7.48474,3.93938 -13.73267,8.517 -16.84855,12.34431 -2.532807,3.11111 -5.321677,9.13636 -5.340087,11.53708 -0.0128,1.67639 7.299327,-1.04179 10.573827,2.3953 12.10595,12.70706 35.77696,9.87539 63.93224,1.96758 z m 14.27227,-41.90377 c -15.85753,-1.81742 -37.8896,1.33471 -52.88673,7.56648 -2.52655,1.04987 -3.94862,1.40405 -4.37673,1.09009 -1.56184,-1.14541 -7.64462,-19.81861 -6.81707,-20.92729 0.14311,-0.19176 1.59394,-0.8568 3.22414,-1.47807 17.60559,-6.70964 43.03804,-11.07122 58.94939,-10.10962 4.92753,0.2979 11.78398,1.7319 12.51618,2.61787 0.21601,0.26142 -0.20771,4.17858 -0.94165,8.70486 -1.30403,8.04224 -2.9146,12.89044 -4.32158,13.00899 -0.38565,0.0321 -2.7913,-0.18056 -5.34595,-0.47331 z m 7.34628,-13.6413 c 0.37956,-2.59419 0.56062,-4.81164 0.40237,-4.9277 -0.15828,-0.11592 -1.0537,0.21351 -1.98988,0.73253 l -1.70215,0.94353 0.7659,6.2575 c 0.73581,6.01277 0.78672,6.16857 1.29976,3.98413 0.29363,-1.2503 0.84441,-4.39583 1.22399,-6.98999 z m -65.67812,9.45731 c -0.64154,-3.17255 -1.24061,-4.80632 -1.90555,-5.19665 -0.87072,-0.51112 -0.89329,-0.24729 -0.22088,2.5815 1.05796,4.45067 2.68779,8.98305 2.89079,8.039 0.0942,-0.43808 -0.2497,-2.87881 -0.76442,-5.42385 z m 64.52859,-15.47937 c 0.80016,-0.99984 -8.11017,-2.04547 -16.43423,-1.92856 -8.40865,0.11812 -27.80414,3.35794 -38.02683,6.35203 -9.56327,2.80097 -11.80533,3.60704 -11.73438,4.21885 0.11195,0.9652 2.10419,0.68232 7.47526,-1.06144 16.9035,-5.4879 36.94458,-7.96498 51.2474,-6.33421 3.53494,0.40304 6.55586,-0.10094 7.47279,-1.24675 z m -81.93009,-4.25942 c -2.55639,-2.16221 -3.84633,-5.31457 -3.2948,-8.05175 0.99258,-4.92596 6.65766,-5.06457 9.34719,-0.22873 1.54373,2.77573 1.7122,4.73303 0.61941,7.19662 -1.2961,2.92197 -3.98261,3.35841 -6.67179,1.0838 z m 5.20214,-0.99965 c 1.86925,-2.50422 -0.64318,-8.53835 -3.90816,-9.38619 -4.59583,-1.1935 -4.21532,7.80445 0.42407,10.02929 1.70607,0.81813 2.50321,0.671 3.48422,-0.64204 z m 113.40461,-45.39406 c -11.14664,-7.46127 -29.88858,-12.91959 -48.20333,-14.03847 -14.20915,-0.8681 -23.81893,-0.24409 -38.81816,2.52059 -25.98061,4.78865 -46.618997,13.27806 -65.167186,26.80558 -4.569394,3.33252 -8.786839,7.16676 -13.512182,12.28442 -3.870908,4.1923 -4.877275,4.13973 -1.152794,-0.0593 12.282842,-13.85067 32.328265,-26.01795 56.064132,-34.03011 11.06491,-3.73503 34.79161,-8.20347 45.37154,-8.5448 22.92446,-0.73961 40.68862,2.24837 56.78683,9.55165 5.89611,2.67489 13.32468,15.35413 15.5793,10.95401 -6.77346,0.83388 -4.92218,-4.08649 -6.94819,-5.44267 z m -7.97314,82.69175 1.80343,-4.89268 -2.47126,-0.18225 c -1.3592,-0.10034 -2.9059,-0.22711 -3.43713,-0.28177 -1.5345,-0.158 -1.62978,0.96688 -0.33361,3.93864 0.66322,1.52056 1.30311,3.60353 1.42199,4.6288 0.11886,1.0253 0.44046,1.82318 0.71461,1.77304 0.27418,-0.0501 1.31006,-2.29283 2.30196,-4.98382 z M 94.472023,226.22167 c 0.009,-3.10583 -0.13451,-5.75707 -0.31799,-5.89162 -0.52884,-0.38786 -7.522726,2.42813 -7.456181,3.00207 0.193015,1.66464 7.051801,9.51403 7.623031,8.724 0.0746,-0.10295 0.1427,-2.7286 0.15114,-5.83445 z m 1.50752,-0.22471 c -0.2004,-0.35773 -0.29109,-0.0184 -0.20153,0.75393 0.0895,0.7724 0.2535,1.06511 0.36435,0.65044 0.11083,-0.41463 0.0375,-1.04663 -0.16282,-1.40437 z M 222.45811,196.26351 c -0.49377,-4.46328 -0.76068,-5.25139 -2.82408,-8.34264 -2.79992,-4.19453 -6.32868,-6.53704 -12.76429,-8.4734 -4.11086,-1.23691 -4.81807,-1.30061 -5.15418,-0.46424 -0.74137,1.84482 0.23143,3.05571 4.51118,5.61467 6.8809,4.11431 8.99435,7.2861 9.14586,13.72569 l 0.0814,3.46057 3.29198,0.25601 c 1.81059,0.14079 3.5092,0.008 3.77472,-0.29589 0.26551,-0.30357 0.23736,-2.76994 -0.0626,-5.48085 z M 92.831598,218.99252 c 0.775575,-0.33412 1.273035,-1.29485 1.563085,-3.01873 1.27459,-7.5758 7.919427,-15.32781 18.835487,-21.97395 3.0535,-1.85906 3.58789,-2.40702 3.45609,-3.54373 -0.20206,-1.74287 -1.12372,-1.56021 -6.50873,1.2899 -11.391927,6.02926 -18.76699,13.7706 -22.073028,23.16931 -0.985554,2.80179 -1.755122,5.41142 -1.710159,5.79918 0.07788,0.67169 2.197044,0.10425 6.437268,-1.72187 z"
     id="path4255"
     inkscape:connector-curvature="0"
     sodipodi:nodetypes="cssscsscssssssssssssssccssscsscsscssscssssssssssssccssssscsscssssccsccscscccccscccccccccssssscccssscccsscccsssscssscccccccsccccccsccccccccssssccscccssssscc" /></svg>