<?xml version="1.0" encoding="utf-8"?>
<!-- Generator: Adobe Illustrator 16.0.0, SVG Export Plug-In . SVG Version: 6.00 Build 0)  -->
<!DOCTYPE svg PUBLIC "-//W3C//DTD SVG 1.1//EN" "http://www.w3.org/Graphics/SVG/1.1/DTD/svg11.dtd">
<svg version="1.1" id="Layer_1" xmlns="http://www.w3.org/2000/svg" xmlns:xlink="http://www.w3.org/1999/xlink" x="0px" y="0px"
	 width="9.19px" height="9.198px" viewBox="0 0 9.19 9.198" enable-background="new 0 0 9.19 9.198" xml:space="preserve">
<g>
	<rect x="3.195" y="4.262" width="3.551" height="0.709"/>
	<path d="M0.711,7.458V1.42h7.101v2.996C7.958,4.343,8.12,4.301,8.29,4.301c0.079,0,0.155,0.009,0.232,0.026V1.065
		C8.522,0.477,8.044,0,7.457,0H1.064C0.477,0,0,0.477,0,1.065v6.393c0,0.587,0.477,1.063,1.064,1.063h3.348l0.207-0.709H1.064
		C0.871,7.812,0.711,7.653,0.711,7.458z"/>
	<rect x="3.195" y="2.84" width="3.551" height="0.711"/>
	<polygon points="3.195,6.39 5.714,6.39 6.429,5.681 3.195,5.681 	"/>
	<rect x="1.775" y="4.262" width="0.711" height="0.709"/>
	<rect x="1.775" y="2.84" width="0.711" height="0.711"/>
	<rect x="1.775" y="5.681" width="0.711" height="0.709"/>
	<path d="M9.078,5.658L8.539,5.119C8.39,4.969,8.15,4.967,8.003,5.114L7.57,5.552l1.076,1.08L9.08,6.195
		C9.227,6.048,9.226,5.806,9.078,5.658z"/>
	<path d="M5.449,7.636C5.425,7.656,5.404,7.679,5.396,7.71L5.019,8.996c-0.016,0.055,0,0.115,0.04,0.156
		C5.09,9.183,5.13,9.198,5.171,9.198c0.016,0,0.031-0.001,0.045-0.007l1.28-0.377C6.526,8.806,6.548,8.788,6.57,8.765L8.322,7.02
		L7.199,5.893L5.449,7.636z M5.619,8.742L5.468,8.59l0.213-0.726l0.545,0.111l0.107,0.555L5.619,8.742z"/>
</g>
<g>
</g>
<g>
</g>
<g>
</g>
<g>
</g>
<g>
</g>
<g>
</g>
<g>
</g>
<g>
</g>
<g>
</g>
<g>
</g>
<g>
</g>
<g>
</g>
<g>
</g>
<g>
</g>
<g>
</g>
</svg>
