<svg xmlns="http://www.w3.org/2000/svg" viewBox="0 0 24 24"><defs><style>.cls-1{fill:none;}</style></defs><title>Ativo 2</title><g id="Camada_2" data-name="Camada 2"><g id="Camada_1-2" data-name="Camada 1"><path class="cls-1" d="M0,0H24V24H0Z"/><path d="M17.16,17.35a4.91,4.91,0,0,0,.06-.68,3.07,3.07,0,0,0-.06-.68l1.48-1.15a.36.36,0,0,0,.08-.45L17.33,12a.35.35,0,0,0-.43-.15l-1.73.7A4.8,4.8,0,0,0,14,11.84L13.73,10a.34.34,0,0,0-.34-.3H10.61a.36.36,0,0,0-.35.3L10,11.84a5.67,5.67,0,0,0-1.19.69l-1.72-.7a.36.36,0,0,0-.43.15L5.27,14.39a.34.34,0,0,0,.08.45L6.82,16c0,.22,0,.45,0,.68s0,.46,0,.68L5.35,18.51a.34.34,0,0,0-.08.44l1.39,2.41a.35.35,0,0,0,.43.16l1.72-.7A5,5,0,0,0,10,21.5l.26,1.84a.35.35,0,0,0,.35.29h2.78a.35.35,0,0,0,.35-.29L14,21.5a5,5,0,0,0,1.16-.68l1.74.7a.38.38,0,0,0,.44-.16L18.74,19a.35.35,0,0,0-.09-.44ZM12,18.76a2.09,2.09,0,1,1,2.09-2.09A2.09,2.09,0,0,1,12,18.76ZM5.8,7.51,7.57,9.27a6.28,6.28,0,0,1,8.86,0L18.2,7.51a8.76,8.76,0,0,0-12.4,0ZM12,.46A14.39,14.39,0,0,0,1.8,4.68L3.65,6.53a11.81,11.81,0,0,1,16.7,0L22.2,4.7A14.28,14.28,0,0,0,12,.46Z"/></g></g></svg>