<?xml version="1.0" encoding="utf-8"?>
<!-- Generator: Adobe Illustrator 22.1.0, SVG Export Plug-In . SVG Version: 6.00 Build 0)  -->
<svg version="1.1" id="Layer_1" xmlns="http://www.w3.org/2000/svg" xmlns:xlink="http://www.w3.org/1999/xlink" x="0px" y="0px"
	 viewBox="0 0 72.2 25" style="enable-background:new 0 0 72.2 25;" xml:space="preserve">
<g>
	<path d="M47.9,9.5c-2.4,0-4.4,2-4.4,4.4c0,2.4,2,4.4,4.4,4.4c0.8,0,1.5-0.2,2.2-0.6v0.6h2.2v-4.4C52.3,11.5,50.3,9.5,47.9,9.5z
		 M50.1,13.9L50.1,13.9c0,1.2-1,2.2-2.2,2.2c-1.2,0-2.2-1-2.2-2.2c0-1.2,1-2.2,2.2-2.2C49.1,11.7,50.1,12.7,50.1,13.9L50.1,13.9z"/>
	<path d="M16.3,15.9c-0.2,0.1-0.5,0.2-0.7,0.2c-0.9,0-1.7-0.8-1.7-1.7l0,0v-2.7h1.7c0,0,0.3-1,0.3-2.2h-1.9V6.9
		c-1.2,0-2.2,0.3-2.2,0.3s0,1.3,0,2.2h0v4.9c0,0,0,0,0,0c0,2.2,1.7,3.9,3.9,3.9c0.7,0,1.4-0.2,2-0.6C17,17.2,16.6,16.6,16.3,15.9z"
		/>
	<path d="M44.4,10c-0.6-0.4-1.3-0.6-2-0.6c-2.2,0-3.9,1.7-3.9,3.9c0,0,0,0,0,0v4.9h2.2v-4.9l0,0c0-0.9,0.8-1.7,1.7-1.7
		c0.3,0,0.5,0.1,0.7,0.2C43.4,11.2,43.9,10.5,44.4,10z"/>
	<circle cx="1.2" cy="7.9" r="1.2"/>
	<path d="M7,9.5c-2.2,0-3.9,1.7-3.9,3.9c0,0,0,0,0,0v4.9h2.2v-4.9l0,0c0-0.9,0.8-1.7,1.7-1.7c0.9,0,1.7,0.8,1.7,1.7v4.9h2.2v-4.9
		C10.9,11.2,9.2,9.5,7,9.5z"/>
	<path d="M0.1,18.3h2.2V9.5c-1.2,0-2.2,0.3-2.2,0.3S0.1,18.3,0.1,18.3z"/>
	<path d="M26,18.3h2.2V6.9C27,6.9,26,7.2,26,7.2L26,18.3z"/>
	<path d="M33.4,9.5c-0.8,0-1.5,0.2-2.2,0.6V6.9c-1.2,0-2.2,0.3-2.2,0.3c0,0,0,6.6,0,6.6c0,2.4,2,4.4,4.4,4.4c2.4,0,4.4-2,4.4-4.4
		C37.8,11.5,35.8,9.5,33.4,9.5z M33.4,16.1c-1.2,0-2.2-1-2.2-2.2l0,0v0c0-1.2,1-2.2,2.2-2.2c1.2,0,2.2,1,2.2,2.2
		C35.6,15.1,34.6,16.1,33.4,16.1z"/>
	<path d="M25.3,14.9c-1.1-0.4-2.1-0.5-2.1-0.5c-0.3,1.1-1.3,1.8-2.4,1.6c-0.2,0-0.5-0.1-0.7-0.2l5-3.8c-0.6-1.3-1.9-2.3-3.4-2.5
		c-2.4-0.3-4.6,1.4-4.9,3.8c-0.3,2.4,1.4,4.6,3.8,4.9C22.7,18.5,24.7,17,25.3,14.9L25.3,14.9L25.3,14.9z M18.9,13.6
		c0.2-1.2,1.3-2,2.5-1.9c0.2,0,0.5,0.1,0.7,0.2l-3.1,2.4C18.8,14.1,18.8,13.8,18.9,13.6z"/>
	<path d="M57.2,12.9l-1.4,0c-0.3,0-0.6-0.3-0.6-0.6s0.3-0.6,0.6-0.6h3.2c0,0,0.3-1,0.3-2.2c0,0-3.4,0-3.6,0c-1.5,0-2.7,1.2-2.7,2.7
		c0,1.5,1.2,2.7,2.7,2.7h1.4c0.3,0,0.6,0.3,0.6,0.6c0,0.3-0.3,0.6-0.6,0.6h-3.6c0,0-0.3,1-0.3,2.2c0,0,4,0,4,0
		c1.5,0,2.7-1.2,2.7-2.7C59.9,14.1,58.7,12.9,57.2,12.9z"/>
</g>
</svg>
