<?xml version="1.0" encoding="UTF-8" standalone="no" ?>
<!DOCTYPE svg PUBLIC "-//W3C//DTD SVG 1.1//EN" "http://www.w3.org/Graphics/SVG/1.1/DTD/svg11.dtd">
<svg xmlns="http://www.w3.org/2000/svg" xmlns:xlink="http://www.w3.org/1999/xlink" version="1.1" width="130" height="130" viewBox="0 0 130 130" xml:space="preserve">
<desc>Created with Fabric.js 5.3.0</desc>
<defs>
</defs>
<g transform="matrix(0.1941167645 0 0 0.1941167687 65 65.3457854406)" id="des1_LYfY7G-nIJJ5KD9Q"  >
<path style="stroke: rgb(165,165,165); stroke-width: 0.5; stroke-dasharray: none; stroke-linecap: round; stroke-dashoffset: 0; stroke-linejoin: round; stroke-miterlimit: 10; fill: none; fill-rule: nonzero; opacity: 1;" vector-effect="non-scaling-stroke"  transform=" translate(-867.25, -401.44)" d="M 736.6 468.39 L 736.5 468.49 M 1074.5 648.09 L 1076.2 646.59 L 1077.8 644.09 L 1078.8 640.99 L 1079.1 637.29 M 735 467.99 L 735.3 467.79 M 811.2 69.19 L 807.9000000000001 67.59 L 804.7 66.89 L 801.7 66.99 L 799.6 67.69 M 813.2 68.99 L 812.8000000000001 68.89 L 812.3000000000001 68.79 L 811.8000000000001 68.89 L 811.2 69.19 M 1080.2 635.59 L 1080.1000000000001 636.09 L 1079.9 636.49 L 1079.6000000000001 636.89 L 1079.1000000000001 637.29 M 1064 213.79 L 1063.6 213.59 L 1063.1 213.59 L 1062.5 213.69 L 1061.9 213.89 M 1080.2 241.89 L 1080.1000000000001 242.39 L 1079.9 242.79 L 1079.6000000000001 243.19 L 1079.1000000000001 243.59 M 811.2 69.19 L 702 123.69 M 977.2 704.59 L 1079.1000000000001 637.2900000000001 M 1079.1 243.59 L 976.8999999999999 302.59000000000003 M 959.8 272.89 L 1061.8999999999999 213.89 M 673.4 585.79 L 673.3 585.6899999999999 L 673.0999999999999 585.39 M 671.1 583.89 L 673.1 585.39 M 780.8 541.79 L 788.8 536.99 M 673.4 585.59 L 673.6 585.99 L 673.8000000000001 586.09 M 929.3 733.29 L 929.5 733.6899999999999 L 929.7 733.79 M 953.2 720.69 L 953 723.49 L 952.3 727.09 L 950.9 730.19 L 949 732.69 L 946.5 734.59 L 945.9 734.7900000000001 M 920.5 657.79 L 920.5 657.79 L 920.5 657.99 L 920.3 658.39 L 920 658.59 L 919.7 658.69 L 919.5 658.59 M 674.8 573.39 L 678.6999999999999 545.99 L 680.3 520.79 M 724.4 330.59 L 723.9 330.78999999999996 L 722.4 332.89 L 721.9 336.28999999999996 M 654.4 549.09 L 654.4 549.19 L 654.5 549.59 M 654.4 149.69 L 654.4 149.89 L 654.5 150.19 M 862.8 546.59 L 862.8 546.59 L 864.6999999999999 547.39 L 867.5999999999999 547.6899999999999 L 869.4999999999999 546.89 M 654.4 476.29 L 654.5 520.29 L 654.5 549.5899999999999 M 654.5 150.19 L 654.4 222.39 M 665.5 553.69 L 672.5 534.2900000000001 L 676.7 518.2900000000001 M 676.5 175.89 L 676.6 175.79 L 676.8000000000001 175.59 L 677.1 175.59 L 677.6 175.69 M 654.4 149.49 L 654.4 149.59 L 654.5 149.89000000000001 M 660.2 135.69 L 660.7 135.29 L 663.1 134.39 L 665.9 134.19 L 668.9 134.69 L 672.1 135.99 L 674.5 137.39000000000001 M 745.3 328.79 L 744.6999999999999 329.19 M 851.6 389.99 L 850.8000000000001 390.49 M 871.7 541.99 L 871.7 541.99 L 871.7 542.29 L 871.9000000000001 542.49 L 872.1000000000001 542.69 L 872.4000000000001 542.8900000000001 M 745.3 319.49 L 744.6999999999999 319.79 M 851.6 380.59 L 850.8000000000001 381.09 M 729 330.39 L 729 330.69 L 729.1 330.99 L 729.2 331.19 L 729.4000000000001 331.39 M 745.3 310.09 L 744.6999999999999 310.39 M 851.6 371.29 L 850.8000000000001 371.69 M 861.4 406.79 L 861.4 407.09000000000003 L 861.5 407.39000000000004 L 861.6 407.59000000000003 L 861.8000000000001 407.79 M 872.4 424.89 L 872.1 424.69 L 871.9 424.49 L 871.6999999999999 424.19 L 871.6999999999999 423.99 M 734.9 285.89 L 735.1 287.49 L 735.5 288.89 L 736.2 289.99 L 737.1 290.79 M 734.9 285.19 L 735.1 283.39 L 735.5 281.59 L 736.2 279.69 L 737.1 277.79 L 737.8000000000001 276.69 M 1061.9 213.89 L 811.2 69.19 M 1079.1 637.29 L 1079.1 243.58999999999997 M 1079.1 243.59 L 1078.8 239.49 L 1077.8 235.29000000000002 L 1076.2 230.89000000000001 L 1074.1000000000001 226.69000000000003 L 1071.5000000000002 222.69000000000003 L 1068.5000000000002 219.19000000000003 L 1065.3000000000002 216.19000000000003 L 1061.9 213.89000000000001 M 654.4 549.49 L 654.4 549.59 L 654.5 549.89 M 654.5 549.59 L 654.5 549.59 L 654.5 549.89 M 654.5 549.89 L 654.7 552.79 L 656.3000000000001 560.89 L 658.0000000000001 565.49 L 660.1000000000001 569.89 L 662.4000000000001 573.99 L 665.1000000000001 577.79 L 668.0000000000001 581.0899999999999 L 671.1000000000001 583.8899999999999 M 673.1 585.39 L 673.4 585.59 M 674.7 573.59 L 674.7 573.2900000000001 M 664.7 554.79 L 665.3000000000001 554.99 M 674.7 573.59 L 674.7 573.59 L 671.5 570.7900000000001 L 668.6 566.7900000000001 L 667.8000000000001 565.3900000000001 L 665.8000000000001 560.5900000000001 L 664.8000000000001 555.7900000000002 L 664.7 554.7900000000002 M 665.5 553.69 L 665.5 553.69 L 665.3 554.99 M 665.3 554.99 L 665.3 555.99 L 666.0999999999999 560.59 L 667.9999999999999 565.2900000000001 L 668.6999999999999 566.69 L 671.5999999999999 570.59 L 674.6999999999999 573.2900000000001 M 674.7 573.29 L 674.7 573.29 L 674.8000000000001 573.39 M 726.4 393.19 L 726.4 393.19 M 726.4 397.69 L 726.4 397.69 M 726.4 427.29 L 726.4 427.19 M 726.4 422.29 L 726.4 422.29 M 726.4 403.99 L 726.4 404.09000000000003 M 726.4 415.99 L 726.4 415.99 M 726.4 451.79 L 726.9 455.49 L 728.3 459.49 L 730.4 463.09000000000003 L 733.1 466.19000000000005 L 735 467.59000000000003 M 721.9 454.29 L 721.9 454.29 L 722 456.49 L 723.1 460.39 L 724.9 464.28999999999996 L 727.5 467.68999999999994 L 730.5 470.28999999999996 M 726.4 392.69 L 726.4 392.69 M 928.9 733.09 L 929.1 733.39 L 929.3000000000001 733.59 M 798 551.69 L 809.9 544.69 M 798 542.29 L 801.9 540.0899999999999 M 921.6 715.79 L 921.6 716.1899999999999 M 674.8 573.69 L 674.8 573.3900000000001 M 921.6 716.19 L 921.6 716.19 M 921.6 716.19 L 864.7 686.69 L 829 667.2900000000001 L 794 647.3900000000001 L 759.4 627.0900000000001 L 725.4 606.2900000000002 L 692.1999999999999 585.0900000000001 L 674.8 573.6900000000002 M 674.8 573.69 L 674.6999999999999 573.59 M 673.4 585.59 L 673.5 580.39 L 674.7 573.59 M 673.4 585.59 L 673.4 585.59 L 694.9 599.59 L 728.1 620.59 L 762.1 641.19 L 796.7 661.59 L 832 681.59 L 868 701.2900000000001 L 928.9 733.09 M 921.7 715.89 L 921.6 716.1899999999999 M 932.7 709.39 L 933.2 709.79 M 863.2 541.79 L 863.2 541.6899999999999 M 970.6 722.59 L 972.3000000000001 721.49 L 974.4000000000001 719.19 L 976.0000000000001 716.2900000000001 L 976.9000000000001 712.7900000000001 L 977.2 708.69 M 951 720.99 L 951.5 721.09 L 952.1 720.99 L 952.7 720.89 L 953.2 720.6899999999999 M 726.4 451.79 L 726.4 333.69000000000005 M 721.9 454.29 L 726.4 451.79 M 721.9 454.29 L 721.5 454.49 L 721.2 454.59000000000003 L 720.7 454.69000000000005 L 720.3000000000001 454.69000000000005 L 719.9000000000001 454.59000000000003 L 719.5000000000001 454.59000000000003 L 719.1000000000001 454.39000000000004 L 718.8000000000002 454.29 M 721.9 336.29 L 721.9 454.29 M 933.2 709.79 L 933.2 709.79 L 933.1 710.6899999999999 L 932 714.29 L 929.7 716.5899999999999 L 928.8000000000001 716.9899999999999 L 925.4000000000001 717.2899999999998 L 921.6000000000001 716.1899999999998 M 928.9 733.09 L 925.3 725.69 L 921.5999999999999 716.19 M 928.9 733.09 L 928.9 733.09 L 929.3 733.2900000000001 M 929.3 733.29 L 932 734.39 L 935.5 735.39 L 938.8 735.59 L 941.8 735.19 L 944.5 734.09 L 946.9 732.39 L 948.6999999999999 729.99 L 949.9999999999999 726.99 L 950.7999999999998 723.59 L 950.9999999999999 720.99 M 951 720.99 L 951 720.69 M 741.7 293.09 L 742 292.78999999999996 M 742 292.19 L 742 292.79 M 919.2 658.49 L 919 658.49 L 918.9 658.39 L 918.8 658.29 L 918.8 657.99 M 677.6 519.09 L 677.4 518.99 L 677.3 518.89 L 677.1999999999999 518.6899999999999 L 677.1999999999999 518.4899999999999 M 919.2 658.49 L 887.2 642.09 L 855.8000000000001 625.39 L 824.8000000000001 608.39 L 794.3000000000001 591.09 L 764.4000000000001 573.59 L 734.9000000000001 555.69 L 706.0000000000001 537.49 L 677.6000000000001 519.09 M 674.8 573.39 L 674.8 573.39 L 692.1999999999999 584.6899999999999 L 725.4 605.79 L 759.4 626.49 L 794 646.89 L 829 666.79 L 864.7 686.1899999999999 L 921.6 715.79 M 727.1 330.29 L 726.6 331.59000000000003 L 726.4 333.69000000000005 M 726.4 333.69 L 721.9 336.29 M 718.8 336.19 L 719.0999999999999 336.39 L 719.4999999999999 336.49 L 719.8999999999999 336.59000000000003 L 720.2999999999998 336.59000000000003 L 720.6999999999998 336.59000000000003 L 721.1999999999998 336.49 L 721.4999999999998 336.39 L 721.8999999999997 336.28999999999996 M 921.7 715.89 L 925.3000000000001 716.99 L 928.6 716.69 L 929.5 716.2900000000001 L 931.7 713.8900000000001 L 932.6 710.3900000000001 L 932.7 709.3900000000001 M 932.7 709.39 L 932.7 708.09 M 924.6 656.99 L 924.4 658.09 L 924.1 658.49 L 923.7 658.79 L 922.8000000000001 658.99 L 922.7 658.99 M 921.6 715.79 L 921.7 686.39 L 921.6 658.6899999999999 M 921.6 715.79 L 921.6 715.79 L 921.7 715.89 M 867.3 543.99 L 846.4 532.59 L 805.3 509.59000000000003 L 769.8 488.79 L 735 467.59000000000003 M 735 467.59 L 730.5 470.28999999999996 M 730.5 470.29 L 730.2 470.49 L 729.9000000000001 470.69 L 729.6000000000001 470.99 L 729.4000000000001 471.39 L 729.2 471.69 L 729.1 472.09 L 729 472.48999999999995 L 729 472.78999999999996 M 730.5 470.29 L 765.3 491.39000000000004 L 800.8 512.19 L 841.9 535.2900000000001 L 862.8 546.59 M 867.3 543.99 L 870.4 544.99 L 871.1 544.99 M 862.8 546.59 L 867.3 543.99 M 862.8 546.59 L 862.5 546.7900000000001 L 862.2 547.09 L 862 547.39 L 861.8 547.79 L 861.5999999999999 548.0899999999999 L 861.4999999999999 548.4899999999999 L 861.3999999999999 548.8899999999999 L 861.3999999999999 549.2899999999998 M 664.7 553.39 L 665 553.59 L 665.5 553.69 M 664.7 165.69 L 665 165.89 L 665.4 165.98999999999998 M 654.5 549.59 L 658.7 552.39 L 664.7 554.79 M 664.7 554.79 L 664.7 554.79 L 664.7 553.39 M 664.7 553.39 L 664.7 456.19 L 664.8000000000001 348.49 L 664.8000000000001 335.09000000000003 L 664.8000000000001 281.19000000000005 L 664.7 165.69000000000005 M 664.7 165.69 L 664.7 165.49 M 654.4 222.39 L 654.3 307.19 L 654.3 349.79 L 654.4 476.29 M 676.4 516.89 L 676.4 516.99 L 676.4 517.19 L 676.5 517.2900000000001 L 676.6 517.4900000000001 M 665.4 165.99 L 665.3 210.49 L 665.1999999999999 281.39 L 665.1999999999999 335.19 L 665.1999999999999 348.69 L 665.3 456.39 L 665.5 553.6899999999999 M 676.4 176.39 L 676.4 176.58999999999997 L 676.4 176.68999999999997 L 676.5 176.88999999999996 L 676.6 176.98999999999995 M 664.7 165.49 L 665 165.69 L 665.4 165.79 M 674.7 159.59 L 674.7 160.09 L 674.8000000000001 160.39000000000001 M 675.1 160.59 L 675.1 160.59 L 674.8000000000001 160.39000000000001 M 674.8 160.39 L 673.9 159.89 L 670.8 158.89 L 668.1999999999999 159.39 L 667.5999999999999 159.79 L 665.8999999999999 162.48999999999998 L 665.3999999999999 165.79 M 665.4 165.79 L 665.4 165.98999999999998 M 665.4 165.99 L 673 170.79000000000002 L 675.8 172.69000000000003 L 677.6999999999999 173.99000000000004 M 678 172.89 L 678.2 172.48999999999998 L 678.5 172.18999999999997 L 679.4 172.08999999999997 L 680.4 172.58999999999997 M 698.4 121.69 L 694.8 119.89 L 691.1999999999999 118.99 L 687.9 118.78999999999999 L 684.9 119.49 L 683.1 120.49 M 654.4 149.39 L 654.4 149.48999999999998 M 674.5 137.39 L 674.1 137.79 L 673.6 138.19 L 673.3000000000001 138.79 L 673.0000000000001 139.39 M 740.4 291.99 L 741.6999999999999 293.09000000000003 M 732.4 276.19 L 732.5 276.59 M 732.3 276.99 L 732.5999999999999 274.99 L 732.9999999999999 274.69 M 743.2 293.19 L 742.6 293.39 L 739.7 292.19 L 737.4000000000001 290.19 M 654.5 150.19 L 658.7 157.59 L 664.7 165.49 M 664.7 165.49 L 664.7 165.49 L 665.2 161.99 L 667 159.19 L 667.7 158.69 L 670.4000000000001 158.09 L 673.7 159.09 L 674.7 159.59 M 673.4 139.59 L 673.4 139.59 L 673 139.39000000000001 M 673 139.39 L 670.8 137.98999999999998 L 667.8 136.79 L 664.9 136.29 L 662.3 136.39 L 660.0999999999999 137.29 L 658.0999999999999 138.89 L 656.4999999999999 141.08999999999997 L 655.2999999999998 143.89 L 654.6999999999998 147.29 L 654.4999999999998 149.89 M 654.5 149.89 L 654.5 150.19 M 850.8 390.49 L 851.0999999999999 390.59000000000003 L 851.3 390.59000000000003 L 851.5 390.59000000000003 L 851.6 390.49 M 744.7 329.19 L 797 360.29 L 850.8 390.49 M 861.8 407.79 L 861.8 407.79 M 850.8 381.09 L 851.0999999999999 381.19 L 851.3 381.19 L 851.5 381.19 L 851.6 381.09 M 744.7 319.79 L 797 350.89000000000004 L 850.8 381.09000000000003 M 850.8 371.69 L 851.0999999999999 371.79 L 851.3 371.79 L 851.5 371.79 L 851.6 371.69 M 744.7 310.39 L 797 341.49 L 850.8 371.69 M 920.5 405.59 L 920.5 405.09 L 920.5 404.78999999999996 M 919.5 657.69 L 919.7 657.69 L 920 657.7900000000001 L 920.2 657.7900000000001 L 920.5 657.7900000000001 M 920.5 317.29 L 920.5 404.79 M 920.5 404.79 L 920.5 405.59000000000003 M 920.5 405.59 L 920.5 657.79 M 924.6 656.99 L 920.5 657.79 M 919.5 317.19 L 919.7 317.29 L 920 317.29 L 920.2 317.39000000000004 L 920.5 317.29 M 919.2 315.19 L 919.2 315.19 L 919.4000000000001 315.29 L 919.8000000000001 315.69 L 920.2 316.19 L 920.4000000000001 316.69 L 920.5000000000001 317.29 M 924.6 316.59 L 920.5 317.28999999999996 M 918.8 316.19 L 918.8 315.89 L 918.9 315.69 L 919 315.39 L 919.2 315.19 M 677.2 176.69 L 677.2 176.39 L 677.3000000000001 176.08999999999997 L 677.5000000000001 175.89 L 677.6000000000001 175.69 M 919.5 657.69 L 919.5 317.19000000000005 M 919.5 317.19 L 919.4 316.89 L 919.3 316.69 L 919.0999999999999 316.39 L 918.8999999999999 316.28999999999996 L 918.7999999999998 316.18999999999994 M 918.8 316.19 L 886.9 299.79 L 855.4 283.09000000000003 L 824.4 266.09000000000003 L 793.9 248.79000000000002 L 764 231.19000000000003 L 734.5 213.29000000000002 L 705.6 195.09000000000003 L 677.2 176.69000000000003 M 677.2 176.69 L 677 176.59 L 676.8 176.59 L 676.6999999999999 176.69 L 676.5999999999999 176.89 L 676.5999999999999 176.98999999999998 M 676.6 176.99 L 676.6 517.49 M 676.6 517.49 L 676.7 517.69 L 676.8000000000001 517.99 L 676.9000000000001 518.19 L 677.1000000000001 518.3900000000001 L 677.2000000000002 518.4900000000001 M 677.2 518.49 L 705.6 536.99 L 734.5 555.09 L 764 572.99 L 794 590.59 L 824.4 607.89 L 855.4 624.89 L 886.9 641.59 L 918.8 657.99 M 918.8 657.99 L 919.0999999999999 658.09 L 919.1999999999999 658.09 L 919.4 657.89 L 919.5 657.79 L 919.5 657.6899999999999 M 729 279.19 L 729.2 282.29 L 730.2 285.69 L 731.9000000000001 289.09 L 734.1000000000001 291.89 L 736.6000000000001 293.99 L 739.2000000000002 294.99 L 741.4000000000002 294.79 L 743.1000000000003 293.59000000000003 L 744.0000000000002 291.29 L 744.2000000000003 288.29 L 743.4000000000003 284.89000000000004 L 741.9000000000003 281.49000000000007 L 739.8000000000003 278.49000000000007 L 737.3000000000003 276.19000000000005 L 734.7000000000003 274.7900000000001 L 732.4000000000003 274.5900000000001 L 730.5000000000003 275.49000000000007 L 729.3000000000003 277.49000000000007 L 729 279.19 M 780.8 532.29 L 779.4 531.79 L 778.1999999999999 531.79 L 777.3 532.49 L 776.8 533.69 L 776.6999999999999 535.19 L 777.0999999999999 536.99 L 777.8999999999999 538.69 L 778.9999999999999 540.2900000000001 L 780.3999999999999 541.4900000000001 L 780.7999999999998 541.7900000000001 M 798 542.29 L 780.8 532.29 M 798 551.69 L 799.8 555.49 L 802.3 558.89 L 805.1999999999999 561.39 L 808.1999999999999 562.79 L 810.9 562.89 L 813.1 561.79 L 814.5 559.49 L 814.9 556.29 L 814.3 552.49 L 812.6999999999999 548.69 L 810.4 545.19 L 807.6 542.3900000000001 L 804.6 540.5900000000001 L 801.7 540.0900000000001 L 799.3000000000001 540.7900000000002 L 798.0000000000001 542.2900000000002 M 780.8 541.79 L 798 551.6899999999999 M 861.4 406.79 L 865.1999999999999 409.69 L 868.4 413.39 L 870.8 417.78999999999996 L 872.0999999999999 422.39 L 872.3999999999999 424.89 M 872.4 424.89 L 872.4 542.89 M 872.4 542.89 L 871.6 546.79 L 869.8000000000001 549.39 L 867.0000000000001 550.49 L 863.5000000000001 550.19 L 861.4000000000001 549.2900000000001 M 861.4 549.29 L 840.5 537.89 L 799.3 514.79 L 763.8 493.98999999999995 L 729 472.78999999999996 M 729 472.79 L 725.4 469.79 L 722.4 465.89000000000004 L 720.1999999999999 461.39000000000004 L 718.9999999999999 456.79 L 718.7999999999998 454.29 M 718.8 454.29 L 718.8 336.19000000000005 M 718.8 336.19 L 719.5 332.29 L 721.2 329.89000000000004 L 723.8000000000001 328.89000000000004 L 727.0000000000001 329.39000000000004 L 729.0000000000001 330.39000000000004 M 729 330.39 L 748.6 342.49 L 788.6 366.19 L 824.6 386.69 L 861.4 406.79 M 861.3 396.49 L 861.3 398.29 M 861.3 398.29 L 861.1999999999999 398.69 L 860.9999999999999 398.99 L 860.5999999999999 398.99 L 860.1999999999999 398.89 M 860.2 398.89 L 815.8000000000001 374.49 L 772.4000000000001 349.39 L 730.0000000000001 323.78999999999996 M 730 323.79 L 729.6 323.39000000000004 L 729.3000000000001 322.99000000000007 L 729.1 322.39000000000004 L 729 321.89000000000004 M 729 321.89 L 729 320.19 M 729 320.19 L 729.1 319.79 L 729.3000000000001 319.49 L 729.6 319.39 L 730 319.59 M 730 319.59 L 772.4 345.19 L 815.8 370.29 L 860.1999999999999 394.69 M 860.2 394.69 L 860.6 395.09 L 861 395.48999999999995 L 861.2 395.98999999999995 L 861.3000000000001 396.48999999999995 M 861.3 387.19 L 861.3 388.89 M 861.3 388.89 L 861.1999999999999 389.28999999999996 L 860.9999999999999 389.59 L 860.5999999999999 389.69 L 860.1999999999999 389.49 M 860.2 389.49 L 815.8000000000001 365.09000000000003 L 772.4000000000001 339.99 L 730.0000000000001 314.39 M 730 314.39 L 729.6 313.99 L 729.3000000000001 313.59000000000003 L 729.1 313.09000000000003 L 729 312.49 M 729 312.49 L 729 310.79 M 729 310.79 L 729.1 310.39000000000004 L 729.3000000000001 310.09000000000003 L 729.6 310.09000000000003 L 730 310.19000000000005 M 730 310.19 L 772.4 335.89 L 815.8 360.89 L 860.1999999999999 385.39 M 860.2 385.39 L 860.6 385.69 L 861 386.09 L 861.2 386.69 L 861.3000000000001 387.19 M 861.3 377.79 L 861.3 379.49 M 861.3 379.49 L 861.1999999999999 379.99 L 860.9999999999999 380.19 L 860.5999999999999 380.29 L 860.1999999999999 380.19 M 860.2 380.19 L 815.8000000000001 355.69 L 772.4000000000001 330.69 L 730.0000000000001 304.99 M 730 304.99 L 729.6 304.69 L 729.3000000000001 304.19 L 729.1 303.69 L 729 303.19 M 729 303.19 L 729 301.39 M 729 301.39 L 729.1 300.99 L 729.3000000000001 300.79 L 729.6 300.69 L 730 300.79 M 730 300.79 L 772.4 326.49 L 815.8 351.59000000000003 L 860.1999999999999 375.99 M 860.2 375.99 L 860.6 376.29 L 861 376.79 L 861.2 377.29 L 861.3000000000001 377.79 M 677.6 175.69 L 680.4 172.59 M 677.6 175.69 L 706 194.19 L 734.9 212.29 L 764.4 230.19 L 794.3 247.79 L 824.8 265.09 L 855.8 282.09 L 887.1999999999999 298.78999999999996 L 919.1999999999999 315.18999999999994 M 919.2 315.19 L 921.6 311.79 M 932.7 708.09 L 928.8000000000001 682.2900000000001 L 924.6 656.9900000000001 M 924.6 316.59 L 924.6 656.99 M 932.7 708.09 L 932.7 629.89 L 932.8000000000001 551.6899999999999 L 932.8000000000001 503.18999999999994 L 932.8000000000001 492.48999999999995 L 932.7 449.78999999999996 L 932.7 407.09 L 932.7 364.39 L 932.7 320.28999999999996 M 932.7 708.09 L 932.9000000000001 708.2900000000001 L 933.3000000000001 708.4900000000001 M 675.1 160.59 L 679.2 167.29 L 680.3000000000001 170.19 L 680.4000000000001 172.59 M 680.4 172.59 L 737.6 209.09 L 797 244.49 L 858.3 278.79 L 921.5999999999999 311.79 M 921.6 302.89 L 921.5 302.49 L 921.5 302.09000000000003 M 674.9 159.79 L 674.9 160.19 L 675.1 160.59 M 921.6 302.89 L 921.6 302.89 L 878.5 280.69 L 844.3 262.39 L 810.6999999999999 243.69 L 794.0999999999999 234.19 L 737.1999999999999 200.29 L 682.3 165.29 L 675.0999999999999 160.59 M 932.7 320.29 L 928.3000000000001 318.19 L 926.4000000000001 317.39 L 924.6000000000001 316.59 M 921.8 302.99 L 921.8 302.99 L 921.5999999999999 302.89 M 921.6 302.89 L 921.2 306.99 L 921.2 309.29 L 921.6 311.79 M 921.6 311.79 L 922.8000000000001 312.59000000000003 L 923.7 313.79 L 924.4000000000001 315.19 L 924.6000000000001 316.59 M 932.7 320.29 L 932.9000000000001 320.39000000000004 L 933.2 320.49000000000007 M 921.8 302.99 L 921.6999999999999 302.69 L 921.6999999999999 302.29 M 932.7 320.29 L 932.7 320.29 L 932.6 318.99 L 931.6 314.59000000000003 L 929.4 310.19000000000005 L 928.4 308.69000000000005 L 925.1 305.19000000000005 L 921.8000000000001 302.99000000000007 M 951 720.69 L 951.5 720.7900000000001 L 952.1 720.7900000000001 L 952.7 720.59 L 953.2 720.39 M 950.9 321.29 L 951.5 321.39000000000004 L 952.1 321.39000000000004 L 952.7 321.29 L 953.2 321.09000000000003 M 977.2 708.69 L 977.2 306.89000000000004 M 953.2 320.79 L 953.2 321.09000000000003 M 953.2 321.09 L 953 478.18999999999994 L 953 520.89 L 953 606.09 L 953.1 691.19 L 953.2 720.3900000000001 M 953.2 720.39 L 953.2 720.6899999999999 M 953.2 720.69 L 977.2 708.69 M 933.2 320.49 L 933.2 360.29 L 933 439.99 L 933 450.09000000000003 L 933 492.69000000000005 L 933 503.39000000000004 L 933.1 594.09 L 933.2 684.7900000000001 L 933.3000000000001 708.4900000000001 M 933.3 708.49 L 933.3 708.49 L 933.1999999999999 709.79 M 951 720.69 L 940.7 715.09 L 933.2 709.7900000000001 M 951 720.69 L 951 717.19 L 951 703.3900000000001 L 951 647.8900000000001 L 951.1 606.3900000000001 L 951.1 521.19 L 951.1 478.49000000000007 L 951 321.2900000000001 M 674.9 159.79 L 682.1999999999999 164.59 L 737.0999999999999 199.39 L 793.9999999999999 233.29 L 810.5999999999999 242.79 L 844.1999999999999 261.49 L 878.4 279.89 L 921.5 302.09 M 921.5 302.09 L 921.7 302.28999999999996 M 673.4 139.59 L 673.5 149.09 L 674.7 159.59 M 674.7 159.59 L 674.7 159.59 L 674.9000000000001 159.79 M 956.2 270.49 L 698.4000000000001 121.69 M 698.4 121.69 L 674.5 137.39 M 674.5 137.39 L 674.9 137.69 M 930.2 284.99 L 930.6 285.19 M 674.9 137.69 L 674.4 137.99 L 674 138.49 L 673.6 139.09 L 673.4 139.59 M 928.9 287.09 L 928.9 287.09 L 868 255.78999999999996 L 832 236.28999999999996 L 796.7 216.28999999999996 L 762.1 195.88999999999996 L 728.1 174.98999999999995 L 694.8000000000001 153.78999999999996 L 673.4000000000001 139.58999999999997 M 930.2 284.99 L 929.8000000000001 285.39 L 929.4000000000001 285.89 L 929.1000000000001 286.49 L 928.9000000000001 287.09000000000003 M 674.9 137.69 L 696.3 151.79 L 729.5999999999999 172.89 L 763.4999999999999 193.69 L 798.0999999999999 214.09 L 833.3999999999999 234.09 L 869.3999999999999 253.59 L 930.1999999999998 284.99 M 928.9 287.09 L 925.3 294.39 L 921.6999999999999 302.28999999999996 M 921.7 302.29 L 921.7 302.29 L 925.2 304.69 L 928.7 308.39 L 929.8000000000001 309.99 L 932.1 314.69 L 933.2 319.29 L 933.2 320.49 M 933.2 320.49 L 933.2 320.49 M 950.9 321.29 L 940.6999999999999 321.09000000000003 L 933.1999999999999 320.49 M 950.9 321.29 L 951 320.99 M 929.3 287.29 L 928.9 287.09000000000003 M 977.2 306.89 L 953.2 320.78999999999996 M 977.2 306.89 L 976.9000000000001 302.49 L 976.0000000000001 297.89 L 974.4000000000001 293.09 L 972.3000000000001 288.39 L 969.7 283.89 L 966.7 279.78999999999996 L 963.4000000000001 276.09 L 959.9000000000001 272.89 L 956.2 270.49 M 930.6 285.19 L 956.2 270.49 M 951 320.99 L 951.5 321.09000000000003 L 952.1 321.09000000000003 L 952.7 320.99 L 953.2 320.79 M 930.6 285.19 L 933 286.59 L 936.7 289.19 L 940.3000000000001 292.39 L 943.6 296.09 L 946.5 300.19 L 949 304.69 L 951 309.39 L 952.3 313.59 L 953 317.69 L 953.2 320.79 M 929.3 287.29 L 929.5 286.69 L 929.8 286.09 L 930.1999999999999 285.59 L 930.5999999999999 285.19 M 951 320.99 L 950.8 318.09000000000003 L 948.9 310.19000000000005 L 947 305.7900000000001 L 944.5 301.49000000000007 L 941.7 297.5900000000001 L 938.6 294.0900000000001 L 935.2 291.0900000000001 L 931.6 288.5900000000001 L 929.3000000000001 287.2900000000001 M 773.9 336.79 L 773.9 336.89000000000004 L 775.3 341.79 M 733 274.69 L 733 275.59 M 734.9 285.19 L 734.8 285.19 L 734.6999999999999 285.19 L 734.5999999999999 285.29 L 734.5999999999999 285.39000000000004 L 734.5999999999999 285.49000000000007 L 734.6999999999999 285.69000000000005 L 734.8 285.7900000000001 L 734.9 285.8900000000001 M 734.9 285.89 L 735 285.99 L 735.1 285.89 L 735.2 285.89 L 735.2 285.69 L 735.2 285.59 L 735.1 285.39 L 735 285.28999999999996 L 734.9 285.18999999999994 M 771.3 337.29 L 771.6999999999999 337.09000000000003 M 770.2 338.49 L 770.2 338.69 M 771.3 337.29 L 772.4 337.89000000000004 M 771.3 337.29 L 770.1999999999999 338.49 M 775.2 341.39 L 770.2 338.49 M 855.7 537.59 L 855.7 537.59 M 760.8 483.29 L 760.8 483.19 M 851 534.99 L 851 535.09 M 752.7 330.59 L 754.8000000000001 329.28999999999996 M 783.9 346.89 L 754.8 329.28999999999996 M 726.4 383.99 L 726.5 450.89 M 726.3 330.19 L 726.3 332.59 M 735.9 467.99 L 732.8 465.39 L 730 461.89 L 727.9 457.69 L 726.6999999999999 453.49 L 726.4999999999999 450.89 M 735.9 467.99 L 778.9 493.99 L 823 519.49 L 868.2 544.29 M 871 545.29 L 870.4 545.29 L 868.1999999999999 544.29 M 1074.3 648.19 L 1075.2 647.59 L 1077.1000000000001 645.69 L 1078.6000000000001 643.3900000000001 L 1079.6000000000001 640.5900000000001 L 1080.1000000000001 637.4900000000001 L 1080.2 635.5900000000001 M 813.2 68.99 L 811.5 68.19 L 808.3 66.99 L 805.5 66.58999999999999 L 802.8 66.68999999999998 L 800 67.48999999999998 L 799.7 67.68999999999998 M 976.9 712.59 L 1074.5 648.09 M 799.6 67.69 L 694.9 119.99 M 1064 213.79 L 813.2 68.99 M 1080.2 635.59 L 1080.2 241.89000000000004 M 1080.2 241.89 L 1080.1000000000001 239.98999999999998 L 1079.6000000000001 236.29 L 1078.6000000000001 232.59 L 1077.1000000000001 228.89000000000001 L 1075.2 225.39000000000001 L 1073 222.09 L 1070.5 218.99 L 1067.7 216.39000000000001 L 1064.9 214.29000000000002 L 1064 213.79000000000002 M 654.4 549.09 L 654.4 549.49 M 673.4 585.79 L 673.8 586.0899999999999 M 671.8 584.59 L 673.0999999999999 585.59 L 673.3999999999999 585.7900000000001 M 676.4 516.79 L 676.4 517.29 L 676.6 517.99 L 676.9 518.59 L 677.3 518.89 L 677.4 518.99 M 673.8 586.09 L 686.5 594.39 L 712.8 611.29 L 741 628.89 L 769.7 646.1899999999999 L 799.1 663.29 L 829.1 680.29 L 859.5 697.0899999999999 L 890.2 713.3899999999999 L 919.8000000000001 728.7899999999998 L 929.3000000000001 733.5899999999998 M 946 734.89 L 970.6 722.59 M 929.7 733.79 L 930 733.89 L 933.5 735.29 L 937.1 736.1899999999999 L 940.4 736.29 L 943.5 735.79 L 945.9 734.89 M 918.8 658.39 L 919.3 658.59 L 919.5999999999999 658.69 M 919.6 658.69 L 921.2 658.8900000000001 L 922.8000000000001 658.9900000000001 M 724.4 330.49 L 724.8 330.29 L 725.9 330.09000000000003 L 727.3 330.39000000000004 L 729.0999999999999 331.19000000000005 L 729.3999999999999 331.39000000000004 M 654.4 149.39 L 654.4 149.69 M 654.4 149.69 L 654.3 221.99 M 654.3 475.89 L 654.4 549.09 M 871.7 541.99 L 871.7 542.19 L 871.4000000000001 544.19 L 870.8000000000001 545.69 L 870.0000000000001 546.7900000000001 L 869.5000000000001 546.9900000000001 M 676.4 176.59 L 676.4 517.09 M 676.5 175.89 L 676.4 176.19 L 676.4 176.59 M 678 172.79 L 677.2 174.39 L 676.5 175.89 M 683.1 120.49 L 660.2 135.59 M 660.2 135.69 L 659.2 136.29 L 657.4000000000001 138.29 L 656.1000000000001 140.69 L 655.1000000000001 143.59 L 654.5000000000001 146.89000000000001 L 654.4000000000001 149.49 M 871.7 423.99 L 871.7 541.99 M 729.4 331.39 L 729.5 331.39 L 757.8 348.69 L 786.5999999999999 365.79 L 815.8999999999999 382.59000000000003 L 845.6999999999998 399.09000000000003 L 861.8999999999999 407.79 M 861.8 407.79 L 862.0999999999999 407.99 L 863.9999999999999 409.29 L 865.9999999999999 411.09000000000003 L 867.7999999999998 413.29 L 869.3999999999999 415.79 L 870.4999999999999 418.39000000000004 L 871.2999999999998 420.99000000000007 L 871.6999999999998 423.39000000000004 L 871.6999999999998 423.99000000000007 M 733.5 274.69 L 732.3 277.09 L 731.5999999999999 279.48999999999995 L 731.4999999999999 281.88999999999993 L 731.7999999999998 283.48999999999995 L 732.2999999999998 285.18999999999994 L 732.9999999999999 286.68999999999994 M 733 286.69 L 734.7 288.89 L 735.6 289.69 L 737.1 290.79 M 737.1 290.79 L 737.2 290.79 L 739.2 291.69 L 741.5 292.19 L 743.7 292.19" stroke-linecap="round" />
</g>
</svg>