<?xml version="1.0" encoding="utf-8"?>
<!-- Generator: Adobe Illustrator 16.0.0, SVG Export Plug-In . SVG Version: 6.00 Build 0)  -->
<!DOCTYPE svg PUBLIC "-//W3C//DTD SVG 1.1//EN" "http://www.w3.org/Graphics/SVG/1.1/DTD/svg11.dtd">
<svg version="1.1" id="Layer_1" xmlns="http://www.w3.org/2000/svg" xmlns:xlink="http://www.w3.org/1999/xlink" x="0px" y="0px"
	 width="143px" height="130.5px" viewBox="0 0 143 130.5" enable-background="new 0 0 143 130.5" xml:space="preserve">
<g>
	<path fill="none" d="M112.09,21.458c0.637,0.067,1.205,0.31,1.704,0.666l17.113-5.739c-0.521-0.405-1.112-0.692-1.745-0.754
		c-23.446-2.26-47.293-4.449-70.355-6.566C47.419,8.019,35.652,6.936,24.067,5.861c-2.19,0.424-4.461,0.807-6.653,1.177
		C13.028,7.78,8.496,8.545,4.141,9.701c-0.394,0.105-0.669,0.195-0.876,0.29l1.251,0.136L112.09,21.458z"/>
	<path fill="none" d="M111.974,22.543L4.399,11.21l-1.626-0.179c0.002,0.012,0.002,0.021,0.002,0.031l8.075,79.015
		c0.182,1.518,1.346,2.166,2.473,2.791c0.202,0.115,0.399,0.227,0.584,0.336c10.04,3.834,20.075,7.689,30.109,11.539
		c19.854,7.621,40.381,15.502,60.618,23.121c0.317,0.119,0.642,0.178,0.963,0.178c0.135,0,0.269-0.01,0.397-0.029l0.37-0.656
		l0.228-1.469l8.031-99.02C114.769,24.54,113.657,22.718,111.974,22.543z"/>
	<path fill="none" d="M120.947,82.201c-0.08,0.055-0.171,0.1-0.264,0.1c-0.077-0.002-0.148,0.012-0.218-0.029
		c-0.152-0.086-0.236-0.189-0.213-0.361l2.479-22.329c0.019-0.157,0.115-0.024,0.254-0.086l5.777-1.901c0.002,0,0.004,0,0.006,0
		l3.911-37.238c0.096-1.176-0.455-2.681-1.326-3.575l-17.084,5.73c0.997,0.989,1.556,2.583,1.44,4.426l-8.038,99.067l-0.209,1.385
		c0.251-0.178,0.475-0.367,0.66-0.547l14.859-16.037l3.351-31.432L120.947,82.201z"/>
	<path fill="none" d="M129.475,15.004c0.88,0.085,1.694,0.488,2.353,1.071l6.471-2.169c-0.475-0.188-1.034-0.314-1.694-0.372
		L35.074,4.458l-8.022,1.021c10.683,0.99,21.366,1.972,32.054,2.955C82.173,10.551,106.025,12.741,129.475,15.004z"/>
	<path fill="none" d="M138.877,14.208c-0.026,0.029-0.046,0.065-0.085,0.079l-6.552,2.196c0.745,0.848,1.188,1.955,1.097,3.079
		l-9.635,90.461l5.301-5.721c0.471-0.617,0.491-0.912,0.542-1.621c0.013-0.193,10.663-84.913,10.663-84.913
		C140.354,16.029,139.927,14.876,138.877,14.208z"/>
	<path fill="none" d="M126.441,78.352l2.203-20.19l-5.09,1.932l-2.312,20.795C121.243,80.889,126.372,78.359,126.441,78.352z"/>
	<path fill="#A1A1A1" d="M136.716,12.273L35.128,3.192c-0.018-0.002-0.042-0.003-0.066-0.003c-0.023,0-0.048,0.001-0.071,0.005
		C34.757,3.229,8.162,7.324,3.818,8.478c-1.623,0.43-2.426,0.959-2.308,2.655l8.075,78.986l0.005,0.051l0.001,0.012l0.002,0.021
		c0.237,2.02,1.606,2.936,3.11,3.77l0.154,0.088c0.147,0.082,0.291,0.164,0.425,0.246c0.051,0.031,0.081,0.047,0.127,0.064
		c8.975,3.428,17.944,6.869,26.914,10.313l3.237,1.242l1.389,0.533c19.403,7.447,39.468,15.148,59.24,22.59
		c0.457,0.176,0.928,0.262,1.407,0.262c1.176,0,2.343-0.529,3.378-1.533l21.088-22.781c0.646-0.871,0.689-1.465,0.745-2.213
		l0.006-0.086c0.012-0.158,0.024-0.336,0.049-0.561l10.61-84.302C141.736,14.498,140.092,12.575,136.716,12.273z M35.074,4.458
		l101.529,9.076c0.66,0.058,1.22,0.184,1.694,0.372l-6.471,2.169c-0.658-0.583-1.473-0.986-2.353-1.071
		c-23.449-2.264-47.302-4.453-70.369-6.57C48.418,7.451,37.734,6.469,27.052,5.479L35.074,4.458z M4.141,9.701
		c4.355-1.155,8.888-1.921,13.273-2.663c2.192-0.37,4.463-0.753,6.653-1.177c11.585,1.075,23.352,2.158,34.739,3.204
		c23.063,2.117,46.909,4.307,70.355,6.566c0.633,0.062,1.225,0.349,1.745,0.754l-17.113,5.739c-0.499-0.356-1.067-0.599-1.704-0.666
		L4.516,10.126L3.265,9.991C3.472,9.896,3.747,9.806,4.141,9.701z M106.365,127.357l-0.37,0.656
		c-0.129,0.02-0.263,0.029-0.397,0.029c-0.321,0-0.646-0.059-0.963-0.178c-20.237-7.619-40.764-15.5-60.618-23.121
		c-10.034-3.85-20.069-7.705-30.109-11.539c-0.185-0.109-0.382-0.221-0.584-0.336c-1.127-0.625-2.291-1.273-2.473-2.791
		L2.775,11.063c0-0.011,0-0.02-0.002-0.031l1.626,0.179l107.574,11.333c1.684,0.175,2.795,1.996,2.65,4.325l-8.031,99.02
		L106.365,127.357z M108.123,126.842c-0.186,0.18-0.409,0.369-0.66,0.547l0.209-1.385l8.038-99.067
		c0.115-1.843-0.443-3.437-1.44-4.426l17.084-5.73c0.871,0.895,1.422,2.399,1.326,3.575l-3.911,37.238c-0.002,0-0.004,0-0.006,0
		l-5.777,1.901c-0.139,0.062-0.235-0.071-0.254,0.086l-2.479,22.329c-0.023,0.172,0.061,0.275,0.213,0.361
		c0.069,0.041,0.141,0.027,0.218,0.029c0.093,0,0.184-0.045,0.264-0.1l5.386-2.828l-3.351,31.432L108.123,126.842z M128.645,58.162
		l-2.203,20.19c-0.069,0.008-5.198,2.537-5.198,2.537l2.312-20.795L128.645,58.162z M140.208,17.769c0,0-10.65,84.719-10.663,84.913
		c-0.051,0.709-0.071,1.004-0.542,1.621l-5.301,5.721l9.635-90.461c0.092-1.124-0.352-2.231-1.097-3.079l6.552-2.196
		c0.039-0.014,0.059-0.05,0.085-0.079C139.927,14.876,140.354,16.029,140.208,17.769z"/>
	<path d="M35.062,1.189c-0.113,0-0.227,0.007-0.34,0.022c0.194-0.026,0.392-0.028,0.584-0.012
		C35.225,1.193,35.144,1.189,35.062,1.189z"/>
	<path fill="none" d="M91.777,42.906L14.947,29.704c-0.804-0.154-1.711,0.175-2.301,0.812c-0.425,0.459-0.635,1.021-0.594,1.584
		l2.075,33.864c0.218,2.863,1.015,3.244,3.294,3.927l71.311,21.074c0.319,0.082,0.626,0.125,0.911,0.125
		c2.668,0,2.814-3.152,2.861-4.207l1.328-41.029C93.85,45.089,93.896,43.308,91.777,42.906z M89.293,88.91
		c-0.101,0,0.066-0.02-0.033-0.045L18.31,67.891l-0.281-0.09c-1.632-0.484-1.625-0.484-1.741-2.003l-2.063-33.788
		c0.061-0.076,0.218-0.166,0.318-0.167l1.485,0.256l1.904,31.283c0.181,2.394,0.12,2.616,2.297,3.255l69.399,20.141v0.029
		C89.629,88.201,89.685,88.91,89.293,88.91z M91.654,46.03l-1.289,39.566L21.083,65.637l-0.199-0.018
		c-1.732-0.508-1.732-0.456-1.864-2.24l-1.883-30.981l74.237,12.877c0.15,0.028,0.223,0.29,0.234,0.29h0.002
		C91.635,45.565,91.666,45.559,91.654,46.03z"/>
	<path fill="none" d="M60.299,50.059c-0.598,0-1.137,0.246-1.517,0.709c-0.488,0.588-0.672,1.468-0.488,2.397
		c0.331,1.661,1.723,3.019,3.105,3.019c0.598,0,1.137-0.256,1.515-0.709c0.49-0.599,0.673-1.466,0.49-2.396
		C63.074,51.405,61.681,50.059,60.299,50.059z"/>
	<path fill="none" d="M31.259,45.907c-0.6,0-1.137,0.243-1.516,0.709c-0.49,0.586-0.673,1.466-0.49,2.396
		c0.331,1.663,1.725,3.021,3.106,3.021c0.6,0,1.137-0.257,1.516-0.71c0.49-0.599,0.673-1.467,0.49-2.396
		C34.034,47.251,32.64,45.907,31.259,45.907z"/>
	<path fill="#FFFFFF" d="M89.629,86.777L20.23,66.637c-2.178-0.639-2.117-0.862-2.297-3.255l-1.904-31.283l-1.485-0.256
		c-0.1,0.001-0.257,0.091-0.318,0.167l2.063,33.788c0.116,1.519,0.108,1.519,1.741,2.003l0.281,0.09l70.95,20.975
		c0.1,0.025-0.067,0.045,0.033,0.045c0.392,0,0.336-0.709,0.336-2.104V86.777z"/>
	<path fill="#FFFFFF" d="M91.611,45.565h-0.002c-0.012,0-0.084-0.262-0.234-0.29L17.138,32.398l1.883,30.981
		c0.131,1.784,0.131,1.732,1.864,2.24l0.199,0.018l69.282,19.958l1.289-39.566C91.666,45.559,91.635,45.565,91.611,45.565z
		 M33.875,51.322c-0.379,0.453-0.917,0.71-1.516,0.71c-1.381,0-2.775-1.357-3.106-3.021c-0.183-0.93,0-1.81,0.49-2.396
		c0.379-0.466,0.916-0.709,1.516-0.709c1.381,0,2.775,1.345,3.105,3.019C34.548,49.855,34.365,50.723,33.875,51.322z M62.915,55.475
		c-0.377,0.453-0.917,0.709-1.515,0.709c-1.382,0-2.775-1.357-3.105-3.019c-0.185-0.93,0-1.81,0.488-2.397
		c0.38-0.463,0.918-0.709,1.517-0.709c1.382,0,2.775,1.346,3.105,3.021C63.587,54.009,63.404,54.876,62.915,55.475z"/>
	<polygon fill="none" points="35.073,4.265 27.05,5.285 27.052,5.285 	"/>
	<path fill="none" d="M105.994,128.066L105.994,128.066c-0.129,0.02-0.263,0.029-0.398,0.029
		C105.731,128.096,105.863,128.086,105.994,128.066z"/>
	<polygon fill="none" points="123.701,110.076 129.001,104.354 123.701,110.076 	"/>
	<path fill="#FFFFFF" d="M120.945,82.242c-0.08,0.055-0.17,0.088-0.264,0.088c-0.076-0.002-0.148-0.01-0.217-0.051
		c-0.152-0.086-0.237-0.234-0.214-0.406l2.479-22.417c0.018-0.155,0.115,0.155,0.254,0.094l5.777-1.901c0.002,0,0.004,0,0.006,0
		l3.91-37.238c0.162-1.996-1.514-4.354-3.518-4.548c-23.445-2.259-47.293-4.537-70.354-6.655
		C47.418,8.161,35.651,7.034,24.067,5.958c-0.256,0.049-0.518,0.072-0.773,0.12c-1.951,0.367-3.944,0.698-5.881,1.025
		C13.027,7.843,8.496,8.744,4.14,9.898c-0.392,0.105-0.667,0.422-0.874,0.422l1.249-0.002l107.573,11.264
		c2.281,0.239,3.805,2.508,3.621,5.442l-8.039,99.05l-0.209,1.375c0.124-0.088,0.24-0.182,0.352-0.273
		c0.002-0.002,0.004-0.006,0.006-0.008c0.109-0.09,0.211-0.184,0.303-0.271l14.859-16.043l3.352-31.434L120.945,82.242z
		 M107.818,127.166c-0.002,0.002-0.004,0.004-0.006,0.006C107.814,127.17,107.816,127.168,107.818,127.166
		c0.109-0.092,0.211-0.184,0.303-0.271C108.029,126.982,107.928,127.074,107.818,127.166z M122.859,110.854L108,126.895
		L122.859,110.854L122.859,110.854z"/>
	<polygon fill="#FFFFFF" points="122.859,110.854 122.859,110.854 108,126.895 	"/>
	<path fill="#FFFFFF" d="M126.439,78.404l2.209-20.189l-5.09,1.932l-2.317,20.794C121.241,80.941,126.371,78.412,126.439,78.404z"/>
	<path fill="#FFFFFF" d="M136.602,13.586L35.073,4.511l-8.021,1.021c10.682,0.99,21.365,1.972,32.053,2.955
		c23.067,2.117,46.918,4.307,70.368,6.571c2.2,0.21,4.041,2.364,3.862,4.558l-9.634,90.46l5.3-5.723
		c0.472-0.615,0.491-0.91,0.542-1.619c0.013-0.193,10.663-84.913,10.663-84.913C140.43,15.136,139.318,13.83,136.602,13.586z"/>
	<path fill="#FFFFFF" d="M41.669,85.031c-0.472-0.15-0.841-0.135-1.107,0.049c-0.266,0.182-0.433,0.531-0.498,1.045l3.336,1.064
		c-0.08-0.51-0.278-0.961-0.596-1.355C42.488,85.439,42.11,85.172,41.669,85.031z"/>
	<path fill="#FFFFFF" d="M67.163,94.229c-0.375-0.506-0.862-0.852-1.462-1.041c-0.6-0.189-1.059-0.143-1.375,0.143
		c-0.317,0.283-0.454,0.768-0.408,1.449c0.045,0.676,0.254,1.264,0.627,1.762c0.374,0.5,0.858,0.844,1.455,1.029
		c0.603,0.191,1.064,0.145,1.386-0.135c0.321-0.281,0.458-0.76,0.411-1.436S67.538,94.732,67.163,94.229z"/>
	<path fill="#FFFFFF" d="M111.973,22.595L4.399,11.264l-1.626-0.179c0.002,0.011,0.002,0.02,0.002,0.031l8.076,79.014
		c0.181,1.518,1.345,2.166,2.472,2.791c0.203,0.115,0.399,0.227,0.584,0.336c10.041,3.834,20.075,7.688,30.109,11.539
		c19.854,7.621,40.38,15.502,60.617,23.121c0.318,0.119,0.643,0.178,0.963,0.178c0.136,0,0.27-0.01,0.398-0.029l0.369-0.656
		l0.228-1.469l8.031-99.019C114.767,24.592,113.655,22.772,111.973,22.595z M16.127,83.84l-0.255-8.682l2.866,0.928l0.275,8.682
		L16.127,83.84z M15.641,72.404c-0.015-0.465,0.125-0.811,0.421-1.037c0.295-0.229,0.659-0.27,1.09-0.131
		c0.448,0.146,0.83,0.43,1.142,0.85c0.312,0.418,0.478,0.863,0.495,1.34c0.017,0.477-0.123,0.83-0.419,1.063
		c-0.296,0.234-0.664,0.277-1.103,0.135c-0.428-0.139-0.802-0.426-1.123-0.865C15.823,73.32,15.655,72.867,15.641,72.404z
		 M27.129,87.373l-0.172-4.65c-0.027-0.693-0.153-1.232-0.378-1.615c-0.224-0.385-0.571-0.65-1.041-0.803
		c-0.598-0.191-1.024-0.098-1.281,0.283c-0.258,0.383-0.368,1.1-0.33,2.154l0.126,3.645l-2.838-0.91l-0.29-8.682l2.625,0.848
		l0.066,1.764c0.354-0.582,0.777-0.955,1.264-1.121c0.487-0.164,1.08-0.137,1.779,0.09c0.527,0.17,1.001,0.412,1.42,0.725
		c0.42,0.314,0.766,0.682,1.039,1.102c0.228,0.361,0.396,0.768,0.505,1.215s0.181,1.088,0.214,1.92l0.196,4.965L27.129,87.373z
		 M35.387,90.012L32.524,89.1l-0.272-6.516l-1.224-0.395l-0.093-2.166l1.222,0.393l-0.116-2.586l2.838,0.914l0.122,2.586
		l1.224,0.393l0.102,2.168l-1.226-0.395L35.387,90.012z M40.646,89.539c0.34,0.467,0.803,0.795,1.392,0.98
		c0.442,0.141,0.811,0.174,1.104,0.094c0.293-0.078,0.512-0.264,0.653-0.559l2.243,1.627c-0.229,0.582-0.668,0.945-1.317,1.096
		c-0.649,0.148-1.457,0.07-2.424-0.236c-1.442-0.459-2.617-1.246-3.525-2.361c-0.907-1.117-1.391-2.361-1.453-3.738
		c-0.063-1.35,0.316-2.336,1.138-2.953c0.82-0.617,1.891-0.715,3.214-0.291c1.362,0.436,2.461,1.232,3.298,2.389
		c0.838,1.156,1.3,2.523,1.384,4.1l0.008,0.146l-6.279-1.998C40.12,88.506,40.309,89.074,40.646,89.539z M54.052,90.01
		c-0.179-0.117-0.354-0.219-0.525-0.301c-0.172-0.082-0.336-0.148-0.495-0.199c-0.71-0.225-1.246-0.172-1.604,0.16
		c-0.36,0.334-0.516,0.92-0.468,1.756l0.199,3.594l-2.913-0.922l-0.472-8.682l2.745,0.875l0.119,2.047
		c0.241-0.656,0.596-1.092,1.064-1.309c0.47-0.217,1.052-0.213,1.751,0.008c0.115,0.039,0.231,0.08,0.349,0.125
		c0.118,0.047,0.237,0.096,0.358,0.15L54.052,90.01z M58.947,97.475l-2.891-0.91l-0.391-6.516l-1.248-0.395l-0.132-2.166
		l1.246,0.396l-0.112-1.779c-0.065-1.01,0.148-1.686,0.638-2.029s1.255-0.35,2.297-0.018c0.147,0.047,0.324,0.115,0.531,0.211
		c0.207,0.094,0.429,0.203,0.667,0.328l0.158,2.34c-0.135-0.094-0.259-0.17-0.373-0.232c-0.114-0.061-0.217-0.107-0.311-0.137
		c-0.273-0.088-0.467-0.063-0.581,0.066c-0.114,0.133-0.159,0.393-0.133,0.775l0.09,1.385l1.462,0.463l0.142,2.166l-1.465-0.463
		L58.947,97.475z M67.979,100.313l-0.095-1.41c-0.348,0.48-0.753,0.785-1.219,0.914c-0.465,0.129-1.025,0.09-1.677-0.113
		c-1.118-0.352-2.036-1.055-2.758-2.109c-0.721-1.055-1.126-2.293-1.218-3.715c-0.092-1.414,0.183-2.428,0.821-3.043
		c0.639-0.613,1.544-0.736,2.718-0.365c0.626,0.197,1.176,0.508,1.649,0.93c0.473,0.42,0.894,0.973,1.259,1.652l-0.103-1.428
		l2.718,0.857l0.622,8.68L67.979,100.313z M77.93,103.605c-0.351-0.014-0.713-0.078-1.093-0.199
		c-1.296-0.402-2.376-1.158-3.241-2.266c-0.863-1.107-1.344-2.359-1.445-3.758c-0.101-1.359,0.225-2.342,0.976-2.947
		c0.748-0.607,1.76-0.709,3.036-0.309c0.425,0.135,0.813,0.299,1.162,0.49c0.35,0.193,0.685,0.434,1.004,0.719l0.205,2.586
		c-0.309-0.354-0.601-0.633-0.876-0.836s-0.561-0.352-0.854-0.443c-0.587-0.184-1.038-0.129-1.354,0.164
		c-0.315,0.291-0.447,0.781-0.395,1.469c0.05,0.666,0.27,1.252,0.659,1.762c0.391,0.508,0.892,0.857,1.503,1.047
		c0.3,0.094,0.577,0.121,0.832,0.078c0.254-0.039,0.491-0.152,0.71-0.336l0.203,2.656C78.622,103.578,78.277,103.619,77.93,103.605z
		 M83.478,103.023c0.357,0.465,0.838,0.791,1.44,0.98c0.452,0.141,0.826,0.172,1.122,0.092c0.296-0.076,0.51-0.264,0.643-0.557
		l2.324,1.625c-0.213,0.582-0.646,0.945-1.298,1.098c-0.654,0.146-1.475,0.07-2.464-0.238c-1.476-0.457-2.69-1.244-3.646-2.361
		c-0.954-1.115-1.484-2.361-1.592-3.736c-0.107-1.352,0.244-2.338,1.057-2.953c0.811-0.617,1.892-0.717,3.246-0.293
		c1.393,0.438,2.532,1.232,3.417,2.389c0.886,1.156,1.397,2.523,1.532,4.1l0.015,0.146l-6.424-1.998
		C82.91,101.988,83.119,102.557,83.478,103.023z M93.832,45.854l-1.328,41.029c-0.047,1.055-0.193,4.207-2.861,4.207
		c-0.285,0-0.592-0.043-0.911-0.125L17.421,69.891c-2.279-0.684-3.076-1.064-3.294-3.927l-2.075-33.864
		c-0.041-0.563,0.169-1.125,0.594-1.584c0.59-0.637,1.497-0.966,2.301-0.812l76.831,13.202
		C93.896,43.308,93.85,45.089,93.832,45.854z"/>
	<path fill="#FFFFFF" d="M84.367,98.514c-0.482-0.15-0.855-0.135-1.12,0.049c-0.264,0.184-0.42,0.531-0.47,1.047l3.413,1.063
		c-0.097-0.51-0.313-0.961-0.647-1.355C85.21,98.922,84.818,98.654,84.367,98.514z"/>
	<path fill="#A1A1A0" d="M3.266,10.042C3.473,9.95,3.748,9.859,4.14,9.753C3.748,9.859,3.473,9.948,3.266,10.042z"/>
	<path fill="#A1A1A1" d="M91.783,42.907L14.951,29.705c-0.804-0.154-1.711,0.175-2.301,0.813c-0.425,0.458-0.635,1.021-0.594,1.583
		l2.075,33.864c0.218,2.862,1.015,3.245,3.294,3.926l71.312,21.076c0.318,0.08,0.625,0.123,0.91,0.123
		c2.67,0,2.814-3.15,2.863-4.205l1.326-41.03C93.854,45.091,93.902,43.309,91.783,42.907z M89.295,88.912
		c-0.101,0-0.049-0.021-0.146-0.047L18.256,67.891l-0.253-0.088c-1.632-0.486-1.608-0.486-1.725-2.004l-2.056-33.789
		c0.061-0.075,0.222-0.165,0.323-0.166l1.486,0.255l1.904,31.283c0.181,2.394,0.12,2.617,2.297,3.255l69.397,20.143v0.029
		C89.629,88.201,89.686,88.912,89.295,88.912z M91.659,46.025l-1.288,39.739L21.087,65.705l-0.198-0.085
		c-1.733-0.508-1.733-0.522-1.865-2.306l-1.882-31.021L91.379,45.28c0.152,0.026,0.225,0.285,0.236,0.285h0.002
		C91.639,45.565,91.672,45.553,91.659,46.025z"/>
	<path fill="#A1A1A1" d="M60.303,50.061c-0.598,0-1.137,0.244-1.517,0.709c-0.487,0.587-0.673,1.466-0.487,2.396
		c0.33,1.662,1.723,3.019,3.105,3.019c0.598,0,1.137-0.257,1.515-0.709c0.49-0.599,0.672-1.466,0.49-2.396
		C63.078,51.406,61.685,50.061,60.303,50.061z"/>
	<path fill="#A1A1A1" d="M31.263,45.907c-0.6,0-1.137,0.245-1.517,0.71c-0.49,0.587-0.672,1.466-0.49,2.396
		c0.331,1.662,1.725,3.02,3.106,3.02c0.6,0,1.137-0.257,1.516-0.708c0.49-0.601,0.673-1.468,0.49-2.397
		C34.038,47.252,32.644,45.907,31.263,45.907z"/>
	<path fill="#A1A1A1" d="M17.267,74.623c0.439,0.143,0.806,0.1,1.103-0.135c0.296-0.232,0.436-0.586,0.419-1.063
		c-0.017-0.477-0.183-0.922-0.495-1.34c-0.313-0.42-0.694-0.703-1.142-0.85c-0.432-0.139-0.795-0.098-1.09,0.131
		c-0.296,0.227-0.436,0.572-0.421,1.037c0.015,0.463,0.183,0.916,0.503,1.354C16.465,74.197,16.839,74.484,17.267,74.623z"/>
	<polygon fill="#A1A1A1" points="15.872,75.158 16.127,83.84 19.013,84.768 18.738,76.086 	"/>
	<path fill="#A1A1A1" d="M29.622,81.416c-0.109-0.447-0.278-0.854-0.505-1.215c-0.273-0.42-0.619-0.787-1.039-1.102
		c-0.419-0.313-0.893-0.555-1.42-0.725c-0.699-0.227-1.292-0.254-1.779-0.09c-0.487,0.166-0.91,0.539-1.264,1.121l-0.066-1.764
		l-2.625-0.848l0.29,8.682l2.838,0.91l-0.126-3.645c-0.038-1.055,0.072-1.771,0.33-2.154c0.257-0.381,0.684-0.475,1.281-0.283
		c0.469,0.152,0.816,0.418,1.041,0.803c0.225,0.383,0.352,0.922,0.378,1.615l0.172,4.65l2.903,0.928l-0.196-4.965
		C29.802,82.504,29.73,81.863,29.622,81.416z"/>
	<polygon fill="#A1A1A1" points="36.225,81.723 35.001,81.33 34.879,78.744 32.041,77.83 32.157,80.416 30.936,80.023 
		31.028,82.189 32.252,82.584 32.524,89.1 35.387,90.012 35.101,83.496 36.327,83.891 	"/>
	<path fill="#A1A1A1" d="M46.353,89.686c-0.083-1.576-0.545-2.943-1.384-4.1c-0.837-1.156-1.936-1.953-3.298-2.389
		c-1.324-0.424-2.394-0.326-3.214,0.291c-0.821,0.617-1.2,1.604-1.138,2.953c0.063,1.377,0.546,2.621,1.453,3.738
		c0.908,1.115,2.083,1.902,3.525,2.361c0.967,0.307,1.775,0.385,2.424,0.236c0.649-0.15,1.089-0.514,1.317-1.096l-2.243-1.627
		c-0.141,0.295-0.359,0.48-0.653,0.559c-0.294,0.08-0.662,0.047-1.104-0.094c-0.589-0.186-1.052-0.514-1.392-0.98
		c-0.338-0.465-0.526-1.033-0.564-1.705l6.279,1.998L46.353,89.686z M40.064,86.125c0.065-0.514,0.231-0.863,0.498-1.045
		c0.267-0.184,0.635-0.199,1.107-0.049c0.44,0.141,0.819,0.408,1.136,0.803c0.317,0.395,0.516,0.846,0.596,1.355L40.064,86.125z"/>
	<path fill="#A1A1A1" d="M53.454,87.037c-0.699-0.221-1.281-0.225-1.751-0.008c-0.469,0.217-0.824,0.652-1.064,1.309l-0.119-2.047
		l-2.745-0.875l0.472,8.682l2.913,0.922l-0.199-3.594c-0.048-0.836,0.108-1.422,0.468-1.756c0.359-0.332,0.894-0.385,1.604-0.16
		c0.159,0.051,0.323,0.117,0.495,0.199c0.171,0.082,0.346,0.184,0.525,0.301l0.109-2.697c-0.121-0.055-0.241-0.104-0.358-0.15
		C53.686,87.117,53.569,87.076,53.454,87.037z"/>
	<path fill="#A1A1A1" d="M59.865,89.258l-1.462-0.463l-0.09-1.385c-0.025-0.383,0.019-0.643,0.133-0.775
		c0.114-0.129,0.308-0.154,0.581-0.066c0.093,0.029,0.197,0.076,0.311,0.137c0.114,0.063,0.238,0.139,0.373,0.232l-0.158-2.34
		c-0.238-0.125-0.46-0.234-0.667-0.328c-0.207-0.096-0.384-0.164-0.531-0.211c-1.042-0.332-1.808-0.326-2.297,0.018
		s-0.703,1.02-0.638,2.029l0.112,1.779l-1.246-0.396l0.132,2.166l1.248,0.395l0.391,6.516l2.891,0.91l-0.405-6.514l1.465,0.463
		L59.865,89.258z"/>
	<path fill="#A1A1A1" d="M67.357,91.625l0.103,1.428c-0.365-0.68-0.786-1.232-1.259-1.652c-0.473-0.422-1.022-0.732-1.649-0.93
		c-1.174-0.371-2.08-0.248-2.718,0.365c-0.639,0.615-0.913,1.629-0.821,3.043c0.091,1.422,0.497,2.66,1.218,3.715
		c0.722,1.055,1.64,1.758,2.758,2.109c0.651,0.203,1.212,0.242,1.677,0.113c0.466-0.129,0.871-0.434,1.219-0.914l0.095,1.41
		l2.719,0.85l-0.622-8.68L67.357,91.625z M67.386,97.436c-0.321,0.279-0.783,0.326-1.386,0.135
		c-0.597-0.186-1.081-0.529-1.455-1.029c-0.374-0.498-0.583-1.086-0.627-1.762c-0.046-0.682,0.09-1.166,0.408-1.449
		c0.317-0.285,0.775-0.332,1.375-0.143c0.6,0.189,1.087,0.535,1.462,1.041c0.375,0.504,0.587,1.096,0.634,1.771
		S67.707,97.154,67.386,97.436z"/>
	<path fill="#A1A1A1" d="M78.05,101.162c-0.255,0.043-0.532,0.016-0.832-0.078c-0.611-0.189-1.112-0.539-1.503-1.047
		c-0.39-0.51-0.609-1.096-0.659-1.762c-0.053-0.688,0.079-1.178,0.395-1.469c0.315-0.293,0.767-0.348,1.354-0.164
		c0.293,0.092,0.578,0.24,0.854,0.443s0.567,0.482,0.876,0.836l-0.205-2.586c-0.319-0.285-0.654-0.525-1.004-0.719
		c-0.35-0.191-0.737-0.355-1.162-0.49c-1.276-0.4-2.288-0.299-3.036,0.309c-0.751,0.605-1.076,1.588-0.976,2.947
		c0.102,1.398,0.582,2.65,1.445,3.758c0.865,1.107,1.945,1.863,3.241,2.266c0.38,0.121,0.742,0.186,1.093,0.199
		c0.348,0.014,0.692-0.027,1.033-0.123l-0.203-2.656C78.541,101.01,78.304,101.123,78.05,101.162z"/>
	<path fill="#A1A1A1" d="M89.26,103.168c-0.135-1.576-0.646-2.943-1.532-4.1c-0.885-1.156-2.024-1.951-3.417-2.389
		c-1.354-0.424-2.436-0.324-3.246,0.293c-0.813,0.615-1.164,1.602-1.057,2.953c0.107,1.375,0.638,2.621,1.592,3.736
		c0.955,1.117,2.17,1.904,3.646,2.361c0.989,0.309,1.81,0.385,2.464,0.238c0.652-0.152,1.085-0.516,1.298-1.098l-2.324-1.625
		c-0.133,0.293-0.347,0.48-0.643,0.557c-0.296,0.08-0.67,0.049-1.122-0.092c-0.603-0.189-1.083-0.516-1.44-0.98
		c-0.358-0.467-0.567-1.035-0.627-1.707l6.424,1.998L89.26,103.168z M82.777,99.609c0.05-0.516,0.206-0.863,0.47-1.047
		c0.265-0.184,0.638-0.199,1.12-0.049c0.451,0.141,0.843,0.408,1.176,0.803c0.335,0.395,0.551,0.846,0.647,1.355L82.777,99.609z"/>
</g>
</svg>
