<?xml version="1.0" encoding="utf-8"?>
<!-- Generator: Adobe Illustrator 16.0.0, SVG Export Plug-In . SVG Version: 6.00 Build 0)  -->
<!DOCTYPE svg PUBLIC "-//W3C//DTD SVG 1.1//EN" "http://www.w3.org/Graphics/SVG/1.1/DTD/svg11.dtd">
<svg version="1.1" id="Layer_1" xmlns="http://www.w3.org/2000/svg" xmlns:xlink="http://www.w3.org/1999/xlink" x="0px" y="0px"
	 width="143px" height="130.5px" viewBox="0 0 143 130.5" enable-background="new 0 0 143 130.5" xml:space="preserve">
<g>
	<path fill="none" d="M92.083,41.852L15.251,28.65c-0.804-0.154-1.711,0.174-2.301,0.813c-0.425,0.457-0.636,1.02-0.594,1.582
		l2.075,33.865c0.218,2.861,1.015,3.244,3.294,3.926L89.037,89.91c0.318,0.082,0.625,0.125,0.91,0.125
		c2.669,0,2.814-3.15,2.863-4.205l1.326-41.029C94.155,44.035,94.202,42.254,92.083,41.852z M89.599,87.857
		c-0.101,0,0.065-0.02-0.033-0.047L18.615,66.836l-0.281-0.088c-1.632-0.486-1.624-0.486-1.74-2.004L14.53,30.955
		c0.062-0.076,0.219-0.166,0.318-0.166l1.485,0.256l1.904,31.281c0.181,2.395,0.119,2.617,2.297,3.256l69.4,20.143v0.029
		C89.935,87.146,89.989,87.857,89.599,87.857z M91.959,44.977l-1.288,39.566L21.388,64.584l-0.198-0.018
		c-1.733-0.508-1.733-0.457-1.865-2.24l-1.882-30.982L91.68,44.221c0.152,0.029,0.224,0.291,0.235,0.291h0.002
		C91.939,44.512,91.973,44.506,91.959,44.977z"/>
	<path fill="none" d="M60.604,49.006c-0.599,0-1.137,0.244-1.517,0.709c-0.488,0.588-0.673,1.467-0.488,2.396
		c0.331,1.662,1.724,3.02,3.105,3.02c0.599,0,1.138-0.258,1.515-0.709c0.49-0.6,0.673-1.467,0.49-2.396
		C63.378,50.352,61.986,49.006,60.604,49.006z"/>
	<path fill="#FFFFFF" d="M89.935,85.725l-69.4-20.143c-2.178-0.639-2.116-0.861-2.297-3.256l-1.904-31.281l-1.485-0.256
		c-0.1,0-0.257,0.09-0.318,0.166l2.063,33.789c0.116,1.518,0.108,1.518,1.74,2.004l0.281,0.088l70.951,20.975
		c0.099,0.027-0.067,0.047,0.033,0.047c0.391,0,0.336-0.711,0.336-2.104V85.725z"/>
	<path fill="#FFFFFF" d="M91.917,44.512h-0.002c-0.012,0-0.083-0.262-0.235-0.291L17.443,31.344l1.882,30.982
		c0.132,1.783,0.132,1.732,1.865,2.24l0.198,0.018l69.283,19.959l1.288-39.566C91.973,44.506,91.939,44.512,91.917,44.512z
		 M63.219,54.422c-0.377,0.451-0.916,0.709-1.515,0.709c-1.382,0-2.774-1.357-3.105-3.02c-0.185-0.93,0-1.809,0.488-2.396
		c0.38-0.465,0.918-0.709,1.517-0.709c1.382,0,2.774,1.346,3.105,3.02C63.892,52.955,63.709,53.822,63.219,54.422z"/>
	<polygon fill="none" points="35.377,3.211 27.355,4.23 27.357,4.23 	"/>
	<polygon fill="none" points="124.006,109.023 129.307,103.301 124.006,109.021 	"/>
	<path fill="#FFFFFF" d="M121.365,81.176c-0.08,0.055-0.394,0.075-0.486,0.075c-0.077-0.002-0.155-0.034-0.225-0.075
		c-0.152-0.086-0.083-0.333-0.06-0.505l2.445-22.089c0.018-0.156,0.115-0.025,0.254-0.086l5.783-1.9
		c0.002,0,0.031-0.149,0.033-0.149l3.911-37.24c0.162-1.996-1.547-4.382-3.551-4.575c-23.446-2.26-47.26-4.509-70.322-6.628
		C47.761,6.958,35.959,5.938,24.375,4.861c-0.256,0.049-0.518,0.104-0.772,0.15c-1.951,0.367-3.943,0.699-5.881,1.025
		C13.336,6.779,8.838,7.54,4.483,8.694C4.091,8.8,3.649,8.953,3.442,8.953l1.416,0.161l107.458,11.32
		c2.281,0.24,3.921,2.451,3.736,5.387l-8.038,99.051l-0.242,1.517c0.124-0.088,0.245-0.134,0.354-0.224
		c0.002-0.002,0.11-0.073,0.112-0.075c0.11-0.092,0.283-0.323,0.374-0.411l14.679-15.874l3.351-31.432L121.365,81.176z
		 M108.161,125.964c-0.002,0.002-0.004,0.002-0.006,0.004C108.157,125.966,108.159,125.966,108.161,125.964
		c0.11-0.092,0.212-0.184,0.303-0.273C108.373,125.78,108.271,125.872,108.161,125.964z M123.203,109.651l-14.859,16.039
		l14.859-16.041V109.651z"/>
	<polygon fill="#FFFFFF" points="123.165,109.801 123.165,109.799 108.306,125.84 	"/>
	<path fill="#FFFFFF" d="M126.745,77.35l2.208-20.188l-5.09,1.93l-2.316,20.797C121.547,79.889,126.676,77.359,126.745,77.35z"/>
	<path fill="#FFFFFF" d="M136.907,12.533L35.377,3.457l-8.021,1.021c10.682,0.99,21.365,1.971,32.053,2.955
		c23.067,2.117,46.919,4.307,70.369,6.57c2.2,0.211,4.041,2.365,3.862,4.557l-9.635,90.461l5.301-5.721
		c0.471-0.615,0.491-0.912,0.542-1.621c0.013-0.191,10.662-84.91,10.662-84.91C140.735,14.082,139.623,12.775,136.907,12.533z"/>
	<path fill="#FFFFFF" d="M112.277,21.541L4.704,10.211l-1.626-0.18c0.002,0.012,0.002,0.02,0.002,0.031l8.075,79.014
		c0.182,1.518,1.346,2.166,2.473,2.793c0.202,0.115,0.399,0.225,0.584,0.334c10.04,3.834,20.075,7.689,30.109,11.541
		c19.854,7.619,40.38,15.5,60.618,23.121c0.317,0.119,0.642,0.178,0.963,0.178c0.136,0,0.269-0.012,0.397-0.031l0.37-0.656
		l0.228-1.469l8.031-99.02C115.072,23.539,113.961,21.719,112.277,21.541z M31.915,88.195c-0.685,0.352-1.599,0.354-2.741,0.006
		c-0.775-0.236-1.497-0.545-2.165-0.926c-0.667-0.381-1.295-0.844-1.883-1.387l0.606-2.209c0.461,0.541,0.966,1,1.515,1.381
		c0.548,0.383,1.099,0.656,1.653,0.826c0.39,0.119,0.687,0.145,0.888,0.08c0.202-0.066,0.301-0.217,0.296-0.461
		c-0.006-0.393-0.423-0.814-1.247-1.258c-0.27-0.146-0.485-0.268-0.65-0.365c-0.936-0.541-1.619-1.09-2.047-1.639
		c-0.431-0.549-0.649-1.16-0.66-1.832c-0.016-0.867,0.294-1.459,0.928-1.783c0.633-0.322,1.498-0.316,2.599,0.02
		c0.563,0.17,1.14,0.414,1.727,0.723c0.588,0.313,1.189,0.697,1.806,1.16l-0.605,1.971c-0.419-0.408-0.841-0.752-1.27-1.029
		c-0.428-0.277-0.854-0.479-1.279-0.609c-0.354-0.107-0.621-0.133-0.799-0.076c-0.18,0.057-0.267,0.191-0.263,0.404
		c0.006,0.316,0.418,0.709,1.238,1.178c0.186,0.107,0.326,0.188,0.42,0.24c1.084,0.641,1.84,1.236,2.271,1.785
		c0.431,0.551,0.652,1.186,0.666,1.904C32.932,87.211,32.599,87.844,31.915,88.195z M41.253,91.527l-0.029-1.449
		c-0.396,0.494-0.849,0.809-1.354,0.941c-0.506,0.133-1.104,0.096-1.793-0.113c-1.18-0.357-2.132-1.078-2.854-2.162
		c-0.722-1.086-1.097-2.357-1.124-3.816c-0.028-1.455,0.318-2.5,1.038-3.133c0.719-0.635,1.702-0.762,2.949-0.381
		c0.664,0.201,1.239,0.52,1.726,0.951c0.487,0.432,0.91,0.998,1.268,1.697l-0.032-1.467l2.877,0.875l0.196,8.926L41.253,91.527z
		 M46.569,93.139l-0.202-8.928l3.126,0.951l0.211,8.926L46.569,93.139z M47.721,83.42l-1.349-0.408l1.518-2.609l2.458,0.748
		L47.721,83.42z M58.773,96.832l-0.036-1.449c-0.383,0.48-0.82,0.795-1.312,0.941s-1.042,0.127-1.651-0.057
		c-1.248-0.377-2.252-1.109-3.01-2.199c-0.759-1.092-1.155-2.369-1.19-3.836c-0.034-1.422,0.305-2.457,1.017-3.109
		c0.711-0.652,1.656-0.799,2.837-0.441c0.749,0.227,1.362,0.547,1.84,0.961s0.909,0.994,1.296,1.744
		c-0.041-0.225-0.074-0.473-0.099-0.746s-0.042-0.566-0.05-0.877l-0.128-4.668l2.997,0.91l0.376,13.699L58.773,96.832z
		 M70.646,100.418l-0.042-1.451c-0.394,0.496-0.844,0.809-1.35,0.943c-0.506,0.133-1.105,0.096-1.799-0.113
		c-1.187-0.359-2.147-1.08-2.881-2.164c-0.733-1.082-1.12-2.355-1.16-3.816c-0.04-1.455,0.298-2.5,1.016-3.133
		c0.716-0.633,1.701-0.76,2.956-0.379c0.668,0.201,1.247,0.52,1.74,0.951c0.491,0.432,0.92,0.998,1.283,1.695l-0.044-1.467
		l2.894,0.875l0.271,8.928L70.646,100.418z M94.137,44.801L92.811,85.83c-0.049,1.055-0.194,4.205-2.863,4.205
		c-0.285,0-0.592-0.043-0.91-0.125L17.726,68.836c-2.279-0.682-3.076-1.064-3.294-3.926l-2.075-33.865
		c-0.042-0.563,0.169-1.125,0.594-1.582c0.59-0.639,1.497-0.967,2.301-0.813l76.832,13.201
		C94.202,42.254,94.155,44.035,94.137,44.801z"/>
	<path fill="#FFFFFF" d="M39.178,84.205c-0.636-0.193-1.132-0.145-1.487,0.15c-0.356,0.291-0.527,0.787-0.514,1.488
		c0.014,0.697,0.209,1.301,0.584,1.813c0.376,0.514,0.879,0.865,1.51,1.057c0.637,0.193,1.136,0.145,1.495-0.145
		c0.358-0.289,0.531-0.781,0.517-1.477s-0.21-1.303-0.586-1.82C40.32,84.754,39.814,84.398,39.178,84.205z"/>
	<path fill="#FFFFFF" d="M56.66,89.547c-0.632-0.193-1.124-0.143-1.477,0.148s-0.521,0.783-0.502,1.479
		c0.017,0.701,0.211,1.307,0.58,1.811c0.37,0.508,0.875,0.857,1.513,1.051c0.633,0.191,1.128,0.143,1.483-0.146
		c0.356-0.291,0.525-0.783,0.508-1.479c-0.02-0.695-0.216-1.299-0.593-1.811C57.796,90.09,57.292,89.738,56.66,89.547z"/>
	<path fill="#FFFFFF" d="M68.503,93.096c-0.639-0.193-1.135-0.145-1.49,0.148s-0.522,0.791-0.502,1.492
		c0.019,0.695,0.22,1.299,0.601,1.811s0.889,0.865,1.522,1.057c0.64,0.191,1.14,0.145,1.498-0.145s0.527-0.781,0.506-1.477
		c-0.021-0.695-0.221-1.303-0.603-1.82C69.653,93.643,69.143,93.289,68.503,93.096z"/>
	<path fill="#A1A1A0" d="M3.571,8.988c0.207-0.092,0.482-0.184,0.874-0.289C4.053,8.805,3.778,8.895,3.571,8.988z"/>
	<path fill="#A1A1A1" d="M92.088,41.854L15.255,28.65c-0.804-0.154-1.711,0.176-2.301,0.813c-0.425,0.459-0.635,1.021-0.594,1.584
		l2.075,33.863c0.218,2.863,1.015,3.244,3.294,3.928l71.312,21.074c0.318,0.082,0.625,0.123,0.91,0.123
		c2.669,0,2.814-3.148,2.863-4.205l1.326-41.029C94.16,44.037,94.207,42.256,92.088,41.854z M89.601,87.857
		c-0.101,0-0.049-0.02-0.146-0.045L18.561,66.838l-0.253-0.09c-1.633-0.484-1.608-0.484-1.725-2.004l-2.057-33.789
		c0.062-0.074,0.223-0.164,0.322-0.166l1.486,0.256l1.904,31.283c0.181,2.393,0.119,2.617,2.297,3.254l69.398,20.143v0.029
		C89.935,87.148,89.991,87.857,89.601,87.857z M91.964,44.971l-1.288,39.74L21.392,64.65l-0.198-0.084
		c-1.733-0.508-1.733-0.523-1.865-2.307l-1.882-31.021l74.239,12.988c0.151,0.027,0.223,0.285,0.234,0.285h0.002
		C91.944,44.512,91.978,44.5,91.964,44.971z"/>
	<path fill="#A1A1A1" d="M60.608,49.008c-0.599,0-1.137,0.242-1.517,0.709c-0.488,0.586-0.673,1.465-0.488,2.396
		c0.331,1.662,1.724,3.018,3.105,3.018c0.599,0,1.138-0.256,1.515-0.709c0.49-0.598,0.673-1.465,0.49-2.396
		C63.382,50.352,61.99,49.008,60.608,49.008z"/>
	<path fill="#A1A1A1" d="M29.98,82.609c-0.094-0.053-0.234-0.133-0.42-0.24c-0.82-0.469-1.232-0.861-1.238-1.178
		c-0.004-0.213,0.083-0.348,0.263-0.404c0.178-0.057,0.444-0.031,0.799,0.076c0.426,0.131,0.852,0.332,1.279,0.609
		c0.429,0.277,0.851,0.621,1.27,1.029l0.605-1.971c-0.616-0.463-1.218-0.848-1.806-1.16c-0.587-0.309-1.163-0.553-1.727-0.723
		c-1.101-0.336-1.966-0.342-2.599-0.02c-0.634,0.324-0.943,0.916-0.928,1.783c0.011,0.672,0.229,1.283,0.66,1.832
		c0.428,0.549,1.111,1.098,2.047,1.639c0.165,0.098,0.381,0.219,0.65,0.365c0.824,0.443,1.241,0.865,1.247,1.258
		c0.005,0.244-0.094,0.395-0.296,0.461c-0.201,0.064-0.498,0.039-0.888-0.08c-0.555-0.17-1.105-0.443-1.653-0.826
		c-0.549-0.381-1.054-0.84-1.515-1.381l-0.606,2.209c0.588,0.543,1.216,1.006,1.883,1.387c0.668,0.381,1.39,0.689,2.165,0.926
		c1.143,0.348,2.057,0.346,2.741-0.006s1.018-0.984,1.002-1.896c-0.014-0.719-0.235-1.354-0.666-1.904
		C31.82,83.846,31.064,83.25,29.98,82.609z"/>
	<path fill="#A1A1A1" d="M41.047,82.596l0.032,1.467c-0.357-0.699-0.78-1.266-1.268-1.697c-0.486-0.432-1.062-0.75-1.726-0.951
		c-1.247-0.381-2.23-0.254-2.949,0.381c-0.72,0.633-1.066,1.678-1.038,3.133c0.027,1.459,0.402,2.73,1.124,3.816
		c0.723,1.084,1.675,1.805,2.854,2.162c0.688,0.209,1.287,0.246,1.793,0.113c0.505-0.133,0.957-0.447,1.354-0.941l0.029,1.449
		l2.867,0.869l-0.196-8.926L41.047,82.596z M40.766,88.568c-0.359,0.289-0.858,0.338-1.495,0.145
		c-0.631-0.191-1.134-0.543-1.51-1.057c-0.375-0.512-0.57-1.115-0.584-1.813c-0.014-0.701,0.157-1.197,0.514-1.488
		c0.355-0.295,0.852-0.344,1.487-0.15s1.142,0.549,1.519,1.066c0.376,0.518,0.571,1.125,0.586,1.82S41.125,88.279,40.766,88.568z"/>
	<polygon fill="#A1A1A1" points="46.373,83.012 47.721,83.42 50.348,81.15 47.89,80.402 	"/>
	<polygon fill="#A1A1A1" points="46.367,84.211 46.569,93.139 49.704,94.088 49.493,85.162 	"/>
	<path fill="#A1A1A1" d="M58.287,83.096l0.128,4.668c0.008,0.311,0.025,0.604,0.05,0.877s0.058,0.521,0.099,0.746
		c-0.387-0.75-0.818-1.33-1.296-1.744s-1.091-0.734-1.84-0.961c-1.181-0.357-2.126-0.211-2.837,0.441
		c-0.712,0.652-1.051,1.688-1.017,3.109c0.035,1.467,0.432,2.744,1.19,3.836c0.758,1.09,1.762,1.822,3.01,2.199
		c0.609,0.184,1.16,0.203,1.651,0.057s0.929-0.461,1.312-0.941l0.036,1.449l2.887,0.873l-0.376-13.699L58.287,83.096z
		 M58.257,93.889c-0.355,0.289-0.851,0.338-1.483,0.146c-0.638-0.193-1.143-0.543-1.513-1.051c-0.369-0.504-0.563-1.109-0.58-1.811
		c-0.019-0.695,0.149-1.188,0.502-1.479s0.845-0.342,1.477-0.148c0.632,0.191,1.137,0.543,1.513,1.053
		c0.377,0.512,0.573,1.115,0.593,1.811C58.783,93.105,58.614,93.598,58.257,93.889z"/>
	<path fill="#A1A1A1" d="M70.364,91.484l0.044,1.467c-0.363-0.697-0.792-1.264-1.283-1.695c-0.493-0.432-1.072-0.75-1.74-0.951
		c-1.255-0.381-2.24-0.254-2.956,0.379c-0.718,0.633-1.056,1.678-1.016,3.133c0.04,1.461,0.427,2.734,1.16,3.816
		c0.734,1.084,1.695,1.805,2.881,2.164c0.693,0.209,1.293,0.246,1.799,0.113c0.506-0.135,0.956-0.447,1.35-0.943l0.042,1.451
		l2.884,0.869l-0.271-8.928L70.364,91.484z M70.132,97.459c-0.358,0.289-0.858,0.336-1.498,0.145
		c-0.634-0.191-1.142-0.545-1.522-1.057s-0.582-1.115-0.601-1.811c-0.021-0.701,0.146-1.199,0.502-1.492s0.852-0.342,1.49-0.148
		c0.64,0.193,1.15,0.547,1.532,1.066c0.382,0.518,0.582,1.125,0.603,1.82C70.659,96.678,70.49,97.17,70.132,97.459z"/>
	<path fill="none" d="M126.75,77.352l2.203-20.189l-5.09,1.93l-2.312,20.797C121.552,79.889,126.681,77.359,126.75,77.352z"/>
	<path fill="none" d="M112.282,21.543L4.708,10.211l-1.626-0.18c0.002,0.012,0.002,0.021,0.002,0.031l8.075,79.016
		c0.182,1.518,1.346,2.166,2.473,2.791c0.202,0.115,0.399,0.227,0.584,0.336c10.04,3.834,20.075,7.688,30.109,11.539
		c19.854,7.621,40.381,15.502,60.619,23.121c0.317,0.119,0.642,0.178,0.963,0.178c0.136,0,0.268-0.01,0.397-0.029l0.37-0.656
		l0.228-1.469l8.031-99.02C115.077,23.539,113.966,21.719,112.282,21.543z"/>
	<path fill="none" d="M121.256,81.201c-0.08,0.055-0.171,0.1-0.264,0.1c-0.077-0.002-0.148,0.012-0.218-0.029
		c-0.152-0.086-0.236-0.189-0.213-0.361l2.479-22.328c0.018-0.156,0.115-0.025,0.254-0.086l5.777-1.9c0.002,0,0.004,0,0.006,0
		l3.911-37.24c0.096-1.176-0.455-2.68-1.326-3.574l-17.084,5.73c0.997,0.988,1.556,2.582,1.44,4.426l-8.038,99.066l-0.209,1.385
		c0.251-0.178,0.475-0.367,0.66-0.547l14.859-16.037l3.351-31.432L121.256,81.201z"/>
	<path fill="none" d="M112.398,20.459c0.637,0.066,1.205,0.309,1.704,0.666l17.112-5.74c-0.52-0.404-1.11-0.691-1.744-0.754
		c-23.446-2.26-47.293-4.447-70.356-6.566C47.727,7.018,35.96,5.936,24.375,4.861c-2.19,0.424-4.461,0.807-6.653,1.176
		C13.336,6.779,8.805,7.545,4.449,8.701C4.055,8.807,3.78,8.896,3.573,8.99l1.251,0.137L112.398,20.459z"/>
	<path fill="none" d="M129.783,14.004c0.881,0.084,1.694,0.488,2.353,1.072l6.471-2.17c-0.474-0.188-1.034-0.313-1.694-0.373
		L35.381,3.459l-8.022,1.02c10.684,0.99,21.367,1.973,32.055,2.955C82.481,9.551,106.334,11.74,129.783,14.004z"/>
	<path fill="none" d="M139.186,13.207c-0.026,0.029-0.046,0.066-0.085,0.08l-6.552,2.195c0.745,0.848,1.188,1.955,1.097,3.078
		l-9.635,90.463l5.301-5.723c0.471-0.615,0.491-0.91,0.542-1.619c0.013-0.193,10.663-84.912,10.663-84.912
		C140.662,15.029,140.235,13.877,139.186,13.207z"/>
	<path fill="#A1A1A1" d="M137.024,11.273L35.436,2.191c-0.018-0.002-0.042-0.002-0.066-0.002c-0.023,0-0.048,0-0.071,0.004
		C35.065,2.229,8.47,6.324,4.126,7.479c-1.623,0.43-2.426,0.959-2.308,2.654l8.075,78.986l0.005,0.051L9.9,89.182l0.002,0.021
		c0.237,2.02,1.606,2.936,3.11,3.77l0.154,0.088c0.147,0.082,0.291,0.164,0.425,0.246c0.051,0.031,0.081,0.047,0.127,0.064
		c8.975,3.428,17.944,6.869,26.914,10.313l3.237,1.242l1.389,0.533c19.403,7.447,39.468,15.148,59.241,22.59
		c0.457,0.176,0.928,0.262,1.407,0.262c1.176,0,2.343-0.529,3.378-1.533l21.088-22.781c0.646-0.871,0.689-1.465,0.745-2.213
		l0.006-0.086c0.012-0.158,0.024-0.336,0.049-0.561l10.61-84.303C142.045,13.498,140.4,11.574,137.024,11.273z M35.381,3.459
		l101.531,9.074c0.66,0.061,1.221,0.186,1.694,0.373l-6.471,2.17c-0.658-0.584-1.472-0.988-2.353-1.072
		c-23.449-2.264-47.302-4.453-70.37-6.57C48.726,6.451,38.042,5.469,27.359,4.479L35.381,3.459z M4.449,8.701
		c4.356-1.156,8.888-1.922,13.273-2.664c2.192-0.369,4.463-0.752,6.653-1.176C35.96,5.936,47.727,7.018,59.115,8.064
		c23.063,2.119,46.91,4.307,70.356,6.566c0.634,0.063,1.225,0.35,1.744,0.754l-17.112,5.74c-0.499-0.357-1.067-0.6-1.704-0.666
		L4.824,9.127L3.573,8.99C3.78,8.896,4.055,8.807,4.449,8.701z M106.674,126.357l-0.37,0.656c-0.13,0.02-0.262,0.029-0.397,0.029
		c-0.321,0-0.646-0.059-0.963-0.178c-20.237-7.619-40.764-15.5-60.619-23.121c-10.034-3.852-20.069-7.705-30.109-11.539
		c-0.185-0.109-0.382-0.221-0.584-0.336c-1.127-0.625-2.291-1.273-2.473-2.791L3.083,10.063c0-0.01,0-0.02-0.002-0.031l1.626,0.18
		l107.575,11.332c1.684,0.176,2.795,1.996,2.65,4.326l-8.031,99.02L106.674,126.357z M108.432,125.842
		c-0.186,0.18-0.409,0.369-0.66,0.547l0.209-1.385l8.038-99.066c0.115-1.844-0.443-3.438-1.44-4.426l17.084-5.73
		c0.871,0.895,1.422,2.398,1.326,3.574l-3.911,37.24c-0.002,0-0.004,0-0.006,0l-5.777,1.9c-0.139,0.061-0.236-0.07-0.254,0.086
		l-2.479,22.328c-0.023,0.172,0.061,0.275,0.213,0.361c0.069,0.041,0.141,0.027,0.218,0.029c0.093,0,0.184-0.045,0.264-0.1
		l5.386-2.828l-3.351,31.432L108.432,125.842z M128.953,57.162l-2.203,20.189c-0.069,0.008-5.198,2.537-5.198,2.537l2.312-20.797
		L128.953,57.162z M140.517,16.77c0,0-10.65,84.719-10.663,84.912c-0.051,0.709-0.071,1.004-0.542,1.619l-5.301,5.723l9.635-90.463
		c0.091-1.123-0.352-2.23-1.097-3.078l6.552-2.195c0.039-0.014,0.059-0.051,0.085-0.08C140.235,13.877,140.662,15.029,140.517,16.77
		z"/>
	<path d="M1.2,6.654C1.197,6.657,1.194,6.66,1.191,6.663c0.007-0.005,0.013-0.011,0.02-0.017C1.208,6.649,1.204,6.651,1.2,6.654z"/>
</g>
</svg>
