<?xml version="1.0" encoding="UTF-8" standalone="no" ?>
<!DOCTYPE svg PUBLIC "-//W3C//DTD SVG 1.1//EN" "http://www.w3.org/Graphics/SVG/1.1/DTD/svg11.dtd">
<svg xmlns="http://www.w3.org/2000/svg" xmlns:xlink="http://www.w3.org/1999/xlink" version="1.1" width="130" height="130" viewBox="0 0 130 130" xml:space="preserve">
<desc>Created with Fabric.js 5.3.0</desc>
<defs>
</defs>
<g transform="matrix(0.1943489282 0 0 0.1943489311 65 65)" id="nioqHb_04OW4jlQALzGkG"  >
<path style="stroke: rgb(165,165,165); stroke-width: 0.5; stroke-dasharray: none; stroke-linecap: round; stroke-dashoffset: 0; stroke-linejoin: round; stroke-miterlimit: 10; fill: none; fill-rule: nonzero; opacity: 1;" vector-effect="non-scaling-stroke"  transform=" translate(-854.35, -420.54)" d="M 1060.9 667.69 L 1062.6000000000001 666.19 L 1064.1000000000001 663.69 L 1065.1000000000001 660.49 L 1065.4 656.89 M 799.6 88.59 L 799.2 88.39 L 798.7 88.39 L 798.1 88.49 L 797.5 88.69 M 1066.6 655.19 L 1066.5 655.59 L 1066.3 656.09 L 1065.8999999999999 656.49 L 1065.3999999999999 656.89 M 1050.3 233.29 L 1049.8999999999999 233.19 L 1049.3999999999999 233.09 L 1048.8999999999999 233.19 L 1048.3 233.49 M 1066.6 261.49 L 1066.5 261.89 L 1066.3 262.39 L 1065.8999999999999 262.78999999999996 L 1065.3999999999999 263.18999999999994 M 797.5 88.69 L 688.3 143.29 M 963.5 724.19 L 1065.4 656.8900000000001 M 1065.4 263.19 L 963.2 322.09 M 946.1 292.49 L 1048.3 233.49 M 679.1 326.59 L 679.5 326.39 L 680.8 326.09 L 682.3 326.39 L 684.0999999999999 327.28999999999996 M 683.9 468.09 L 683.6 467.89 L 683.4 467.69 L 683.1999999999999 467.49 L 682.9999999999999 467.29 L 682.8999999999999 466.99 L 682.7999999999998 466.79 L 682.7999999999998 466.49 M 686.4 357.69 L 686.4 357.59 L 686.3 357.09 L 686.1999999999999 356.59 L 685.9 356.19 L 685.6 355.69 L 685.2 355.19 L 684.7 354.79 L 684.2 354.39000000000004 M 683.9 404.09 L 683.6 403.89 L 683.4 403.69 L 683.1999999999999 403.49 L 682.9999999999999 403.19 L 682.8999999999999 402.99 L 682.7999999999998 402.69 L 682.7999999999998 402.49 L 682.7999999999998 402.39 M 682.9 400.99 L 683.1999999999999 398.89 L 684.4 396.49 L 686.6999999999999 394.89 L 689.8 394.78999999999996 L 693.9 396.09 M 697.3 352.89 L 693.4 349.89 L 690.4 349.19 L 688.6 349.99 L 688 350.69 L 686.8 353.69 L 686.5 356.39 M 893.7 597.89 L 893.3000000000001 600.29 L 892.0000000000001 602.39 L 891.3000000000001 602.79 M 838 555.89 L 837.2 559.49 L 835.6 561.99 L 833.1 563.69 L 830 563.7900000000001 L 827.1 562.7900000000001 M 867.3 581.19 L 871.4 582.7900000000001 L 875.3 582.9900000000001 L 877.3 581.9900000000001 L 877.9 581.2900000000001 L 878.9 578.4900000000001 L 878.6 574.4900000000001 M 893.9 597.79 L 893.6999999999999 597.89 M 684.4 327.09 L 684.1 327.28999999999996 M 886.1 443.49 L 885.7 443.69 M 893.9 456.29 L 893.6999999999999 456.39000000000004 M 890.9 602.69 L 892.5 600.7900000000001 L 893.1 597.8900000000001 M 683.8 327.79 L 681.1999999999999 326.69 L 678.9999999999999 327.09 M 868.1 584.69 L 829.1 563.7900000000001 M 684.2 383.79 L 684.2 354.39000000000004 M 660.9 603.99 L 661.1 604.39 L 661.3000000000001 604.49 M 659 602.59 L 660.9 603.99 M 661.3 604.29 L 661.5 604.6899999999999 L 661.7 604.79 M 676.8 472.99 L 676.3 473.19 M 677.2 329.99 L 676.3000000000001 330.49 M 917.2 751.99 L 917.4000000000001 752.29 L 917.6000000000001 752.49 M 941 739.39 L 940.9 742.1899999999999 L 940.1 745.79 L 938.8000000000001 748.89 L 936.8000000000001 751.39 L 934.4000000000001 753.29 L 933.8000000000001 753.49 M 662.7 591.99 L 665.5 571.09 L 666.8 548.7900000000001 M 908.7 688.39 L 908.5 688.29 L 908.4 687.89 L 908.3 687.39 M 642.3 567.79 L 642.3 567.89 L 642.4 568.29 M 642.3 168.39 L 642.3 168.48999999999998 L 642.4 168.89 M 683.9 486.19 L 683.4 486.49 M 642.2 471.69 L 642.3000000000001 538.59 L 642.4000000000001 568.2900000000001 M 642.4 168.89 L 642.1999999999999 274.89 M 661.5 542.39 L 661.6 542.6899999999999 L 661.8000000000001 542.9899999999999 L 662.1 543.1899999999999 M 886.8 602.89 L 885.9 603.39 M 661.5 191.59 L 661.6 191.79 L 661.8000000000001 192.09 L 662.1 192.39000000000001 M 661.7 190.49 L 661.7 190.49 L 662.1 189.59 L 662.7 189.19 L 663.5 189.19 L 664.4 189.59 M 653.5 184.59 L 658.7 186.39000000000001 L 661 187.69000000000003 L 662.4 188.79000000000002 M 715.1 296.99 L 727 301.29 M 719 296.29 L 715.1 294.89000000000004 M 715.1 287.99 L 727 292.19 M 648.1 154.29 L 648.6 153.89 L 651 152.98999999999998 L 653.8 152.79 L 656.8 153.39 L 660 154.69 L 662.4 156.09 M 719 287.29 L 715.1 285.89000000000004 M 715.1 278.29 L 727 282.59000000000003 M 719 277.69 L 715.1 276.29 M 838.2 365.89 L 838.6 365.69 M 733.8 305.39 L 733.5999999999999 305.49 M 843.2 368.19 L 851.1 375.59 M 851.1 373.49 L 848.7 371.29 M 838.2 356.89 L 838.6 356.59 M 733.8 296.39 L 733.5999999999999 296.49 M 843.2 359.19 L 851.1 366.49 M 851.1 364.39 L 848.7 362.19 M 838.2 347.19 L 838.6 346.99 M 733.8 286.69 L 733.5999999999999 286.79 M 843.2 349.49 L 851.1 356.89 M 851.1 354.79 L 848.7 352.59000000000003 M 797.5 88.69 L 794.2 87.19 L 791 86.39 L 788.1 86.59 L 785.9 87.29 M 1048.3 233.49 L 797.5 88.69 M 1065.4 656.89 L 1065.4 263.19 M 1065.4 263.19 L 1065.1000000000001 259.09 L 1064.1000000000001 254.78999999999996 L 1062.6000000000001 250.48999999999995 L 1060.4 246.18999999999994 L 1057.9 242.28999999999994 L 1054.9 238.78999999999994 L 1051.7 235.78999999999994 L 1048.3 233.48999999999992 M 693.9 485.99 L 690.3 483.39 L 687.4 480.19 L 684.9 475.99 L 683.3 470.99 L 682.8 466.29 M 677 473.19 L 676.9 473.09 L 676.9 472.98999999999995 L 676.8 472.98999999999995 L 676.9 472.88999999999993 L 677 472.7899999999999 M 677 331.39 L 676.9 331.39 L 676.9 331.49 L 676.8 331.49 L 676.9 331.59000000000003 L 677 331.69000000000005 M 677 331.39 L 677.3 328.99 L 678.5 326.99 L 679.1 326.59000000000003 M 682.8 402.39 L 682.8 402.19 M 683.8 485.89 L 683.8 485.99 L 683.8 486.09000000000003 L 683.9 486.09000000000003 L 683.9 486.19000000000005 L 684 486.09000000000003 L 684.1 486.09000000000003 M 885.7 602.49 L 833.2 574.59 L 782.1 545.89 L 782 545.79 M 885.5 602.29 L 885.5 602.49 L 885.5 602.59 L 885.6 602.59 L 885.7 602.49 M 891.3 602.79 L 890.9 603.0899999999999 L 889.4 603.3899999999999 L 887.6999999999999 603.1899999999998 L 885.6999999999999 602.4899999999998 M 826.2 562.39 L 779 536.49 L 732.9 509.79 L 693.9 485.99 M 693.9 485.99 L 693.6 485.89 L 693.4 485.69 L 693.1999999999999 485.49 L 693.0999999999999 485.29 L 692.8999999999999 484.99 L 692.7999999999998 484.69 L 692.7999999999998 484.29 L 692.7999999999998 483.99 M 868.1 584.69 L 868 583.99 L 867.9 583.29 L 867.6999999999999 582.6899999999999 L 867.4999999999999 582.0899999999999 L 867.1999999999999 581.5899999999999 L 866.9 581.1899999999999 L 866.5 580.89 L 866 580.6899999999999 M 826.2 562.39 L 825.9000000000001 562.29 L 825.7 562.0899999999999 L 825.6 561.8899999999999 L 825.4 561.6899999999998 L 825.3 561.3899999999999 L 825.1999999999999 561.0899999999999 L 825.1999999999999 560.79 L 825.0999999999999 560.39 M 827.1 562.79 L 826.2 562.39 M 838 555.89 L 837.5 555.89 L 837.1 555.89 L 836.7 555.79 L 836.2 555.6899999999999 L 835.8000000000001 555.5899999999999 L 835.4000000000001 555.4899999999999 L 835.1000000000001 555.3899999999999 L 834.7000000000002 555.1899999999998 M 692.8 399.29 L 692.8 398.99 L 692.8 398.59000000000003 L 692.9 398.09000000000003 L 693.1 397.69000000000005 L 693.2 397.2900000000001 L 693.4000000000001 396.8900000000001 L 693.6000000000001 396.4900000000001 L 693.9000000000001 396.09000000000015 M 683.9 404.09 L 683.9 468.09 M 683.9 468.09 L 684.3 471.89 L 685.6999999999999 475.89 L 687.5999999999999 479.19 L 689.8999999999999 481.79 L 692.7999999999998 483.99 M 692.8 483.99 L 731.8 507.69 L 777.9 534.39 L 825.1 560.39 M 825.1 560.39 L 828.6 561.6899999999999 L 831.2 561.6899999999999 L 833.3000000000001 560.39 L 834.4000000000001 558.1899999999999 L 834.7 555.1899999999999 M 834.7 555.19 L 834.7 491.19000000000005 M 825.1 475.79 L 784 453.19 L 737.8 426.59 L 692.8 399.28999999999996 M 692.8 399.29 L 689.5999999999999 397.89000000000004 L 687.0999999999999 397.79 L 685.1999999999999 398.99 L 684.1999999999999 401.09000000000003 L 683.9 404.09000000000003 M 838 491.79 L 837.5 491.79 L 837.1 491.79 L 836.7 491.79 L 836.2 491.69 L 835.8000000000001 491.59 L 835.4000000000001 491.48999999999995 L 835.1000000000001 491.28999999999996 L 834.7000000000002 491.18999999999994 M 825.1 475.79 L 825.2 475.39000000000004 L 825.2 474.99000000000007 L 825.3000000000001 474.5900000000001 L 825.4000000000001 474.0900000000001 L 825.6000000000001 473.6900000000001 L 825.7000000000002 473.29000000000013 L 825.9000000000002 472.89000000000016 L 826.2000000000002 472.4900000000002 M 834.7 491.19 L 834.3000000000001 487.39 L 832.8000000000001 483.49 L 830.7 480.29 L 828.2 477.79 L 825.1 475.79 M 885 575.69 L 884.3 575.3900000000001 L 883.5999999999999 575.0900000000001 L 882.8 574.8900000000001 L 882 574.69 L 881.2 574.59 L 880.3000000000001 574.49 L 879.5000000000001 574.39 L 878.6000000000001 574.49 M 697.3 352.89 L 697.8 352.09 L 698.1999999999999 351.28999999999996 L 698.5999999999999 350.48999999999995 L 698.8999999999999 349.59 L 699.1999999999998 348.78999999999996 L 699.3999999999999 347.98999999999995 L 699.4999999999999 347.18999999999994 L 699.4999999999999 346.38999999999993 M 838 491.79 L 838 555.89 M 838 555.89 L 838.5 556.09 L 866.2 568.7900000000001 L 878.6 574.4900000000001 M 878.6 574.49 L 878.6 469.09000000000003 M 868.1 443.69 L 868 444.49 L 867.9 445.29 L 867.6999999999999 446.09000000000003 L 867.4999999999999 446.99 L 867.1999999999999 447.79 L 866.9 448.69 L 866.5 449.49 L 866 450.29 M 885 470.39 L 884.3 469.99 L 883.5999999999999 469.79 L 882.8 469.49 L 882 469.39 L 881.2 469.19 L 880.3000000000001 469.09 L 879.5000000000001 469.09 L 878.6000000000001 469.09 M 893.1 597.89 L 893.2 597.99 L 893.3000000000001 597.99 L 893.4000000000001 597.99 L 893.5000000000001 597.99 L 893.7000000000002 597.89 M 893.7 456.39 L 893.7 597.89 M 697.3 352.89 L 696.3 364.69 L 694 394.79 L 693.9 396.09000000000003 M 693.9 396.09 L 738.9 423.28999999999996 L 785.1 449.89 L 826.2 472.49 M 866 450.29 L 818.5 424.69 L 772 398.29 L 734.2 375.79 L 697.3000000000001 352.89000000000004 M 684.1 327.29 L 684 327.29 L 683.9 327.39000000000004 L 683.9 327.49000000000007 L 683.8 327.49000000000007 L 683.8 327.5900000000001 L 683.8 327.7900000000001 M 684.1 327.29 L 732.4 357.59000000000003 L 782.1 387.09000000000003 L 833.2 415.79 L 885.7 443.69 M 885.7 443.69 L 885.6 443.69 L 885.6 443.79 L 885.5 443.89000000000004 L 885.5 443.99000000000007 L 885.5 444.19000000000005 M 893.7 456.39 L 893.5 456.49 L 893.4 456.49 L 893.3 456.49 L 893.1999999999999 456.49 L 893.0999999999999 456.39 M 885.7 443.69 L 887.7 444.89 L 889.4000000000001 446.59 L 890.9000000000001 448.39 L 892.0000000000001 450.28999999999996 L 893.3000000000001 453.68999999999994 L 893.7 456.38999999999993 M 826.2 472.49 L 855.1 456.39 L 866 450.28999999999996 M 826.2 472.49 L 829.5 475.29 L 832.4 478.49 L 835 482.49 L 837 487.39 L 838 491.78999999999996 M 878.6 469.09 L 866.2 476.09 L 838 491.78999999999996 M 878.6 469.09 L 878.8000000000001 464.09 L 877.9000000000001 460.39 L 877.4000000000001 459.09 L 875.3000000000001 455.98999999999995 L 874.6 455.18999999999994 L 870.9 452.38999999999993 L 866 450.2899999999999 M 885.5 602.29 L 888.4 603.1899999999999 L 890.9 602.6899999999999 M 893.1 597.89 L 893.1 456.39 M 893.1 456.39 L 892.5 452.89 L 890.9 449.39 L 888.4 446.28999999999996 L 885.5 444.18999999999994 M 885.5 444.19 L 832.9 416.29 L 781.8 387.59000000000003 L 732.0999999999999 358.09000000000003 L 683.8 327.79 M 679 327.09 L 677.5 328.78999999999996 L 677 331.68999999999994 M 677 331.69 L 677 473.19 M 677 473.19 L 677.5 476.69 L 679 480.39 L 681.2 483.59 L 683.8000000000001 485.89 M 683.8 485.89 L 732.0999999999999 516.1899999999999 L 781.8 545.6899999999999 L 832.9 574.4899999999999 L 885.5 602.2899999999998 M 885 575.69 L 884.4 580.7900000000001 L 882.5 584.59 L 878.9 586.89 L 874.1999999999999 586.99 L 868.0999999999999 584.69 M 684.2 354.39 L 684.7 349.28999999999996 L 686.4000000000001 345.68999999999994 L 689.7 343.5899999999999 L 693.9000000000001 343.7899999999999 L 699.5000000000001 346.38999999999993 M 699.5 346.39 L 736.4 369.28999999999996 L 774.1999999999999 391.78999999999996 L 820.4999999999999 418.09 L 868.0999999999999 443.69 M 868.1 443.69 L 873.6 447.39 L 878 451.59 L 881.7 457.19 L 883.2 460.49 L 884.2 463.89 L 885 470.39 M 885 470.39 L 885 575.6899999999999 M 642.4 568.59 L 642.3 568.19 L 642.3 568.09 M 642.4 568.29 L 642.4 568.5899999999999 M 642.4 568.59 L 642.6 571.49 L 644.2 579.49 L 645.8000000000001 584.09 L 647.9000000000001 588.59 L 650.3000000000001 592.69 L 653.0000000000001 596.49 L 655.9000000000001 599.79 L 659.0000000000001 602.5899999999999 M 660.9 603.99 L 661.3 604.29 M 662.6 591.89 L 662.6 592.39 M 653.4 573.69 L 652.9 573.59 L 652.4 573.39 M 662.6 592.39 L 662.6 592.39 L 659.2 589.39 L 656.3000000000001 585.39 L 654.1 580.6899999999999 L 652.8000000000001 575.89 L 652.4000000000001 573.39 M 653.6 571.89 L 653.6 571.89 L 653.4 573.6899999999999 M 653.4 573.69 L 653.4 576.09 L 654.5 580.59 L 656.6 585.19 L 659.4 589.09 L 662.6 591.89 M 662.6 591.89 L 662.7 591.99 M 916.8 751.79 L 916.9 752.0899999999999 L 917.1999999999999 752.29 M 909.5 734.49 L 909.5 734.89 M 662.7 591.99 L 662.6 592.39 M 909.5 734.89 L 872.5 715.99 L 836.2 696.59 L 800.5 676.89 L 765.6 656.6899999999999 L 731.2 636.0899999999999 L 696.6 614.4899999999999 L 662.6 592.3899999999999 M 662.6 592.39 L 662.6 592.39 M 661.3 604.29 L 661.4 598.99 L 662.6 592.39 M 661.3 604.29 L 661.3 604.29 L 682.6999999999999 618.1899999999999 L 715.9999999999999 639.1899999999999 L 749.8999999999999 659.89 L 784.5999999999999 680.29 L 819.8999999999999 700.29 L 855.8999999999999 719.99 L 916.7999999999998 751.79 M 909.5 734.89 L 909.5 734.89 M 920.6 727.99 L 920.8000000000001 728.29 L 921.2 728.5899999999999 M 909.5 734.49 L 909.5 734.89 M 963.5 728.19 L 963.2 732.19 L 962.3000000000001 735.7900000000001 L 960.7 738.69 L 958.6 740.99 L 956.9 742.09 M 938.8 739.69 L 939.4 739.7900000000001 L 940 739.69 L 940.6 739.59 L 941 739.39 M 921.2 728.59 L 921.2 728.59 L 920 732.89 L 917.3 735.49 L 914 736.09 L 910.2 735.19 L 909.5 734.8900000000001 M 916.8 751.79 L 913.0999999999999 744.39 L 909.4999999999999 734.89 M 916.8 751.79 L 916.8 751.79 L 917.1999999999999 751.99 M 917.2 751.99 L 919.8000000000001 753.09 L 923.3000000000001 754.09 L 926.7 754.2900000000001 L 929.7 753.8900000000001 L 932.4000000000001 752.7900000000001 L 934.7 751.09 L 936.6 748.69 L 937.9 745.69 L 938.6999999999999 742.2900000000001 L 938.8 739.69 M 938.8 739.69 L 938.8 739.3900000000001 M 662.7 591.99 L 662.7 591.99 L 664.7 593.29 L 697.6 614.5899999999999 L 731.2 635.4899999999999 L 765.6 655.9899999999999 L 800.6 676.1899999999999 L 836.2 695.9899999999999 L 872.5 715.3899999999999 L 909.5 734.4899999999999 M 664.4 547.29 L 664.1 547.1899999999999 L 663.9 546.9899999999999 L 663.6999999999999 546.5899999999999 L 663.5999999999999 546.1899999999999 M 908.5 688.19 L 876.6 671.8900000000001 L 844.8000000000001 654.9900000000001 L 813.4000000000001 637.7900000000001 L 782.6000000000001 620.2900000000001 L 752.2000000000002 602.4900000000001 L 722.4000000000002 584.3900000000001 L 693.2000000000002 565.9900000000001 L 664.4000000000002 547.2900000000001 M 909 688.49 L 908.7 688.39 M 912.1 686.69 L 912.1 686.69 L 912.1 687.3900000000001 L 911.7 688.19 L 911 688.69 L 910 688.7900000000001 L 909 688.4900000000001 M 909.5 734.49 L 910.8 712.69 L 911.0999999999999 688.59 M 909.5 734.49 L 909.5 734.49 M 909.5 734.49 L 910.2 734.79 L 913.8000000000001 735.6899999999999 L 917.1 734.9899999999999 L 919.3000000000001 732.8899999999999 L 919.6 732.3899999999999 L 920.5 728.7899999999998 L 920.6 727.9899999999999 M 920.6 727.99 L 920.6 726.19 M 915.7 685.99 L 915.4000000000001 687.69 L 914.4000000000001 688.7900000000001 L 912.8000000000001 689.09 L 912.7 689.09 M 653.6 571.89 L 652.9 571.79 L 652.4 571.49 M 653.5 184.59 L 652.9 184.49 L 652.4 184.19 M 642.4 568.29 L 647.3 571.49 L 652.4 573.39 M 652.4 573.39 L 652.4 573.39 L 652.4 571.49 M 652.4 571.49 L 652.4 455.59000000000003 L 652.4 288.69000000000005 L 652.4 205.09000000000006 L 652.4 184.19000000000005 M 652.4 184.19 L 652.4 183.99 M 642.2 274.89 L 642.1 325.99 L 642.1 368.49 L 642.2 453.49 L 642.2 471.69 M 653.5 184.59 L 653.4 288.99 L 653.4 455.89 L 653.6 571.89 M 653.6 571.89 L 658.6 557.79 L 661.8000000000001 543.99 M 663 179.19 L 663 179.19 L 662.8 179.09 M 653.5 184.39 L 653.5 184.58999999999997 M 663.2 187.39 L 664 186.39 L 665.3 186.19 L 666.8 186.89 M 733.6 305.49 L 733.5 305.29 M 653.5 184.39 L 652.9 184.29 L 652.4 183.98999999999998 M 662.8 179.09 L 661.0999999999999 178.19 L 658.1999999999999 177.59 L 655.6999999999999 178.59 L 654.0999999999999 180.89000000000001 L 653.4999999999999 184.39000000000001 M 662.8 179.09 L 662.5999999999999 178.59 L 662.4999999999999 178.09 M 733.6 296.49 L 733.5 296.29 L 733.5 296.19 M 669.5 140.09 L 671.3 139.19 L 674.3 138.49 L 677.5999999999999 138.59 L 681.1999999999999 139.59 L 684.8 141.29 M 642.3 168.09 L 642.3 168.19 L 642.4 168.59 M 662.4 156.09 L 661.9 156.49 L 661.5 156.89000000000001 L 661.1 157.49 L 660.9 158.09 M 642.4 168.89 L 647.3 177.39 L 652.4 183.98999999999998 M 652.4 183.99 L 652.4 183.99 L 653 180.19 L 654.8 177.59 L 657.4 176.49 L 660.6 177.09 L 662.5 178.09 M 661.3 158.29 L 661.3 158.29 L 660.9 158.09 M 660.9 158.09 L 658.6 156.69 L 655.6 155.49 L 652.8000000000001 154.89000000000001 L 650.2 155.09 L 647.9000000000001 155.99 L 645.9000000000001 157.49 L 644.3000000000001 159.79000000000002 L 643.2 162.59000000000003 L 642.5 165.99000000000004 L 642.4 168.59000000000003 M 642.4 168.59 L 642.4 168.89000000000001 M 733.5 286.59 L 733.5 286.59 L 733.6 286.78999999999996 M 733.6 305.49 L 718.3000000000001 300.09000000000003 M 678.1 327.59 L 678.2 327.09 L 679.2 325.48999999999995 M 891.1 603.39 L 889.9 603.29 M 838.2 365.89 L 838.5 365.89 L 838.8 365.89 L 838.9 365.89 M 847.6 374.69 L 838.2 365.89 M 733.6 296.49 L 718.3000000000001 290.99 M 838.2 356.89 L 838.5 356.89 L 838.8 356.78999999999996 L 838.9 356.78999999999996 M 847.6 365.69 L 838.2 356.89 M 733.6 286.79 L 718.3000000000001 281.39000000000004 M 838.2 347.19 L 838.5 347.19 L 838.8 347.19 L 838.9 347.19 M 847.6 355.99 L 838.2 347.19 M 910.1 686.39 L 910.5 686.59 L 911.1 686.69 L 911.6 686.69 L 912.1 686.69 M 912.1 335.79 L 912.1 686.69 M 915.7 685.99 L 912.1 686.69 M 910.1 335.49 L 910.5 335.69 L 911.1 335.79 L 911.6 335.79 L 912.1 335.79 M 908.3 332.69 L 908.3 332.19 L 908.5 331.69 L 908.7 331.19 L 909 330.69 M 663.6 191.49 L 663.7 190.89000000000001 L 663.9000000000001 190.29000000000002 L 664.2 189.89000000000001 L 664.4000000000001 189.59 M 664.4 189.59 L 666.8 186.89000000000001 M 664.4 189.59 L 693.1999999999999 208.19 L 722.4 226.59 L 752.1999999999999 244.69 L 782.5999999999999 262.49 L 813.3999999999999 280.09000000000003 L 844.7999999999998 297.29 L 876.5999999999998 314.19 L 908.9999999999998 330.69 M 908.3 332.69 L 875.9 316.09 L 844 299.19 L 812.7 281.99 L 781.8000000000001 264.49 L 751.5000000000001 246.69 L 721.6000000000001 228.59 L 692.4000000000001 210.19 L 663.6000000000001 191.49 M 663.6 191.49 L 663.1 191.19 L 662.6 191.19 L 662.3000000000001 191.49 L 662.1 191.99 L 662.1 192.39000000000001 M 662.1 192.39 L 662.1 543.19 M 662.1 543.19 L 662.1 543.8900000000001 L 662.4 544.5900000000001 L 662.8 545.2900000000002 L 663.3 545.8900000000002 L 663.5999999999999 546.1900000000002 M 663.6 546.19 L 692.4 564.8900000000001 L 721.6999999999999 583.2900000000001 L 751.4999999999999 601.3900000000001 L 781.7999999999998 619.19 L 812.6999999999998 636.69 L 843.9999999999998 653.8900000000001 L 875.8999999999997 670.7900000000001 L 908.2999999999997 687.3900000000001 M 908.3 687.39 L 908.9 687.59 L 909.4 687.59 L 909.8 687.2900000000001 L 910.0999999999999 686.7900000000001 L 910.0999999999999 686.3900000000001 M 910.1 686.39 L 910.1 335.49 M 910.1 335.49 L 910 334.89 L 909.7 334.19 L 909.3000000000001 333.49 L 908.7 332.99 L 908.3000000000001 332.69 M 885.9 443.39 L 859.4 429.49 L 833.1999999999999 415.39 L 807.3 401.09 L 781.8 386.59 L 756.6999999999999 371.78999999999996 L 731.9 356.89 L 707.4 341.78999999999996 L 683.4 326.48999999999995 M 893.9 456.09 L 893.4 452.98999999999995 L 892.1 449.78999999999996 L 890.1 446.89 L 887.7 444.49 L 885.9000000000001 443.39 M 893.9 598.79 L 893.9 456.09 M 885.9 603.39 L 888.6 604.29 L 890.9 604.0899999999999 L 892.6999999999999 602.6899999999999 L 893.6999999999999 600.5899999999999 L 893.9 598.79 M 683.4 486.49 L 707.4 501.79 L 731.9 516.99 L 756.6999999999999 531.89 L 781.8 546.59 L 807.3 561.09 L 833.1999999999999 575.39 L 859.4 589.49 L 885.9 603.39 M 676.3 473.19 L 676.6999999999999 476.39 L 677.9 479.69 L 679.6 482.69 L 681.8000000000001 485.19 L 683.4000000000001 486.49 M 676.3 330.49 L 676.3 473.19 M 683.4 326.49 L 681 325.39 L 678.9 325.49 L 677.3 326.69 L 676.5 328.79 L 676.3 330.49 M 847.6 351.89 L 830.9 342.78999999999996 L 814.4 333.68999999999994 L 798 324.48999999999995 L 781.8 315.18999999999994 L 765.6999999999999 305.78999999999996 L 749.8 296.39 L 734 286.89 L 718.3 277.19 M 847.6 351.89 L 849.5 352.99 L 850 353.49 L 850.4 353.79 L 850.8 354.19 L 851 354.39 L 851.1 354.59 L 851.1 354.69 L 851.1 354.79 M 851.1 354.79 L 851.1 356.89000000000004 M 851.1 356.89 L 851.1 356.99 L 851 357.09000000000003 L 850.8 357.09000000000003 L 850.1999999999999 357.09000000000003 L 847.5999999999999 355.99 M 718.3 281.39 L 734 290.99 L 749.8 300.59000000000003 L 765.6999999999999 309.99 L 781.8 319.39 L 798 328.69 L 814.4 337.89 L 830.9 346.99 L 847.6 355.99 M 718.3 281.39 L 716.5999999999999 280.19 L 716.0999999999999 279.69 L 715.6999999999999 279.29 L 715.4 278.89000000000004 L 715.1999999999999 278.69000000000005 L 715.0999999999999 278.49000000000007 L 715.0999999999999 278.39000000000004 L 715.0999999999999 278.29 M 715.1 278.29 L 715.1 276.29 M 715.1 276.29 L 715.1 276.19 L 715.2 276.09 L 715.3000000000001 275.98999999999995 L 715.9000000000001 276.09 L 718.3000000000001 277.19 M 847.6 361.49 L 830.9 352.49 L 814.4 343.29 L 798 334.09000000000003 L 781.8 324.89000000000004 L 765.6999999999999 315.49000000000007 L 749.8 305.99000000000007 L 734 296.49000000000007 L 718.3 286.89000000000004 M 847.6 361.49 L 849.5 362.69 L 850 363.09 L 850.4 363.39 L 850.8 363.78999999999996 L 851 364.09 L 851.1 364.19 L 851.1 364.39 M 851.1 364.39 L 851.1 366.49 M 851.1 366.49 L 851.1 366.59000000000003 L 851 366.69000000000005 L 850.8 366.7900000000001 L 850.1999999999999 366.69000000000005 L 847.5999999999999 365.69000000000005 M 718.3 290.99 L 734 300.69 L 749.8 310.19 L 765.6999999999999 319.59 L 781.8 328.98999999999995 L 798 338.28999999999996 L 814.4 347.48999999999995 L 830.9 356.59 L 847.6 365.69 M 718.3 290.99 L 716.5999999999999 289.79 L 716.0999999999999 289.29 L 715.6999999999999 288.99 L 715.4 288.59000000000003 L 715.1999999999999 288.29 L 715.0999999999999 288.19 L 715.0999999999999 287.99 M 715.1 287.99 L 715.1 285.89 M 715.1 285.89 L 715.1 285.78999999999996 L 715.2 285.68999999999994 L 715.3000000000001 285.5899999999999 L 715.9000000000001 285.68999999999994 L 718.3000000000001 286.88999999999993 M 847.6 370.49 L 830.9 361.49 L 814.4 352.39 L 798 343.19 L 781.8 333.89 L 765.6999999999999 324.49 L 749.8 315.09000000000003 L 734 305.49 L 718.3 295.89 M 847.6 370.49 L 849.5 371.69 L 850 372.09 L 850.4 372.48999999999995 L 850.8 372.88999999999993 L 851 373.0899999999999 L 851.1 373.2899999999999 L 851.1 373.38999999999993 L 851.1 373.48999999999995 M 851.1 373.49 L 851.1 375.59000000000003 M 851.1 375.59 L 851.1 375.59 L 851 375.69 L 850.8 375.79 L 850.1999999999999 375.79 L 847.5999999999999 374.69 M 718.3 300.09 L 734 309.69 L 749.8 319.19 L 765.6999999999999 328.69 L 781.8 338.09 L 798 347.39 L 814.4 356.59 L 830.9 365.69 L 847.6 374.69 M 718.3 300.09 L 716.5999999999999 298.89 L 716.0999999999999 298.39 L 715.6999999999999 297.99 L 715.4 297.59000000000003 L 715.1999999999999 297.39000000000004 L 715.0999999999999 297.19000000000005 L 715.0999999999999 297.09000000000003 L 715.0999999999999 296.99 M 715.1 296.99 L 715.1 294.89 M 715.1 294.89 L 715.1 294.78999999999996 L 715.2 294.78999999999996 L 715.3000000000001 294.68999999999994 L 715.9000000000001 294.78999999999996 L 718.3000000000001 295.89 M 909 330.69 L 911.1 327.79 M 909 330.69 L 909 330.69 L 909.7 331.19 L 910.7 332.09 L 911.5 333.28999999999996 L 912 334.59 L 912.1 335.78999999999996 M 915.7 335.09 L 912.1 335.78999999999996 M 920.6 726.19 L 918.7 707.99 L 915.7 685.99 M 915.7 335.09 L 915.7 685.99 M 920.6 338.79 L 920.8000000000001 339.09000000000003 L 921.3000000000001 339.39000000000004 M 920.6 726.19 L 920.6 579.69 L 920.6 492.09000000000003 L 920.6 448.29 L 920.6 404.49 L 920.6 360.69 L 920.6 338.79 M 920.6 726.19 L 920.8000000000001 726.59 L 921.3000000000001 726.89 M 663 179.19 L 665.6 182.49 L 666.5 184.59 L 666.8 186.89000000000001 M 666.8 186.89 L 724.8 223.89 L 784.8 259.69 L 846.9 294.39 L 911.1 327.78999999999996 M 663 179.19 L 662.8 178.79 L 662.6999999999999 178.19 M 909.7 321.59 L 909.7 321.59 L 874.3000000000001 303.48999999999995 L 839.5000000000001 284.98999999999995 L 798.8000000000001 262.38999999999993 L 758.9000000000001 239.28999999999994 L 719.8000000000001 215.58999999999995 L 681.7 191.48999999999995 L 663 179.18999999999994 M 909.7 321.59 L 909.4000000000001 321.19 L 909.4000000000001 320.59 M 920.6 338.79 L 918.6 336.39000000000004 L 917.3000000000001 335.69000000000005 L 915.7 335.09000000000003 M 920.6 338.79 L 920.6 338.79 L 920.5 338.59000000000003 M 909.9 321.69 L 909.6999999999999 321.59 M 909.7 321.59 L 910.7 323.89 L 910.9000000000001 325.69 L 911.1000000000001 327.79 M 911.1 327.79 L 912.8000000000001 329.09000000000003 L 914.4000000000001 330.89000000000004 L 915.4000000000001 332.99000000000007 L 915.7 335.0900000000001 M 909.9 321.69 L 909.6999999999999 321.29 L 909.6999999999999 320.69 M 920.5 338.59 L 920.3 336.39 L 919.0999999999999 332.09 L 916.6999999999999 327.89 L 913.4999999999999 324.28999999999996 L 909.8999999999999 321.68999999999994 M 920.5 338.59 L 920.8 338.89 L 921.3 339.19 M 938.8 739.39 L 939.4 739.49 L 940 739.39 L 940.6 739.29 L 941 739.0899999999999 M 938.8 339.99 L 939.4 340.09000000000003 L 940 340.09000000000003 L 940.5 339.99 L 941 339.79 M 941 339.49 L 941 339.79 M 941 339.79 L 940.9 496.99 L 940.9 539.49 L 941 709.49 L 941 739.09 M 941 739.09 L 941 739.39 M 941 739.39 L 963.5 728.1899999999999 M 963.5 326.49 L 963.5 728.19 M 921.3 339.39 L 921.1999999999999 405.09 L 921.0999999999999 448.78999999999996 L 920.9999999999999 492.59 L 920.9999999999999 580.1899999999999 L 921.2999999999998 726.8899999999999 M 921.3 726.89 L 921.1999999999999 728.59 M 938.8 739.39 L 930 734.6899999999999 L 921.2 728.5899999999999 M 938.8 739.39 L 939 539.79 L 939 497.28999999999996 L 938.8 339.98999999999995 M 921.3 339.19 L 921.3 339.19 L 921.3 339.39 M 662.7 178.19 L 681.4000000000001 190.39 L 719.6000000000001 214.48999999999998 L 758.6000000000001 238.08999999999997 L 798.5000000000001 261.19 L 839.3000000000001 283.89 L 874.1 302.39 L 909.4 320.59 M 909.4 320.59 L 909.6999999999999 320.69 M 661.3 158.29 L 661.4 167.79 L 662.5 178.09 M 662.5 178.09 L 662.5 178.09 L 662.7 178.19 M 918 303.69 L 918.4 303.89 M 684.8 141.29 L 942.5 289.99 M 684.8 141.29 L 662.4 156.09 M 662.4 156.09 L 662.8 156.39000000000001 M 662.8 156.39 L 662.3 156.69 L 661.8 157.19 L 661.5 157.69 L 661.3 158.29 M 916.8 305.79 L 916.8 305.79 L 855.9 274.49 L 819.9 254.89000000000001 L 784.6 234.99 L 749.9 214.59 L 716 193.69 L 682.7 172.49 L 661.3000000000001 158.29000000000002 M 918 303.69 L 917.6 304.09 L 917.2 304.59 L 916.9000000000001 305.19 L 916.8000000000001 305.79 M 662.8 156.39 L 684.1999999999999 170.48999999999998 L 717.4 191.58999999999997 L 751.4 212.39 L 786 232.79 L 821.3 252.79 L 857.1999999999999 272.28999999999996 L 917.9999999999999 303.68999999999994 M 916.8 305.79 L 913.0999999999999 313.09000000000003 L 909.6999999999999 320.69000000000005 M 909.7 320.69 L 909.7 320.69 L 913.6 323.59 L 917.1 327.48999999999995 L 919.7 332.09 L 921.1 336.78999999999996 L 921.3000000000001 339.18999999999994 M 938.8 339.99 L 930 339.89 L 921.3 339.19 M 938.8 339.99 L 938.8 339.99 L 938.8 339.69 M 917.2 305.99 L 916.8000000000001 305.79 M 918.4 303.89 L 942.5 289.99 M 963.5 326.49 L 941 339.49 M 942.5 289.99 L 946.2 292.49 L 949.7 295.69 L 953 299.39 L 956 303.49 L 958.6 307.99 L 960.7 312.69 L 962.3000000000001 317.39 L 963.2 322.09 L 963.5 326.48999999999995 M 918.4 303.89 L 918 304.28999999999996 L 917.7 304.78999999999996 L 917.4000000000001 305.39 L 917.2 305.99 M 938.8 339.69 L 938.6999999999999 336.79 L 936.6999999999999 328.89000000000004 L 934.8 324.39000000000004 L 932.4 320.19000000000005 L 929.6 316.2900000000001 L 926.4 312.7900000000001 L 923 309.7900000000001 L 919.5 307.2900000000001 L 917.2 305.99000000000007 M 941 339.49 L 940.6 339.69 L 940 339.79 L 939.4 339.79 L 938.8 339.69 M 918.4 303.89 L 920.8 305.28999999999996 L 924.5999999999999 307.89 L 928.0999999999999 311.09 L 931.3999999999999 314.78999999999996 L 934.2999999999998 318.89 L 936.8999999999999 323.39 L 938.8999999999999 328.09 L 940.1999999999998 332.28999999999996 L 940.8999999999999 336.39 L 940.9999999999999 339.49 M 1060.6 667.69 L 1061.6999999999998 666.99 L 1063.6 665.09 L 1065.1 662.69 L 1066 659.8900000000001 L 1066.5 656.69 L 1066.6 655.19 M 799.6 88.59 L 797.9 87.69 L 794.6 86.49 L 791.7 86.08999999999999 L 789 86.28999999999999 L 786.2 87.08999999999999 L 786 87.28999999999999 M 963.2 732.19 L 1060.9 667.69 M 785.9 87.29 L 681.1999999999999 139.59 M 1050.3 233.29 L 799.6 88.59 M 1066.6 655.19 L 1066.6 261.49000000000007 M 1066.6 261.49 L 1066.5 259.49 L 1065.9 255.79000000000002 L 1064.9 251.99 L 1063.4 248.29000000000002 L 1061.4 244.69000000000003 L 1059.2 241.39000000000001 L 1056.6000000000001 238.29000000000002 L 1053.7 235.69000000000003 L 1050.9 233.69000000000003 L 1050.3000000000002 233.29000000000002 M 676.8 331.79 L 676.8 401.69000000000005 L 676.8 472.99000000000007 M 680.3 325.89 L 679.0999999999999 326.59 M 682.8 402.39 L 682.8 466.49 M 682.8 401.19 L 682.8 402.49 M 686.4 356.39 L 685.8 363.49 L 682.8 400.99 M 891.3 602.89 L 892.5999999999999 602.09 M 867.5 581.29 L 866.4 580.89 L 866.3 580.79 M 827.1 562.89 L 867.3000000000001 581.1899999999999 M 642.3 567.79 L 642.3 568.0899999999999 M 661.3 604.49 L 661.5999999999999 604.79 M 659.7 603.29 L 661.3000000000001 604.49 M 661.5 541.89 L 661.6 543.1899999999999 L 662.1 544.79 L 663 546.1899999999999 L 663.9 547.0899999999999 L 664.1 547.1899999999999 M 917.1 752.29 L 917.6 752.49 M 661.7 604.79 L 674.7 613.39 L 701.4000000000001 630.39 L 730.0000000000001 648.1899999999999 L 759.1000000000001 665.79 L 788.9000000000001 683.0899999999999 L 819.3000000000001 700.3899999999999 L 850.2 717.2899999999998 L 878.1 732.1899999999998 L 908 747.5899999999998 L 917.2 752.1899999999998 M 933.8 753.59 L 956.9 742.09 M 917.6 752.49 L 917.9 752.69 L 921.5 754.09 L 925.1 754.89 L 928.5 754.99 L 931.6 754.39 L 933.8000000000001 753.49 M 908.3 688.19 L 909.5 688.69 L 910 688.7900000000001 M 910.1 688.79 L 911.5 688.99 L 912.9 689.09 M 642.3 168.09 L 642.3 168.39000000000001 M 642.3 168.39 L 642.0999999999999 261.89 L 642.0999999999999 274.59 M 642.1 471.39 L 642.1 479.39 L 642.3000000000001 567.79 M 661.5 191.59 L 661.5 542.39 M 661.9 189.99 L 661.6 190.99 L 661.5 191.49 M 663.2 187.29 L 662.5 188.59 L 661.9 189.99 M 669.5 140.09 L 648.1 154.29 M 648.1 154.39 L 646.9 155.19 L 645.1 157.19 L 643.8000000000001 159.69 L 642.8000000000001 162.69 L 642.3000000000001 166.19 L 642.3000000000001 168.29" stroke-linecap="round" />
</g>
</svg>