<?xml version="1.0" encoding="utf-8"?>
<!-- Generator: Adobe Illustrator 16.0.0, SVG Export Plug-In . SVG Version: 6.00 Build 0)  -->
<!DOCTYPE svg PUBLIC "-//W3C//DTD SVG 1.1//EN" "http://www.w3.org/Graphics/SVG/1.1/DTD/svg11.dtd">
<svg version="1.1" id="Layer_1" xmlns="http://www.w3.org/2000/svg" xmlns:xlink="http://www.w3.org/1999/xlink" x="0px" y="0px"
	 width="131px" height="131px" viewBox="0 0 131 131" enable-background="new 0 0 131 131" xml:space="preserve">
<g>
	<path fill="#A1A1A1" d="M112.466,130.49c-0.145,0-0.289-0.002-0.433-0.006c-9.158-0.219-18.319-0.518-27.23-0.893
		c-5.51-0.084-11.036-0.408-15.783-0.707c-1.624-0.1-3.246-0.205-4.867-0.314c-13.953-0.793-27.828-1.803-41.224-3.004
		c-6.583-0.59-12.159-4.631-14.267-10.318c-1.285-1.84-2.409-3.826-3.346-5.91c-2.529-5.637-3.233-10.955-3.38-14.424
		C1.174,76.771,0.499,59.033,0.619,41.476c0.062-9.234,1.788-16.527,5.27-22.276c0.022-3.765,1.635-7.644,4.354-10.439
		c3.174-3.261,8.031-5.373,12.675-5.512l91.503-2.733c8.464-0.236,15.974,7.158,15.974,15.625v99.025
		c0,4.303-2.449,8.67-6.553,11.682C120.689,129.164,116.544,130.49,112.466,130.49z M114.838,3.295
		c-0.111,0-0.223,0.002-0.334,0.006L23.002,6.033c-3.949,0.117-8.074,1.907-10.764,4.67c-2.293,2.358-3.626,5.645-3.562,8.788
		l0.001,0.071c0.006,0.27-0.068,0.535-0.213,0.766C5.12,25.679,3.464,32.603,3.402,41.496C3.283,58.988,3.958,76.689,4.721,94.797
		c0.134,3.225,0.789,8.168,3.137,13.398c0.89,1.98,1.962,3.865,3.189,5.596c0.073,0.105,0.132,0.219,0.176,0.34
		c1.688,4.764,6.382,8.164,11.953,8.662c13.367,1.195,27.211,2.205,41.148,2.998c1.631,0.107,3.249,0.215,4.869,0.316
		c4.721,0.295,10.215,0.619,15.67,0.699c0.012,0,0.024,0,0.036,0c8.901,0.373,18.054,0.674,27.2,0.895
		c0.121,0.004,0.243,0.004,0.366,0.004c3.497,0,7.043-1.131,9.728-3.102c3.342-2.451,5.416-6.07,5.416-9.438V16.141
		C127.609,9.418,121.523,3.295,114.838,3.295z"/>
	<g>
		<g>
			<path fill-rule="evenodd" clip-rule="evenodd" fill="#FFFFFF" d="M22.96,4.642l91.502-2.733
				c7.655-0.229,14.541,6.574,14.541,14.232v99.025c0,4.023-2.446,7.961-5.985,10.561c-3.199,2.348-7.314,3.453-10.951,3.367
				c-29.721-0.711-59.42-2.266-89.014-4.914c-7.629-0.684-13.771-6.268-13.927-13.926L7.284,19.52
				c-0.071-3.506,1.388-7.146,3.958-9.788C14.287,6.602,18.808,4.766,22.96,4.642z"/>
		</g>
	</g>
	<g>
		<g>
			<path fill-rule="evenodd" clip-rule="evenodd" fill="#FFFFFF" d="M22.71,7.479l86.052-2.611
				c9.189-0.279,13.676,4.525,13.676,13.601v94.62c0,3.844,0.118,8.998-2.963,11.791c-3.381,3.063-9.422,3.236-12.842,3.156
				c-27.949-0.682-56.004-3.805-83.836-6.336c-7.174-0.65-12.951-5.988-13.097-13.307L7.968,21.694
				C7.9,18.346,8.281,13.48,10.695,10.957C13.562,7.967,18.806,7.596,22.71,7.479z"/>
		</g>
	</g>
	<g>
		<g>
			<path fill-rule="evenodd" clip-rule="evenodd" fill="#A1A1A1" d="M23.373,8.82L107.9,6.268
				c9.025-0.272,13.432,4.424,13.432,13.297v92.508c0,3.756,0.117,8.799-2.91,11.525c-3.32,2.996-9.254,3.168-12.613,3.084
				c-27.453-0.662-55.012-3.717-82.349-6.189c-7.046-0.639-12.722-5.857-12.864-13.01L8.894,22.719
				c-0.067-3.273,0.308-8.029,2.681-10.497C14.389,9.297,19.539,8.937,23.373,8.82z"/>
		</g>
	</g>
	<g>
		<g>
			<path fill-rule="evenodd" clip-rule="evenodd" fill="#FFFFFF" d="M24.245,9.146l82.282-2.656
				c7.47-0.24,14.188,6.241,14.188,13.516v94.021c0,3.818-2.275,7.723-5.84,10.027c-3.348,2.166-8.417,2.914-10.685,3.197
				c-12.325,1.531-23.765,0.955-35.085,0.246c-15.121-0.951-30.03-2.148-46.551-3.928c-6.455-0.697-12.604-7.309-15.967-14.805
				c-2.123-4.732-3.08-9.662-3.259-13.912C2.615,77.893,1.888,59.644,2.01,41.486c0.07-10.15,2.208-20.933,10.494-27.935
				C15.713,10.838,20.194,9.277,24.245,9.146z"/>
		</g>
	</g>
	<g>
		<g>
			<path fill="#A1A1A1" d="M87.517,128.568c-6.384,0-12.606-0.359-18.434-0.725c-16.528-1.039-31.326-2.289-46.566-3.928
				c-6.073-0.658-12.45-6.547-16.246-15.008c-2.461-5.484-3.147-10.66-3.289-14.037C2.219,76.742,1.543,59.017,1.663,41.484
				c0.088-13.011,3.561-22.235,10.615-28.199c3.157-2.67,7.627-4.346,11.956-4.486l82.281-2.656
				c7.704-0.248,14.547,6.338,14.547,13.863v94.021c0,3.912-2.354,7.961-5.998,10.318c-2.418,1.564-6.062,2.658-10.832,3.25
				C98.976,128.248,93.508,128.568,87.517,128.568z M106.932,6.83c-0.131,0-0.262,0.002-0.393,0.008L24.256,9.493
				c-4.176,0.135-8.486,1.751-11.529,4.323C5.836,19.641,2.445,28.691,2.357,41.488C2.238,59.005,2.914,76.723,3.676,94.842
				c0.14,3.314,0.812,8.398,3.229,13.781c3.029,6.754,9.054,13.887,15.686,14.6c15.229,1.641,30.017,2.891,46.536,3.928
				c5.816,0.365,12.025,0.721,18.39,0.721c5.962,0,11.401-0.314,16.63-0.965c4.664-0.58,8.211-1.637,10.541-3.145
				c3.449-2.232,5.68-6.053,5.68-9.734V20.006C120.367,12.986,114.088,6.83,106.932,6.83z"/>
			<path fill="#A1A1A1" d="M87.517,129.078c-6.358,0-12.608-0.357-18.466-0.727c-16.551-1.039-31.355-2.289-46.589-3.928
				c-6.249-0.676-12.789-6.684-16.657-15.305c-2.495-5.563-3.189-10.809-3.333-14.229C1.708,76.75,1.033,59.011,1.152,41.48
				c0.09-13.168,3.622-22.52,10.797-28.585c3.243-2.74,7.828-4.463,12.269-4.605L106.5,5.633c8.02-0.266,15.073,6.569,15.073,14.373
				v94.021c0,4.08-2.446,8.299-6.231,10.748c-2.484,1.605-6.2,2.727-11.047,3.326C99.016,128.758,93.525,129.078,87.517,129.078z
				 M106.932,7.342c-0.124,0-0.25,0.002-0.373,0.006l-82.285,2.656c-4.064,0.131-8.258,1.701-11.217,4.201
				C6.288,19.929,2.955,28.854,2.868,41.492C2.749,58.976,3.424,76.695,4.186,94.82c0.138,3.271,0.802,8.285,3.185,13.592
				c2.969,6.621,8.844,13.611,15.276,14.303c15.242,1.643,30.022,2.891,46.512,3.926c5.814,0.365,12.02,0.721,18.358,0.721
				c5.946,0,11.365-0.314,16.567-0.963c4.588-0.568,8.063-1.602,10.326-3.064c3.309-2.143,5.447-5.793,5.447-9.307V20.006
				C119.857,13.258,113.816,7.342,106.932,7.342z"/>
		</g>
	</g>
	<g>
		<g>
			<path fill-rule="evenodd" clip-rule="evenodd" fill="#FFFFFF" d="M60.18,26.32c21.972,0,40.148,18.292,40.602,40.859
				c0.451,22.564-16.994,40.857-38.967,40.857c-21.971,0-40.147-18.293-40.6-40.857C20.764,44.613,38.208,26.32,60.18,26.32z"/>
		</g>
	</g>
	<g>
		<g>
			<path fill="#A1A1A1" d="M61.814,108.387c-22.125,0-40.494-18.482-40.949-41.199c-0.223-11.219,3.879-21.706,11.549-29.534
				C39.8,30.121,49.66,25.971,60.18,25.971c22.125,0,40.496,18.484,40.949,41.201c0.225,11.217-3.877,21.705-11.549,29.531
				C82.195,104.236,72.335,108.387,61.814,108.387z M60.18,26.668c-10.331,0-20.014,4.076-27.267,11.474
				c-7.539,7.693-11.57,18.002-11.351,29.03c0.447,22.342,18.504,40.518,40.252,40.518c10.332,0,20.015-4.074,27.268-11.475
				c7.539-7.693,11.57-18.002,11.35-29.029C99.985,44.845,81.929,26.668,60.18,26.668z"/>
			<path fill="#A1A1A1" d="M61.814,108.896c-22.4,0-41-18.705-41.459-41.699c-0.227-11.354,3.926-21.973,11.693-29.899
				c7.482-7.633,17.473-11.837,28.131-11.837c22.402,0,41.002,18.707,41.461,41.701c0.227,11.354-3.926,21.971-11.695,29.898
				C82.463,104.693,72.473,108.896,61.814,108.896z M60.18,27.18c-10.191,0-19.746,4.019-26.902,11.32
				c-7.443,7.596-11.422,17.775-11.204,28.663c0.442,22.064,18.271,40.016,39.741,40.016c10.193,0,19.748-4.021,26.903-11.32
				c7.442-7.594,11.421-17.773,11.204-28.662C99.48,45.132,81.652,27.18,60.18,27.18z"/>
		</g>
	</g>
	<g>
		<g>
			<path fill-rule="evenodd" clip-rule="evenodd" fill="#A1A1A1" d="M63.434,34.181c17.023,0,31.105,14.408,31.455,32.182
				c0.352,17.771-13.165,32.18-30.188,32.18c-17.023,0-31.106-14.408-31.455-32.18C32.896,48.589,46.412,34.181,63.434,34.181z"/>
		</g>
	</g>
	<g>
		<g>
			<path fill-rule="evenodd" clip-rule="evenodd" fill="#FFFFFF" d="M38.888,48.49l13.757-8.719
				c7.697-5.111,20.965-1.816,29.108,6.488c5.1,5.201,7.592,12.67,7.298,20.346c-0.348,9.061-4.719,18.154-11.848,23.33
				c-6.729,4.887-12.967,4.885-22.687,5.506l-13.264-2.949l-3.685-1.229C15.258,79.631,25.092,61.302,38.888,48.49z"/>
		</g>
	</g>
	<g>
		<g>
			<path fill="#A1A1A1" d="M54.517,95.963c-0.036,0-0.075-0.004-0.111-0.012l-13.267-2.949c-0.016-0.004-0.033-0.008-0.052-0.014
				l-3.685-1.23c-0.025-0.008-0.051-0.018-0.076-0.031c-7.986-4.164-12.469-9.482-13.322-15.816
				c-1.49-11.067,8.463-22.17,14.529-27.803c0.022-0.021,0.049-0.041,0.075-0.059l13.757-8.721c2.477-1.643,5.66-2.516,9.195-2.516
				c7.193,0,15.074,3.48,20.566,9.082c5.04,5.141,7.754,12.697,7.445,20.731c-0.363,9.502-4.986,18.596-12.063,23.732
				c-6.328,4.596-12.379,4.963-20.753,5.469c-0.716,0.043-1.45,0.088-2.206,0.135C54.54,95.961,54.527,95.963,54.517,95.963z
				 M41.392,91.988l13.167,2.928c0.729-0.047,1.441-0.092,2.135-0.133c8.504-0.514,14.121-0.854,20.202-5.27
				c6.824-4.953,11.282-13.74,11.634-22.928c0.297-7.749-2.309-15.024-7.149-19.961c-5.302-5.41-12.896-8.768-19.819-8.768
				c-3.33,0-6.313,0.811-8.629,2.348l-13.723,8.699c-5.922,5.508-15.596,16.289-14.17,26.868
				c0.804,5.967,5.088,11.016,12.733,15.012L41.392,91.988z"/>
		</g>
	</g>
	<path fill="#A1A1A1" d="M54.517,95.615c-0.013,0-0.024-0.002-0.036-0.006l-13.266-2.947l-3.703-1.232
		c-8.084-4.098-12.604-9.41-13.459-15.797c-1.059-7.91,3.821-17.413,13.387-26.069l1.331-1.203c0.008-0.006,0.016-0.012,0.024-0.018
		l3.133-1.986c0.013-0.008,0.025-0.014,0.041-0.02c2.504-0.783,5.115-1.184,7.76-1.184c14.285,0,25.906,11.623,25.906,25.907
		c0,10.77-6.779,20.529-16.869,24.285c-0.018,0.006-0.033,0.01-0.049,0.01c-0.646,0.041-1.307,0.082-1.986,0.123
		c-0.713,0.043-1.448,0.086-2.203,0.137C54.523,95.615,54.521,95.615,54.517,95.615z M38.994,48.628l-1.322,1.195
		c-9.479,8.578-14.316,17.967-13.273,25.764c0.838,6.266,5.296,11.488,13.249,15.521l3.661,1.219l13.222,2.938
		c0.747-0.049,1.474-0.092,2.181-0.135c0.667-0.041,1.32-0.082,1.957-0.119c9.941-3.713,16.618-13.334,16.618-23.951
		c0-14.092-11.464-25.557-25.558-25.557c-2.602,0-5.171,0.391-7.635,1.16L38.994,48.628z"/>
	<path fill="#A1A1A1" d="M42.258,91.07c-9.854,0-17.871-8.191-17.871-18.26c0-10.067,8.018-18.258,17.871-18.258
		c9.855,0,17.871,8.191,17.871,18.258C60.129,82.879,52.113,91.07,42.258,91.07z M42.258,54.9c-9.662,0-17.523,8.035-17.523,17.911
		c0,9.877,7.861,17.912,17.523,17.912c9.663,0,17.525-8.035,17.525-17.912C59.783,62.935,51.921,54.9,42.258,54.9z"/>
	<g>
		<g>
			<path fill-rule="evenodd" clip-rule="evenodd" fill="#FFFFFF" d="M33.484,100.385l4.237-9.029
				c7.165,1.021,14.527,3.41,16.949,3.992l-5.466,10.012C44.176,109.887,34.98,107.115,33.484,100.385z"/>
		</g>
	</g>
	<path fill="#A1A1A1" d="M43.174,107.928c-4.16,0-8.941-2.564-10.03-7.469c-0.016-0.074-0.008-0.152,0.025-0.223l4.237-9.027
		c0.064-0.139,0.213-0.221,0.364-0.199c5.468,0.781,11.103,2.369,14.468,3.316c1.084,0.305,1.939,0.545,2.514,0.686
		c0.105,0.023,0.193,0.096,0.237,0.195c0.043,0.1,0.039,0.213-0.013,0.309l-5.465,10.01c-0.02,0.033-0.045,0.064-0.073,0.092
		C47.783,107.105,45.56,107.928,43.174,107.928z M33.85,100.422c1.059,4.471,5.475,6.807,9.324,6.807
		c2.192,0,4.232-0.742,5.755-2.088l5.222-9.564c-0.55-0.143-1.256-0.344-2.1-0.58c-3.298-0.928-8.78-2.473-14.124-3.258
		L33.85,100.422z"/>
	<g>
		<g>
			<path fill-rule="evenodd" clip-rule="evenodd" fill="#FFFFFF" d="M31.826,35.9l7.184,12.652
				c4.934-3.568,9.037-5.865,14.371-8.906l0.369-0.492l-6.326-10.316C40.492,27.174,34.373,28.965,31.826,35.9z"/>
		</g>
	</g>
	<path fill="#A1A1A1" d="M39.01,48.898c-0.023,0-0.049-0.002-0.073-0.008c-0.097-0.02-0.179-0.08-0.229-0.166l-7.184-12.652
		c-0.051-0.09-0.061-0.197-0.025-0.291c1.893-5.148,5.813-7.871,11.344-7.871c1.467,0,3.035,0.199,4.664,0.59
		c0.088,0.021,0.166,0.077,0.215,0.155l6.326,10.317c0.074,0.123,0.067,0.277-0.019,0.391l-0.368,0.494
		c-0.029,0.035-0.064,0.068-0.107,0.092l-0.803,0.459c-4.955,2.822-8.867,5.049-13.535,8.426
		C39.154,48.876,39.083,48.898,39.01,48.898z M32.209,35.869l6.914,12.174c4.559-3.271,8.42-5.471,13.28-8.24l0.743-0.424
		l0.184-0.242l-6.127-9.993c-1.525-0.356-2.992-0.538-4.361-0.538C37.684,28.605,34.012,31.117,32.209,35.869z"/>
	<g>
		<g>
			<path fill-rule="evenodd" clip-rule="evenodd" fill="#FFFFFF" d="M86.39,76.525l13.45,0.246
				c1.584-7.555,0.531-12.698-0.123-16.95l-12.959-0.123C82.246,62.046,83.039,73.174,86.39,76.525z"/>
		</g>
	</g>
	<path fill="#A1A1A1" d="M99.84,77.119c-0.002,0-0.004,0-0.007,0l-13.45-0.246c-0.089-0.002-0.175-0.037-0.238-0.102
		c-2.156-2.156-3.359-7.475-2.683-11.862c0.297-1.93,1.083-4.451,3.136-5.52c0.051-0.027,0.1-0.047,0.164-0.039l12.958,0.123
		c0.171,0,0.315,0.125,0.341,0.293c0.051,0.332,0.104,0.668,0.158,1.012c0.64,4.027,1.436,9.038-0.039,16.063
		C100.146,77.004,100.004,77.119,99.84,77.119z M86.541,76.182l13.016,0.236c1.368-6.754,0.597-11.614-0.025-15.532
		c-0.038-0.242-0.076-0.482-0.113-0.721l-12.573-0.119c-1.36,0.752-2.317,2.514-2.694,4.969
		C83.525,69.072,84.617,74.127,86.541,76.182z"/>
	<g>
		<g>
			<path fill="#A1A1A1" d="M55.849,117.598c-25.669,0-46.981-21.643-47.509-48.244c-0.262-13.219,4.552-25.559,13.553-34.741
				c8.555-8.726,19.943-13.53,32.072-13.53c25.669,0,46.98,21.641,47.508,48.243c0.262,13.221-4.551,25.561-13.555,34.74
				C79.365,112.793,67.977,117.598,55.849,117.598z M53.965,22.471c-11.752,0-22.79,4.656-31.08,13.113
				C14.146,44.498,9.473,56.482,9.727,69.326c0.514,25.852,21.203,46.883,46.122,46.883c11.751,0,22.788-4.656,31.079-13.111
				c8.74-8.916,13.413-20.9,13.158-33.744C99.573,43.503,78.882,22.471,53.965,22.471z"/>
		</g>
	</g>
</g>
</svg>
