<?xml version="1.0" encoding="utf-8"?>
<!-- Generator: Adobe Illustrator 16.0.0, SVG Export Plug-In . SVG Version: 6.00 Build 0)  -->
<!DOCTYPE svg PUBLIC "-//W3C//DTD SVG 1.1//EN" "http://www.w3.org/Graphics/SVG/1.1/DTD/svg11.dtd">
<svg version="1.1" id="Layer_1" xmlns="http://www.w3.org/2000/svg" xmlns:xlink="http://www.w3.org/1999/xlink" x="0px" y="0px"
	 width="131px" height="131px" viewBox="0 0 131 131" enable-background="new 0 0 131 131" xml:space="preserve">
<polygon fill="#FFFFFF" points="22.621,41.858 21.696,43.74 21.795,44.496 22.832,43.464 "/>
<polygon fill="#FFFFFF" points="111.195,44.764 111.205,44.764 111.203,44.892 111.19,45.235 111.168,45.574 110.996,44.653 
	110.477,43.837 110.039,43.448 110.061,43.108 110.076,42.768 110.077,42.426 110.069,42.084 110.051,41.743 110.022,41.404 
	109.984,41.061 109.935,40.72 110.466,41.266 110.628,41.433 111.006,42.306 111.016,42.388 111.024,42.388 111.077,42.745 
	111.185,43.882 "/>
<polygon fill="#FFFFFF" points="110.996,44.653 111.168,45.574 111.164,46.188 106.494,46.203 105.178,44.604 103.614,42.339 
	102.279,39.948 101.482,38.195 100.82,36.403 100.516,35.74 99.838,34.915 99.736,34.845 98.536,31.02 98.824,31.018 99.611,31.099 
	100.604,31.47 101.394,32.105 101.891,32.931 102.587,34.587 103.432,36.2 104.51,37.883 105.75,39.48 107.184,41.025 
	108.764,42.455 110.039,43.448 110.477,43.837 "/>
<polygon fill="#FFFFFF" points="111.164,46.188 111.094,46.833 110.988,47.48 110.846,48.123 110.667,48.763 110.45,49.403 
	110.199,50.034 109.913,50.667 109.591,51.292 109.597,50.678 109.544,50.128 109.185,49.187 108.529,48.354 106.775,46.546 
	106.494,46.203 "/>
<g>
	<polygon fill="#FFFFFF" points="111.19,45.235 111.168,45.574 111.164,46.188 111.094,46.833 110.988,47.48 110.846,48.123 
		110.667,48.763 110.45,49.403 110.199,50.034 109.913,50.667 109.591,51.292 109.597,50.678 109.412,51.004 109.22,51.329 
		109.015,51.656 108.802,51.976 108.582,52.295 108.35,52.615 108.107,52.932 107.858,53.248 107.851,53.86 107.349,54.452 
		106.813,55.039 106.244,55.612 105.645,56.184 105.01,56.744 104.346,57.29 103.65,57.831 102.925,58.358 102.929,57.747 
		102.537,58.021 102.136,58.289 101.724,58.557 101.307,58.822 100.881,59.083 100.446,59.341 100.008,59.595 99.557,59.844 
		99.551,60.46 98.676,60.927 97.777,61.38 96.851,61.822 95.899,62.249 94.926,62.662 93.926,63.061 92.906,63.444 91.863,63.811 
		91.87,63.198 91.314,63.387 90.752,63.57 90.185,63.747 89.611,63.923 89.031,64.094 88.451,64.257 87.86,64.419 87.269,64.579 
		87.265,65.189 86.123,65.474 84.967,65.744 83.795,65.996 82.608,66.229 81.412,66.445 80.199,66.645 78.977,66.826 77.745,66.99 
		77.749,66.379 77.098,66.457 76.445,66.531 75.786,66.6 75.127,66.662 74.468,66.723 73.805,66.773 73.14,66.824 72.477,66.869 
		72.469,67.482 71.201,67.551 69.927,67.602 68.651,67.633 67.374,67.646 66.094,67.643 64.816,67.617 63.541,67.578 62.267,67.514 
		62.272,66.9 61.604,66.861 60.936,66.816 60.27,66.768 59.603,66.713 58.94,66.654 58.28,66.588 57.617,66.521 56.962,66.443 
		56.954,67.059 55.711,66.9 54.474,66.727 53.249,66.535 52.032,66.328 50.827,66.1 49.636,65.855 48.46,65.596 47.298,65.316 
		47.305,64.704 46.698,64.549 46.098,64.393 45.502,64.232 44.912,64.064 44.326,63.895 43.744,63.72 43.168,63.541 42.596,63.355 
		42.591,63.969 41.521,63.606 40.469,63.229 39.442,62.835 38.434,62.43 37.451,62.01 36.489,61.575 35.555,61.128 34.645,60.666 
		34.65,60.053 34.184,59.804 33.722,59.554 33.268,59.298 32.82,59.041 32.383,58.779 31.955,58.513 31.529,58.247 31.114,57.975 
		31.11,58.587 30.343,58.064 29.605,57.53 28.898,56.985 28.221,56.429 27.575,55.864 26.962,55.292 26.382,54.709 25.832,54.122 
		25.84,53.507 25.563,53.195 25.299,52.88 25.041,52.564 24.794,52.244 24.557,51.923 24.328,51.6 24.109,51.276 23.902,50.952 
		23.895,51.563 23.524,50.94 23.188,50.313 22.889,49.68 22.624,49.044 22.395,48.405 22.202,47.761 22.044,47.119 21.927,46.472 
		21.931,45.857 21.882,45.517 21.844,45.176 21.814,44.835 21.795,44.496 21.789,44.153 21.789,43.941 21.598,64.862 21.641,65.994 
		21.644,66.004 21.803,67.148 22.08,68.301 22.473,69.445 22.983,70.576 23.604,71.697 23.829,72.037 24.333,72.799 25.176,73.883 
		26.125,74.941 27.176,75.977 28.333,76.982 29.588,77.961 30.939,78.904 32.381,79.811 33.912,80.68 35.527,81.51 37.222,82.298 
		38.995,83.04 40.838,83.737 42.749,84.385 44.719,84.985 46.746,85.53 48.824,86.025 50.949,86.466 53.111,86.849 55.312,87.177 
		57.538,87.449 59.787,87.662 62.056,87.818 64.332,87.913 66.617,87.952 68.898,87.93 71.174,87.849 73.438,87.706 75.683,87.51 
		77.901,87.252 80.09,86.938 82.243,86.569 84.356,86.141 86.421,85.662 88.435,85.129 90.39,84.543 92.279,83.908 94.104,83.223 
		95.857,82.49 97.531,81.715 99.124,80.895 100.631,80.035 102.049,79.137 103.375,78.203 104.602,77.234 105.729,76.234 
		106.756,75.209 107.674,74.154 108.485,73.076 108.651,72.82 109.189,71.98 109.777,70.865 110.254,69.732 110.617,68.594 
		110.861,67.443 110.931,66.814 110.99,66.287 111.012,65.683 111.203,44.892 	"/>
</g>
<g>
	<path fill="#FFFFFF" d="M110.97,68.555l-0.13,1.158l-0.246,1.15l-0.36,1.139l-0.479,1.131l-0.587,1.115l-0.703,1.098l-0.813,1.076
		l-0.919,1.055l-1.024,1.029l-1.128,0.998l-1.227,0.969l-1.326,0.934l-1.418,0.897l-1.507,0.86l-1.592,0.819l-1.676,0.776
		l-1.752,0.732l-1.824,0.684l-1.891,0.635l-1.957,0.586L86.4,87.93l-2.064,0.48l-2.111,0.426l-2.155,0.371l-2.188,0.313l-2.22,0.258
		l-2.245,0.198l-2.263,0.139l-2.274,0.083l-1.358,0.014l-0.926,0.011l-2.283-0.039l-2.276-0.096l-2.269-0.155l-2.25-0.213
		l-2.227-0.272l-2.199-0.326l-2.163-0.386l-2.124-0.441L46.726,87.8l-2.028-0.548l-1.97-0.596l-1.909-0.649l-1.845-0.697
		l-1.772-0.742l-1.695-0.787l-1.615-0.831l-1.53-0.868l-1.441-0.907l-1.353-0.943l-1.255-0.977l-1.157-1.008l-1.051-1.033
		l-0.949-1.061l-0.843-1.082l-0.731-1.105l-0.619-1.117l-0.509-1.133l-0.392-1.145l-0.279-1.152l-0.161-1.152l-0.044-1.137h-0.002
		l-0.107,11.828l0.044,1.125l0.162,1.156l-0.08,8.731l0.383-0.192l-0.003-0.004l2.695-0.808v0.002l0.015-0.006l0.712-0.034
		l0.836,0.271l0.963,0.578l1.06,0.859l1.173,1.166l1.203,1.41l1.2,1.628l1.132,1.797l0.983,1.852l0.829,1.929l0.617,1.912l0.396,1.9
		l0.118,1.075l0.034,1.042L35.79,122.71l1.716,0.767l1.788,0.722l1.858,0.673l1.92,0.627l1.981,0.578l2.033,0.525l2.083,0.475
		l2.126,0.415l2.164,0.367l2.194,0.309l2.223,0.249l2.242,0.195l2.26,0.138l2.266,0.077l2.271,0.019l2.268-0.039l2.258-0.098
		l2.248-0.153l2.225-0.213l2.2-0.272l2.168-0.326l2.131-0.383l2.09-0.438l2.04-0.491l1.988-0.543l1.928-0.593l1.865-0.643
		l1.799-0.691l1.724-0.736l1.649-0.78l1.567-0.824l1.482-0.863l1.392-0.9l1.299-0.936l1.201-0.969l1.104-0.998l1.004-1.028
		l0.895-1.05l0.79-1.075l0.68-1.095l0.569-1.109l0.458-1.126l0.344-1.136l0.231-1.146l0.113-1.15l0.014-0.462l0.355-38.626h-0.016
		L110.97,68.555z M29.288,87.52l-0.243,0.483l-0.086,0.055h-0.004l-0.279,0.172l-0.44-0.064l-0.458-0.345l-0.425-0.586l-0.347-0.765
		l-0.238-0.852l-0.107-0.844l0.034-0.736l0.166-0.546l0.29-0.298l0.371-0.021h0.016l0.445,0.264l0.456,0.511l0.411,0.704
		l0.318,0.823l0.18,0.848l0.029,0.509L29.288,87.52z"/>
</g>
<polygon fill="#FFFFFF" points="110.359,40.887 110.491,41.24 110.466,41.266 109.935,40.72 108.084,39.238 107.498,38.667 
	109.088,38.366 109.459,38.991 109.795,39.62 110.094,40.25 "/>
<polygon fill="#FFFFFF" points="110.069,42.084 110.077,42.426 110.076,42.768 110.061,43.108 110.039,43.448 108.764,42.455 
	107.184,41.025 105.75,39.48 104.51,37.883 103.432,36.2 102.587,34.587 101.891,32.931 101.923,32.59 101.941,32.251 
	101.949,31.909 101.941,31.569 101.921,31.227 101.889,30.888 101.844,30.545 101.787,30.205 102.484,31.871 103.326,33.474 
	104.739,35.616 106.391,37.593 107.498,38.667 108.084,39.238 109.935,40.72 109.984,41.061 110.022,41.404 110.051,41.743 "/>
<polygon fill="#FFFFFF" points="109.544,50.128 109.597,50.678 109.412,51.004 109.22,51.329 109.015,51.656 108.802,51.976 
	108.582,52.295 108.35,52.615 108.107,52.932 107.858,53.248 107.694,52.293 107.203,51.388 106.79,50.921 107.041,50.607 
	107.283,50.291 107.516,49.972 107.736,49.652 107.949,49.33 108.152,49.005 108.346,48.678 108.529,48.354 109.185,49.187 "/>
<polygon fill="#FFFFFF" points="108.932,36.866 109.092,37.754 109.088,38.366 107.498,38.667 106.391,37.593 104.739,35.616 
	103.326,33.474 102.484,31.871 101.787,30.205 101.594,29.847 101.861,29.706 101.872,29.726 101.882,29.738 102.028,29.953 
	102.886,31.229 104.04,32.609 105.376,33.904 106.851,35.058 108.041,35.827 108.449,36.139 "/>
<polygon fill="#FFFFFF" points="106.775,46.546 108.529,48.354 108.346,48.678 108.152,49.005 107.949,49.33 107.736,49.652 
	107.516,49.972 107.283,50.291 107.041,50.607 106.79,50.921 105.581,49.704 104.086,47.997 102.73,46.203 101.56,44.387 
	100.539,42.514 99.74,40.753 99.082,38.972 99.343,38.658 99.588,38.343 99.826,38.028 100.048,37.705 100.26,37.382 
	100.459,37.059 100.645,36.734 100.82,36.403 101.482,38.195 102.279,39.948 103.614,42.339 105.178,44.604 106.494,46.203 "/>
<polygon fill="#FFFFFF" points="107.694,52.293 107.858,53.248 107.851,53.86 100.416,52.519 95.905,36.472 96.181,36.523 
	96.926,36.74 97.867,37.288 98.613,38.058 99.082,38.972 99.74,40.753 100.539,42.514 101.56,44.387 102.73,46.203 104.086,47.997 
	105.581,49.704 106.79,50.921 107.203,51.388 "/>
<polygon fill="#FFFFFF" points="107.851,53.86 107.349,54.452 106.813,55.039 106.244,55.612 105.645,56.184 105.01,56.744 
	104.346,57.29 103.65,57.831 102.925,58.358 102.929,57.747 102.888,57.186 102.594,56.186 102.055,55.247 100.617,53.151 
	100.311,52.638 100.316,52.634 100.416,52.519 "/>
<polygon fill="#FFFFFF" points="102.888,57.186 102.929,57.747 102.537,58.021 102.136,58.289 101.724,58.557 101.307,58.822 
	100.881,59.083 100.446,59.341 100.008,59.595 99.557,59.844 99.422,58.865 99.021,57.879 98.68,57.345 99.13,57.093 99.572,56.84 
	100.008,56.583 100.434,56.323 100.85,56.058 101.262,55.789 101.663,55.519 102.055,55.247 102.594,56.186 "/>
<polygon fill="#FFFFFF" points="100.617,53.151 102.055,55.247 101.663,55.519 101.262,55.789 100.85,56.058 100.434,56.323 
	100.008,56.583 99.572,56.84 99.13,57.093 98.68,57.345 97.688,55.93 96.461,53.98 95.35,51.963 94.389,49.957 93.551,47.917 
	92.898,46.028 92.358,44.133 92.813,43.886 93.261,43.634 93.699,43.376 94.125,43.117 94.543,42.853 94.948,42.583 95.346,42.308 
	95.731,42.034 96.274,43.934 96.925,45.817 98.019,48.425 99.303,50.95 100.311,52.638 "/>
<polygon fill="#FFFFFF" points="101.941,31.569 101.949,31.909 101.941,32.251 101.923,32.59 101.891,32.931 101.394,32.105 
	100.604,31.47 99.611,31.099 98.824,31.018 98.861,30.677 98.883,30.336 98.891,29.994 98.885,29.654 98.863,29.313 98.829,28.973 
	98.781,28.631 98.719,28.291 99.795,28.446 100.744,28.898 101.463,29.598 101.594,29.847 101.787,30.205 101.844,30.545 
	101.889,30.888 101.921,31.227 "/>
<polygon fill="#FFFFFF" points="101.096,28.279 101.872,29.726 101.861,29.706 101.594,29.847 101.463,29.598 100.744,28.898 
	99.795,28.446 98.719,28.291 98.479,28.293 98.479,28.291 97.646,25.658 97.555,25.367 97.587,25.361 98.321,25.306 99.248,25.504 
	99.982,26.002 100.241,26.42 100.444,26.742 "/>
<polygon fill="#FFFFFF" points="100.516,35.74 100.82,36.403 100.645,36.734 100.459,37.059 100.26,37.382 100.048,37.705 
	99.826,38.028 99.588,38.343 99.343,38.658 99.082,38.972 98.613,38.058 97.867,37.288 96.926,36.74 96.181,36.523 96.445,36.21 
	96.696,35.895 96.933,35.578 97.157,35.257 97.367,34.935 97.565,34.61 97.75,34.282 97.92,33.953 98.936,34.295 99.736,34.845 
	99.838,34.915 "/>
<polygon fill="#FFFFFF" points="95.905,36.472 100.416,52.519 100.316,52.634 100.311,52.638 99.303,50.95 98.019,48.425 
	96.925,45.817 96.274,43.934 95.731,42.034 95.479,41.319 94.924,40.384 94.184,39.617 93.346,39.11 93.12,39.016 92.74,39.294 
	92.345,39.57 91.939,39.838 91.523,40.102 91.096,40.366 90.656,40.622 90.207,40.872 89.748,41.118 93.434,57.916 92.784,58.253 
	92.121,58.583 91.439,58.906 90.748,59.213 90.74,59.216 90.347,58.259 89.477,55.862 88.633,53.151 87.911,50.375 87.483,48.394 
	87.129,46.414 86.965,45.664 86.598,44.645 86.106,43.769 85.553,43.14 85.402,43.012 84.855,43.206 84.297,43.395 83.731,43.574 
	83.158,43.75 82.582,43.92 81.992,44.085 81.399,44.242 80.799,44.393 82.629,57.624 83.2,61.75 82.36,61.954 81.509,62.148 
	80.651,62.329 79.782,62.5 78.902,62.66 78.019,62.807 77.443,62.896 77.437,62.896 77.201,61.256 76.887,58.753 76.583,55.937 
	76.325,53.076 76.176,51.043 76.052,49.017 75.995,48.247 75.863,47.183 75.683,46.249 75.474,45.553 75.419,45.411 74.769,45.497 
	74.117,45.574 73.462,45.647 72.803,45.711 72.142,45.767 71.479,45.821 70.813,45.864 70.145,45.9 70.951,63.56 70.021,63.606 
	69.088,63.639 68.154,63.659 67.22,63.667 66.283,63.666 65.348,63.649 64.413,63.622 63.479,63.583 64.375,45.918 63.705,45.887 
	63.034,45.846 62.369,45.8 61.703,45.748 61.038,45.687 60.377,45.618 59.719,45.544 59.065,45.462 59.02,45.606 58.897,46.084 
	58.74,46.958 58.611,47.993 58.525,49.074 58.4,51.093 58.254,53.134 58.069,55.367 57.861,57.593 57.625,59.867 57.363,62.099 
	57.251,63.006 57.242,63.006 56.354,62.876 55.457,62.734 54.567,62.583 53.688,62.415 52.813,62.24 51.949,62.051 51.093,61.852 
	53.604,44.476 52.993,44.332 52.387,44.178 51.789,44.018 51.194,43.854 50.608,43.68 50.031,43.503 49.462,43.321 48.896,43.127 
	48.757,43.255 48.375,43.686 47.891,44.504 47.502,45.489 47.25,46.541 46.889,48.519 46.461,50.509 45.914,52.677 45.297,54.83 
	44.585,57.016 43.801,59.153 43.664,59.496 43.652,59.49 43.355,59.368 42.635,59.06 41.93,58.745 41.238,58.417 40.566,58.085 
	44.402,41.261 43.926,41.017 43.456,40.771 43,40.519 42.549,40.26 42.114,39.998 41.688,39.731 41.271,39.459 40.868,39.183 
	40.648,39.279 40.057,39.622 39.301,40.325 38.696,41.222 38.309,42.215 37.759,44.109 37.094,46.007 36.254,48.051 35.297,50.066 
	34.191,52.087 33.548,53.129 33.533,53.12 33.164,52.733 37.885,36.657 37.597,36.348 37.321,36.034 37.062,35.717 36.811,35.399 
	36.574,35.078 36.351,34.754 36.143,34.427 35.946,34.101 35.679,34.152 34.94,34.376 34.008,34.924 33.391,35.568 34.834,31.223 
	34.77,30.883 34.721,30.541 34.687,30.2 34.666,29.857 34.66,29.518 34.668,29.176 34.688,28.835 34.728,28.494 34.551,28.496 
	35.527,25.594 35.699,25.087 35.449,25.973 35.293,26.939 35.252,27.909 35.33,28.882 35.523,29.85 35.834,30.809 36.254,31.762 
	36.794,32.696 37.438,33.615 38.197,34.512 39.059,35.387 40.024,36.231 41.087,37.043 42.246,37.829 43.496,38.572 44.832,39.277 
	46.248,39.94 47.743,40.559 49.307,41.13 50.933,41.652 52.619,42.124 54.357,42.543 56.143,42.909 57.964,43.217 59.819,43.469 
	61.703,43.667 63.601,43.801 65.514,43.88 67.427,43.9 69.339,43.858 71.243,43.756 73.127,43.6 74.986,43.383 76.816,43.11 
	78.609,42.779 80.355,42.393 82.053,41.955 83.691,41.462 85.267,40.921 86.773,40.333 88.205,39.7 89.557,39.019 90.823,38.297 
	91.998,37.54 93.083,36.746 94.065,35.92 94.946,35.062 95.721,34.18 96.391,33.274 96.95,32.349 97.395,31.407 97.723,30.453 
	97.939,29.489 98.037,28.519 98.019,27.549 97.883,26.579 97.646,25.658 98.479,28.291 98.479,28.293 98.431,28.293 98.491,28.633 
	98.542,28.973 98.576,29.313 98.597,29.654 98.601,29.998 98.595,30.336 98.572,30.677 98.536,31.02 99.736,34.845 98.936,34.295 
	97.92,33.953 97.646,33.906 97.477,34.233 97.291,34.559 97.095,34.884 96.883,35.208 96.659,35.527 96.423,35.845 96.172,36.16 "/>
<polygon fill="#FFFFFF" points="99.422,58.865 99.557,59.844 99.551,60.46 93.434,57.916 89.748,41.118 89.974,41.211 
	90.586,41.548 91.359,42.248 91.971,43.142 92.358,44.133 92.898,46.028 93.551,47.917 94.389,49.957 95.35,51.963 96.461,53.98 
	97.688,55.93 98.68,57.345 99.021,57.879 "/>
<polygon fill="#FFFFFF" points="99.551,60.46 98.676,60.927 97.777,61.38 96.851,61.822 95.899,62.249 94.926,62.662 93.926,63.061 
	92.906,63.444 91.863,63.811 91.87,63.198 91.842,62.632 91.65,61.589 91.296,60.567 90.74,59.216 90.748,59.213 91.439,58.906 
	92.121,58.583 92.784,58.253 93.434,57.916 "/>
<polygon fill="#FFFFFF" points="98.019,27.549 98.037,28.519 97.939,29.489 97.723,30.453 97.395,31.407 96.95,32.349 
	96.391,33.274 95.721,34.18 94.946,35.062 94.065,35.92 93.083,36.746 91.998,37.54 90.823,38.297 89.557,39.019 88.205,39.7 
	86.773,40.333 85.267,40.921 83.691,41.462 82.053,41.955 80.355,42.393 78.609,42.779 76.816,43.11 74.986,43.383 73.127,43.6 
	71.243,43.756 69.339,43.858 67.427,43.9 65.514,43.88 63.601,43.801 61.703,43.667 59.819,43.469 57.964,43.217 56.143,42.909 
	54.357,42.543 52.619,42.124 50.933,41.652 49.307,41.13 47.743,40.559 46.248,39.94 44.832,39.277 43.496,38.572 42.246,37.829 
	41.087,37.043 40.024,36.231 39.059,35.387 38.197,34.512 37.438,33.615 36.794,32.696 36.254,31.762 35.834,30.809 35.523,29.85 
	35.33,28.882 35.252,27.909 35.293,26.939 35.449,25.973 35.699,25.087 35.836,24.669 36.418,22.945 39.205,14.665 39.013,15.338 
	38.852,16.25 38.809,17.167 38.885,18.084 39.075,19 39.383,19.906 39.806,20.802 40.341,21.683 40.986,22.543 41.742,23.383 
	42.6,24.197 43.561,24.982 44.619,25.733 45.77,26.449 47.009,27.127 48.33,27.763 49.728,28.354 51.197,28.9 52.733,29.397 
	54.326,29.841 55.973,30.234 57.664,30.572 59.392,30.855 61.152,31.079 62.937,31.245 64.736,31.352 66.545,31.402 68.354,31.392 
	70.156,31.32 71.943,31.194 73.709,31.003 75.445,30.76 77.145,30.456 78.804,30.1 80.408,29.687 81.957,29.224 83.441,28.708 
	84.857,28.147 86.195,27.538 87.453,26.888 88.623,26.196 89.702,25.466 90.686,24.702 91.567,23.908 92.345,23.084 93.016,22.235 
	93.575,21.365 94.023,20.479 94.358,19.582 94.577,18.671 94.677,17.753 94.66,16.837 94.528,15.922 94.33,15.171 96.743,22.803 
	97.512,25.237 97.555,25.367 97.646,25.658 97.883,26.579 "/>
<polygon fill="#FFFFFF" points="95.479,41.319 95.731,42.034 95.346,42.308 94.948,42.583 94.543,42.853 94.125,43.117 
	93.699,43.376 93.261,43.634 92.813,43.886 92.358,44.133 91.971,43.142 91.359,42.248 90.586,41.548 89.974,41.211 90.432,40.965 
	90.883,40.714 91.32,40.458 91.748,40.198 92.164,39.931 92.571,39.662 92.965,39.388 93.346,39.11 94.184,39.617 94.924,40.384 "/>
<path fill="#FFFFFF" d="M94.66,16.837l0.017,0.917l-0.1,0.917l-0.219,0.91l-0.335,0.899l-0.448,0.886l-0.56,0.87l-0.671,0.848
	l-0.777,0.824l-0.882,0.794l-0.983,0.764l-1.079,0.73l-1.17,0.691l-1.258,0.65l-1.338,0.609l-1.416,0.562l-1.484,0.517l-1.549,0.463
	l-1.604,0.413l-1.659,0.357l-1.699,0.302l-1.738,0.244l-1.764,0.189l-1.787,0.128l-1.803,0.071l-1.811,0.011l-1.807-0.05l-1.8-0.107
	l-1.784-0.166l-1.761-0.223l-1.728-0.283l-1.691-0.338l-1.646-0.393l-1.593-0.445l-1.536-0.498l-1.47-0.544l-1.398-0.592
	l-1.32-0.636l-1.239-0.678l-1.149-0.716l-1.06-0.75L42.6,24.199l-0.857-0.815l-0.756-0.84l-0.646-0.86l-0.535-0.88l-0.423-0.897
	l-0.308-0.905l-0.192-0.915l-0.075-0.917l0.044-0.917l0.158-0.912l0.195-0.673h0.009l0.06-0.199l0.415-0.997l0.53-0.981l0.641-0.96
	l0.749-0.931l0.851-0.894l0.949-0.851l1.035-0.808l1.121-0.757l1.195-0.707l1.268-0.657l1.33-0.604l1.387-0.555l1.444-0.502
	l1.492-0.45l1.537-0.397l1.576-0.341l1.61-0.29l1.639-0.234l1.66-0.183l1.68-0.125l1.69-0.071l1.697-0.017l1.698,0.04l1.691,0.096
	l1.678,0.148L73.5,2.645l1.641,0.258l1.61,0.313l1.578,0.367L79.866,4l1.493,0.472l1.441,0.522l1.385,0.568l1.324,0.623l1.258,0.67
	l1.185,0.72l1.103,0.762l1.017,0.801l0.922,0.838l0.823,0.867l0.726,0.892l0.623,0.915l0.521,0.936l0.422,0.949l0.196,0.586
	l0.017,0.008l0.011,0.042l0.197,0.751L94.66,16.837z M92.411,15.642l-0.034-0.879l-0.152-0.878l-0.269-0.87l-0.38-0.859
	l-0.496-0.845l-0.607-0.828l-0.714-0.806l-0.819-0.78l-0.923-0.751l-1.018-0.718l-1.107-0.682l-1.198-0.644l-1.276-0.601
	l-1.356-0.557l-1.426-0.511l-1.487-0.46l-1.544-0.409l-1.595-0.353l-1.637-0.302l-1.67-0.244L71.004,2.48l-1.718-0.128l-1.729-0.068
	l-1.732-0.009l-1.726,0.05l-1.72,0.109l-1.695,0.167l-1.667,0.225l-1.635,0.282l-1.59,0.338l-1.541,0.392l-1.482,0.444l-1.42,0.495
	L50,5.32l-1.273,0.587l-1.188,0.632L46.435,7.21l-1.012,0.708L44.51,8.657l-0.809,0.77l-0.706,0.799l-0.599,0.821l-0.484,0.84
	l-0.372,0.856l-0.259,0.867l-0.142,0.876l-0.024,0.879l0.094,0.878l0.209,0.875l0.324,0.865l0.441,0.853l0.55,0.837l0.661,0.817
	l0.767,0.792l0.87,0.766l0.971,0.735l1.062,0.701l1.155,0.664l1.238,0.623l1.32,0.58l1.389,0.533l1.458,0.484l1.517,0.435
	l1.57,0.381l1.616,0.329l1.653,0.272L61.667,28l1.71,0.156l1.726,0.098l1.731,0.04l1.729-0.021l1.726-0.078l1.708-0.139l1.683-0.196
	l1.649-0.255l1.613-0.311l1.566-0.366l1.513-0.417l1.452-0.47l1.383-0.518l1.313-0.566l1.232-0.608l1.146-0.653l1.059-0.689
	l0.96-0.722l0.862-0.758l0.759-0.785l0.651-0.81l0.542-0.831l0.429-0.849l0.316-0.863l0.197-0.871L92.411,15.642z"/>
<polygon fill="#FFFFFF" points="92.377,14.762 92.411,15.642 92.326,16.517 92.129,17.389 91.813,18.25 91.385,19.1 90.842,19.931 
	90.19,20.74 89.43,21.525 88.568,22.284 87.607,23.006 86.553,23.694 85.403,24.348 84.172,24.957 82.859,25.523 81.477,26.04 
	80.024,26.51 78.512,26.928 76.946,27.293 75.333,27.604 73.683,27.859 72,28.056 70.292,28.195 68.566,28.273 66.838,28.293 
	65.106,28.254 63.382,28.156 61.672,28 59.986,27.784 58.332,27.513 56.717,27.183 55.146,26.802 53.63,26.367 52.172,25.883 
	50.783,25.35 49.463,24.771 48.224,24.147 47.069,23.482 46.007,22.783 45.037,22.048 44.166,21.282 43.398,20.489 42.738,19.672 
	42.188,18.835 41.746,17.982 41.423,17.118 41.213,16.243 41.119,15.365 41.145,14.486 41.285,13.61 41.545,12.744 41.914,11.888 
	42.402,11.047 43,10.226 43.705,9.428 44.515,8.658 45.427,7.918 46.438,7.211 47.54,6.541 48.729,5.908 50.002,5.321 51.351,4.778 
	52.771,4.283 54.253,3.839 55.792,3.447 57.383,3.109 59.018,2.827 60.686,2.602 62.379,2.435 64.099,2.325 65.824,2.275 
	67.557,2.284 69.286,2.353 71.004,2.48 72.702,2.666 74.372,2.909 76.009,3.21 77.604,3.564 79.148,3.972 80.635,4.434 
	82.061,4.944 83.417,5.501 84.695,6.101 85.893,6.745 87.001,7.427 88.019,8.146 88.941,8.896 89.761,9.677 90.474,10.482 
	91.081,11.31 91.576,12.155 91.957,13.014 92.227,13.885 "/>
<polygon fill="#FFFFFF" points="91.842,62.632 91.87,63.198 91.314,63.387 90.752,63.57 90.185,63.747 89.611,63.923 89.031,64.094 
	88.451,64.257 87.86,64.419 87.269,64.579 87.184,63.577 86.918,62.53 86.692,61.946 87.289,61.79 87.878,61.627 88.459,61.461 
	89.039,61.292 89.611,61.117 90.178,60.94 90.74,60.753 91.296,60.567 91.65,61.589 "/>
<polygon fill="#FFFFFF" points="90.74,59.216 91.296,60.567 90.74,60.753 90.178,60.94 89.611,61.117 89.039,61.292 88.459,61.461 
	87.878,61.627 87.289,61.79 86.692,61.946 86.039,60.384 85.227,58.25 84.494,56.071 83.859,53.92 83.31,51.754 82.88,49.767 
	82.527,47.792 83.125,47.64 83.715,47.482 84.302,47.317 84.881,47.148 85.453,46.973 86.018,46.792 86.577,46.606 87.129,46.414 
	87.483,48.394 87.911,50.375 88.633,53.151 89.477,55.862 90.347,58.259 "/>
<polygon fill="#FFFFFF" points="87.184,63.577 87.269,64.579 87.265,65.189 83.2,61.75 82.629,57.624 80.799,44.393 80.95,44.517 
	81.356,44.947 81.87,45.759 82.273,46.742 82.527,47.792 82.88,49.767 83.31,51.754 83.859,53.92 84.494,56.071 85.227,58.25 
	86.039,60.384 86.692,61.946 86.918,62.53 "/>
<polygon fill="#FFFFFF" points="87.265,65.189 86.123,65.474 84.967,65.744 83.795,65.996 82.608,66.229 81.412,66.445 
	80.199,66.645 78.977,66.826 77.745,66.99 77.749,66.379 77.743,65.807 77.676,64.74 77.549,63.676 77.437,62.896 77.443,62.896 
	78.019,62.807 78.902,62.66 79.782,62.5 80.651,62.329 81.509,62.148 82.36,61.954 83.2,61.75 "/>
<polygon fill="#FFFFFF" points="86.965,45.664 87.129,46.414 86.577,46.606 86.018,46.792 85.453,46.973 84.881,47.148 
	84.302,47.317 83.715,47.482 83.125,47.64 82.527,47.792 82.273,46.742 81.87,45.759 81.356,44.947 80.95,44.517 81.55,44.367 
	82.144,44.208 82.729,44.048 83.31,43.878 83.882,43.704 84.445,43.521 85.003,43.333 85.553,43.14 86.106,43.769 86.598,44.645 "/>
<polygon fill="#FFFFFF" points="77.743,65.807 77.749,66.379 77.098,66.457 76.445,66.531 75.786,66.6 75.127,66.662 74.468,66.723 
	73.805,66.773 73.14,66.824 72.477,66.869 72.45,65.855 72.354,64.777 72.273,64.167 72.938,64.124 73.604,64.073 74.265,64.021 
	74.926,63.961 75.586,63.898 76.241,63.83 76.896,63.754 77.549,63.676 77.676,64.74 "/>
<polygon fill="#FFFFFF" points="77.437,62.896 77.549,63.676 76.896,63.754 76.241,63.83 75.586,63.898 74.926,63.961 
	74.265,64.021 73.604,64.073 72.938,64.124 72.273,64.167 72.032,62.526 71.739,60.295 71.475,58.025 71.245,55.797 71.051,53.568 
	70.898,51.528 70.779,49.507 71.444,49.467 72.111,49.422 72.772,49.372 73.435,49.313 74.095,49.249 74.75,49.178 75.402,49.102 
	76.052,49.017 76.176,51.043 76.325,53.076 76.583,55.937 76.887,58.753 77.201,61.256 "/>
<polygon fill="#FFFFFF" points="75.995,48.247 76.052,49.017 75.402,49.102 74.75,49.178 74.095,49.249 73.435,49.313 
	72.772,49.372 72.111,49.422 71.444,49.467 70.779,49.507 70.688,48.429 70.539,47.396 70.352,46.521 70.199,46.044 70.868,46.007 
	71.533,45.965 72.198,45.915 72.859,45.854 73.517,45.791 74.174,45.717 74.826,45.64 75.474,45.553 75.683,46.249 75.863,47.183 
	"/>
<polygon fill="#FFFFFF" points="72.45,65.855 72.477,66.869 72.469,67.482 70.951,63.56 70.145,45.9 70.199,46.044 70.352,46.521 
	70.539,47.396 70.688,48.429 70.779,49.507 70.898,51.528 71.051,53.568 71.245,55.797 71.475,58.025 71.739,60.295 72.032,62.526 
	72.273,64.167 72.354,64.777 "/>
<polygon fill="#FFFFFF" points="70.951,63.56 72.469,67.482 71.201,67.551 69.927,67.602 68.651,67.633 67.374,67.646 
	66.094,67.643 64.816,67.617 63.541,67.578 62.267,67.514 63.479,63.583 64.413,63.622 65.348,63.649 66.283,63.666 67.22,63.667 
	68.154,63.659 69.088,63.639 70.021,63.606 "/>
<polygon fill="#FFFFFF" points="64.375,45.918 63.479,63.583 62.267,67.514 62.272,66.9 62.285,66.33 62.354,65.261 62.468,64.197 
	62.771,61.773 63.048,59.271 63.324,56.453 63.564,53.591 63.713,51.557 63.839,49.53 63.892,48.757 64.012,47.693 64.164,46.76 
	64.33,46.062 "/>
<polygon fill="#FFFFFF" points="64.33,46.062 64.164,46.76 64.012,47.693 63.892,48.757 63.839,49.53 63.168,49.496 62.498,49.455 
	61.832,49.407 61.166,49.352 60.502,49.292 59.841,49.224 59.183,49.153 58.525,49.074 58.611,47.993 58.74,46.958 58.897,46.084 
	59.02,45.606 59.674,45.689 60.332,45.763 60.994,45.829 61.657,45.891 62.324,45.945 62.991,45.992 63.66,46.03 "/>
<polygon fill="#FFFFFF" points="63.839,49.53 63.713,51.557 63.564,53.591 63.324,56.453 63.048,59.271 62.771,61.773 
	62.468,64.197 61.8,64.158 61.132,64.116 60.467,64.064 59.799,64.01 59.139,63.949 58.477,63.887 57.814,63.815 57.158,63.741 
	57.251,63.006 57.363,62.099 57.625,59.867 57.861,57.593 58.069,55.367 58.254,53.134 58.4,51.093 58.525,49.074 59.183,49.153 
	59.841,49.224 60.502,49.292 61.166,49.352 61.832,49.407 62.498,49.455 63.168,49.496 "/>
<polygon fill="#FFFFFF" points="62.468,64.197 62.354,65.261 62.285,66.33 62.272,66.9 61.604,66.861 60.936,66.816 60.27,66.768 
	59.603,66.713 58.94,66.654 58.28,66.588 57.617,66.521 56.962,66.443 56.996,65.431 57.086,64.353 57.158,63.741 57.814,63.815 
	58.477,63.887 59.139,63.949 59.799,64.01 60.467,64.064 61.132,64.116 61.8,64.158 "/>
<polygon fill="#FFFFFF" points="57.251,63.006 57.158,63.741 57.086,64.353 56.996,65.431 56.962,66.443 56.954,67.059 55.711,66.9 
	54.474,66.727 53.249,66.535 52.032,66.328 50.827,66.1 49.636,65.855 48.46,65.596 47.298,65.316 51.093,61.852 51.949,62.051 
	52.813,62.24 53.688,62.415 54.567,62.583 55.457,62.734 56.354,62.876 57.242,63.006 "/>
<polygon fill="#FFFFFF" points="53.604,44.476 51.093,61.852 47.298,65.316 47.305,64.704 47.34,64.138 47.534,63.093 
	47.879,62.068 48.791,59.757 49.632,57.352 50.456,54.636 51.168,51.858 51.596,49.873 51.957,47.889 52.121,47.137 52.477,46.115 
	52.942,45.239 53.464,44.604 "/>
<polygon fill="#FFFFFF" points="53.464,44.604 52.942,45.239 52.477,46.115 52.121,47.137 51.957,47.889 51.349,47.743 
	50.742,47.587 50.146,47.427 49.554,47.261 48.968,47.088 48.388,46.91 47.816,46.729 47.25,46.541 47.502,45.489 47.891,44.504 
	48.375,43.686 48.757,43.255 49.318,43.448 49.893,43.628 50.471,43.808 51.057,43.982 51.648,44.146 52.247,44.306 52.852,44.458 
	"/>
<polygon fill="#FFFFFF" points="51.957,47.889 51.596,49.873 51.168,51.858 50.456,54.636 49.632,57.352 48.791,59.757 
	47.879,62.068 47.272,61.916 46.672,61.76 46.076,61.599 45.483,61.432 44.897,61.262 44.317,61.085 43.74,60.904 43.17,60.719 
	43.664,59.496 43.801,59.153 44.585,57.016 45.297,54.83 45.914,52.677 46.461,50.509 46.889,48.519 47.25,46.541 47.816,46.729 
	48.388,46.91 48.968,47.088 49.554,47.261 50.146,47.427 50.742,47.587 51.349,47.743 "/>
<polygon fill="#FFFFFF" points="47.879,62.068 47.534,63.093 47.34,64.138 47.305,64.704 46.698,64.549 46.098,64.393 
	45.502,64.232 44.912,64.064 44.326,63.895 43.744,63.72 43.168,63.541 42.596,63.355 42.693,62.353 42.953,61.307 43.17,60.719 
	43.74,60.904 44.317,61.085 44.897,61.262 45.483,61.432 46.076,61.599 46.672,61.76 47.272,61.916 "/>
<polygon fill="#FFFFFF" points="44.402,41.261 40.566,58.085 34.645,60.666 34.65,60.053 34.702,59.492 35.002,58.492 
	35.535,57.546 36.956,55.445 38.256,53.231 39.531,50.703 40.631,48.086 41.29,46.196 41.846,44.293 42.099,43.578 42.65,42.638 
	43.375,41.869 44.186,41.357 "/>
<polygon fill="#FFFFFF" points="44.186,41.357 43.375,41.869 42.65,42.638 42.099,43.578 41.846,44.293 41.371,44.05 40.902,43.801 
	40.446,43.545 40,43.288 39.561,43.028 39.134,42.76 38.717,42.489 38.309,42.215 38.696,41.222 39.301,40.325 40.057,39.622 
	40.648,39.279 41.053,39.554 41.471,39.827 41.896,40.092 42.333,40.353 42.78,40.611 43.238,40.865 43.707,41.114 "/>
<polygon fill="#FFFFFF" points="43.664,59.496 43.17,60.719 42.953,61.307 42.693,62.353 42.596,63.355 42.591,63.969 
	41.521,63.606 40.469,63.229 39.442,62.835 38.434,62.43 37.451,62.01 36.489,61.575 35.555,61.128 34.645,60.666 40.566,58.085 
	41.238,58.417 41.93,58.745 42.635,59.06 43.355,59.368 43.652,59.49 "/>
<polygon fill="#FFFFFF" points="41.846,44.293 41.29,46.196 40.631,48.086 39.531,50.703 38.256,53.231 36.956,55.445 
	35.535,57.546 35.066,57.299 34.605,57.049 34.151,56.793 33.706,56.535 33.268,56.272 32.837,56.008 32.415,55.738 32,55.468 
	32.979,54.048 33.548,53.129 34.191,52.087 35.297,50.066 36.254,48.051 37.094,46.007 37.759,44.109 38.309,42.215 38.717,42.489 
	39.134,42.76 39.561,43.028 40,43.288 40.446,43.545 40.902,43.801 41.371,44.05 "/>
<polygon fill="#FFFFFF" points="37.885,36.657 33.164,52.733 25.832,54.122 25.84,53.507 25.901,52.958 26.271,52.012 26.93,51.175 
	28.685,49.357 30.293,47.404 31.867,45.129 33.223,42.729 34.037,40.972 34.719,39.176 35.031,38.512 35.714,37.683 36.609,37.057 
	37.614,36.71 "/>
<polygon fill="#FFFFFF" points="37.327,36.399 37.614,36.71 36.609,37.057 35.714,37.683 35.031,38.512 34.719,39.176 
	34.436,38.865 34.166,38.554 33.902,38.236 33.656,37.916 33.418,37.595 33.195,37.274 32.982,36.947 32.782,36.62 33.261,35.704 
	33.391,35.57 33.391,35.568 34.008,34.924 34.94,34.376 35.679,34.152 35.874,34.48 36.082,34.805 36.305,35.129 36.54,35.45 
	36.791,35.769 37.051,36.084 "/>
<polygon fill="#FFFFFF" points="35.905,105.306 35.939,106.348 33.063,107.21 32.985,105.652 32.637,103.626 32.051,101.629 
	31.237,99.611 30.277,97.717 29.203,95.94 28.087,94.358 26.92,92.933 25.807,91.763 24.685,90.795 23.685,90.146 22.752,89.787 
	21.976,89.775 21.973,89.771 24.668,88.964 24.668,88.968 24.683,88.962 25.395,88.928 26.229,89.197 27.193,89.775 28.253,90.635 
	29.426,91.801 30.629,93.213 31.829,94.841 32.959,96.636 33.944,98.489 34.773,100.418 35.391,102.33 35.787,104.23 "/>
<polygon fill="#FFFFFF" points="35.939,106.348 35.79,122.71 32.912,123.571 33.063,107.21 "/>
<polygon fill="#FFFFFF" points="35.535,57.546 35.002,58.492 34.702,59.492 34.65,60.053 34.184,59.804 33.722,59.554 
	33.268,59.298 32.82,59.041 32.383,58.779 31.955,58.513 31.529,58.247 31.114,57.975 31.262,56.993 31.663,56.004 32,55.468 
	32.415,55.738 32.837,56.008 33.268,56.272 33.706,56.535 34.151,56.793 34.605,57.049 35.066,57.299 "/>
<polygon fill="#FFFFFF" points="34.436,38.865 34.719,39.176 34.037,40.972 33.223,42.729 31.867,45.129 30.293,47.404 
	28.685,49.357 26.93,51.175 26.654,50.863 26.389,50.548 26.131,50.232 25.885,49.913 25.648,49.591 25.419,49.267 25.199,48.944 
	24.993,48.621 26.201,47.396 27.021,46.454 27.023,46.454 27.7,45.677 29.065,43.875 30.25,42.051 31.285,40.173 32.104,38.41 
	32.782,36.62 32.982,36.947 33.195,37.274 33.418,37.595 33.656,37.916 33.902,38.236 34.166,38.554 "/>
<polygon fill="#FFFFFF" points="34.482,30.883 34.544,31.223 33.466,31.385 32.506,31.844 31.775,32.548 31.439,33.156 
	31.383,32.815 31.338,32.475 31.306,32.135 31.285,31.792 31.277,31.454 31.285,31.111 31.304,30.77 31.336,30.427 31.421,30.293 
	31.85,29.601 32.65,28.961 33.648,28.583 34.436,28.496 34.402,28.835 34.381,29.178 34.372,29.518 34.381,29.86 34.397,30.2 
	34.432,30.543 "/>
<polygon fill="#FFFFFF" points="33.548,53.129 32.979,54.048 32,55.468 31.663,56.004 31.262,56.993 31.114,57.975 31.11,58.587 
	30.343,58.064 29.605,57.53 28.898,56.985 28.221,56.429 27.575,55.864 26.962,55.292 26.382,54.709 25.832,54.122 33.164,52.733 
	33.533,53.12 "/>
<path fill="#FFFFFF" d="M32.985,105.652l0.077,1.558l-0.15,16.361l-1.813-0.933l-1.714-0.979l-1.608-1.026l-1.5-1.068l-1.387-1.104
	l-1.269-1.142l-1.146-1.177l-1.022-1.198l-0.895-1.229l-0.765-1.247l0.151-16.362l0.063-1.689l0.168-1.509l0.265-1.213l0.383-0.953
	l0.502-0.639l0.268-0.134l0.384-0.192l0.774,0.01l0.934,0.359l0.999,0.65l1.122,0.968l1.113,1.17l1.167,1.426l1.116,1.582
	l1.076,1.774l0.959,1.895l0.813,2.02l0.587,1.995L32.985,105.652z M31.641,106.487l-0.055-1.23l-0.264-1.686l-0.463-1.718
	l-0.639-1.697l-0.782-1.645l-0.869-1.513l-0.938-1.39l-0.96-1.215l-0.958-1.025l-0.012-0.011l-0.926-0.805l-0.778-0.505L23.9,91.987
	l-0.798-0.3l-0.693-0.017l-0.58,0.274l-0.471,0.552L21.004,93.3l-0.256,1.049l-0.158,1.273l-0.061,1.458l-0.135,14.688l0.809,1.156
	l0.921,1.136l1.032,1.109l1.141,1.083l1.246,1.055l1.345,1.023l1.445,0.983l1.539,0.951l1.632,0.909l0.023-2.442l0.098-10.612
	L31.641,106.487z"/>
<polygon fill="#FFFFFF" points="31.587,105.257 31.641,106.487 31.625,108.122 31.598,108.165 31.018,108.698 30.365,109.015 
	30.355,109.017 30.355,109.019 27.575,109.853 27.568,109.834 27.911,109.721 28.375,109.427 28.625,109.199 29.042,108.672 
	29.355,108.09 29.505,107.709 29.718,106.916 29.828,106.108 29.855,105.609 29.824,104.628 29.71,103.677 29.604,103.115 
	29.333,102.047 29.008,101.073 28.791,100.514 28.331,99.485 27.865,98.599 27.578,98.106 27.009,97.236 26.476,96.512 
	26.163,96.133 25.572,95.494 25.035,95.007 24.733,94.772 24.184,94.432 23.744,94.253 23.453,94.186 23.176,94.174 23.006,94.196 
	23.004,94.192 23.512,94.038 25.674,93.391 25.703,93.358 25.713,93.369 26.671,94.395 27.633,95.609 28.57,96.999 29.439,98.512 
	30.223,100.156 30.861,101.854 31.324,103.571 "/>
<polygon fill="#FFFFFF" points="30.355,109.019 30.355,109.017 30.365,109.015 31.018,108.698 31.598,108.165 31.625,108.122 
	31.527,118.734 31.127,118.483 29.668,117.502 28.31,116.479 27.063,115.423 25.93,114.336 24.916,113.223 24.017,112.079 
	23.24,110.917 23.277,106.863 23.705,107.619 24.176,108.284 24.464,108.623 25.026,109.169 25.57,109.546 25.889,109.71 
	26.494,109.903 27.044,109.941 27.353,109.907 27.568,109.834 27.575,109.853 "/>
<polygon fill="#FFFFFF" points="31.527,118.734 31.505,121.177 29.873,120.268 28.333,119.314 26.888,118.331 25.543,117.31 
	24.297,116.255 23.156,115.172 22.124,114.061 21.203,112.927 20.395,111.769 23.24,110.917 24.017,112.079 24.916,113.223 
	25.93,114.336 27.063,115.423 28.31,116.479 29.668,117.502 31.127,118.483 "/>
<polygon fill="#FFFFFF" points="31.383,32.815 31.439,33.156 30.71,34.828 29.842,36.435 28.388,38.587 26.701,40.575 
	24.977,42.229 23.099,43.726 23.05,43.385 23.01,43.042 22.983,42.704 22.965,42.361 22.955,42.023 22.957,41.68 22.971,41.339 
	22.993,41 24.29,39.998 25.398,39.003 25.897,38.554 27.356,37.003 28.625,35.397 29.733,33.709 30.607,32.093 31.336,30.427 
	31.304,30.77 31.285,31.111 31.277,31.454 31.285,31.792 31.306,32.135 31.338,32.475 "/>
<path fill="#FFFFFF" d="M21.527,96.78l0.021-0.158l0.063-0.367l0.177-0.674l0.115-0.308l0.235-0.446l0.315-0.361l0.188-0.134
	l0.362-0.138l0.172-0.021l0.275,0.012l0.293,0.065l0.44,0.181l0.547,0.339l0.304,0.236l0.536,0.487l0.59,0.639l0.313,0.379
	l0.534,0.723l0.568,0.87l0.287,0.494l0.466,0.885l0.46,1.03l0.217,0.56l0.325,0.974l0.271,1.066l0.106,0.563l0.116,0.949
	l0.029,0.983l-0.027,0.497l-0.11,0.808l-0.213,0.793l-0.149,0.381l-0.313,0.582l-0.418,0.529l-0.247,0.226l-0.467,0.294
	l-0.343,0.113l-0.216,0.073l-0.309,0.034l-0.55-0.038l-0.605-0.193l-0.318-0.164l-0.544-0.377l-0.563-0.544l-0.288-0.341
	l-0.471-0.665l-0.428-0.756l-0.042-0.075l-0.229-0.477l-0.361-0.876l-0.349-1.03l-0.16-0.568l-0.238-0.995l-0.09-0.446l-0.118-0.67
	l-0.096-0.663l-0.098-0.923l-0.068-1.249l-0.004-0.545l0.016-0.563l0.053-0.705L21.527,96.78z M28.588,104.999l-0.012-0.91
	l-0.121-0.97l-0.227-0.998l-0.319-0.993l-0.401-0.97l-0.463-0.906l-0.511-0.829l-0.537-0.73l-0.545-0.614l-0.311-0.276l-0.231-0.206
	l-0.521-0.329l-0.486-0.172l-0.437-0.007l-0.379,0.16l-0.319,0.327l-0.251,0.477l-0.183,0.622l-0.113,0.749l-0.045,0.85l0.053,1.289
	l0.126,1.013l0.196,1.03l0.266,1.01l0.329,0.963l0.392,0.887l0.445,0.795l0.493,0.667l0.523,0.529l0.55,0.375l0.555,0.207
	l0.54,0.032l0.509-0.142l0.453-0.307l0.385-0.464l0.133-0.271l0.163-0.329l0.205-0.726L28.588,104.999z"/>
<polygon fill="#FFFFFF" points="29.35,86.323 29.381,86.832 29.288,87.52 29.045,88.003 28.957,88.058 28.953,88.058 28.838,88.021 
	28.723,87.966 28.609,87.897 28.495,87.81 28.378,87.704 28.21,87.52 28.052,87.305 27.947,87.139 27.849,86.964 27.759,86.786 
	27.674,86.595 27.589,86.389 27.482,86.078 27.393,85.764 27.34,85.541 27.282,85.218 27.24,84.91 27.222,84.695 27.209,84.396 
	27.22,84.125 27.238,83.944 27.266,83.78 27.297,83.63 27.34,83.498 27.393,83.371 27.482,83.219 27.522,83.174 27.538,83.174 
	27.984,83.438 28.44,83.948 28.852,84.652 29.17,85.474 "/>
<polygon fill="#FFFFFF" points="28.953,88.058 28.676,88.229 28.235,88.165 27.776,87.82 27.353,87.234 27.006,86.47 26.768,85.618 
	26.661,84.774 26.694,84.038 26.86,83.492 27.15,83.192 27.522,83.174 27.482,83.219 27.393,83.371 27.34,83.498 27.297,83.63 
	27.266,83.78 27.238,83.944 27.22,84.125 27.209,84.396 27.222,84.695 27.24,84.91 27.282,85.218 27.34,85.541 27.393,85.764 
	27.482,86.078 27.589,86.389 27.674,86.595 27.759,86.786 27.849,86.964 27.947,87.139 28.052,87.305 28.21,87.52 28.378,87.704 
	28.495,87.81 28.609,87.897 28.723,87.966 28.838,88.021 "/>
<polygon fill="#FFFFFF" points="28.578,104.089 28.588,104.999 28.491,105.831 28.286,106.555 28.123,106.886 28.12,106.886 
	27.57,106.447 27.062,105.871 26.579,105.133 26.157,104.306 25.787,103.369 25.49,102.394 25.252,101.365 25.09,100.361 
	24.995,99.357 24.971,98.437 25.048,97.289 25.143,96.804 25.453,97.08 25.999,97.694 26.535,98.425 27.046,99.254 27.51,100.16 
	27.911,101.128 28.229,102.121 28.457,103.119 "/>
<polygon fill="#FFFFFF" points="28.123,106.886 27.99,107.157 27.605,107.621 27.152,107.928 26.644,108.069 26.104,108.035 
	25.549,107.828 24.999,107.453 24.476,106.924 23.982,106.257 23.537,105.464 23.146,104.577 22.816,103.612 22.551,102.604 
	22.354,101.574 22.229,100.562 22.178,99.272 22.221,98.421 22.335,97.674 22.517,97.052 22.768,96.575 23.087,96.251 23.466,96.09 
	23.904,96.097 24.391,96.269 24.91,96.598 25.143,96.804 25.048,97.289 24.971,98.437 24.995,99.357 25.09,100.361 25.252,101.365 
	25.49,102.394 25.787,103.369 26.157,104.306 26.579,105.133 27.062,105.871 27.57,106.447 28.12,106.886 "/>
<polygon fill="#FFFFFF" points="26.654,50.863 26.93,51.175 26.271,52.012 25.901,52.958 25.84,53.507 25.563,53.195 25.299,52.88 
	25.041,52.564 24.794,52.244 24.557,51.923 24.328,51.6 24.109,51.276 23.902,50.952 24.08,49.999 24.577,49.088 24.993,48.621 
	25.199,48.944 25.419,49.267 25.648,49.591 25.885,49.913 26.131,50.232 26.389,50.548 "/>
<polygon fill="#FFFFFF" points="25.703,93.358 25.674,93.391 23.512,94.038 23.521,93.937 23.744,92.761 23.997,92.049 
	24.775,92.554 "/>
<polygon fill="#FFFFFF" points="27.021,46.454 26.201,47.396 24.993,48.621 24.577,49.088 24.08,49.999 23.902,50.952 
	23.895,51.563 23.524,50.94 23.188,50.313 22.889,49.68 22.624,49.044 22.395,48.405 22.202,47.761 22.044,47.119 21.927,46.472 "/>
<polygon fill="#FFFFFF" points="34.834,31.223 33.391,35.568 33.391,35.57 33.261,35.704 32.782,36.62 32.104,38.41 31.285,40.173 
	30.25,42.051 29.065,43.875 27.7,45.677 27.023,46.454 27.021,46.454 21.927,46.472 21.931,45.857 21.996,45.319 22.391,44.442 
	23.099,43.726 24.977,42.229 26.701,40.575 28.388,38.587 29.842,36.435 30.71,34.828 31.439,33.156 31.775,32.548 32.506,31.844 
	33.466,31.385 34.544,31.223 "/>
<g>
	<polygon fill="#FFFFFF" points="23.004,94.192 23.006,94.196 22.643,94.332 22.454,94.468 22.14,94.827 21.903,95.273 
		21.787,95.581 21.612,96.255 21.547,96.622 21.527,96.78 20.529,97.08 20.59,95.622 20.748,94.349 21.004,93.302 21.361,92.497 
		21.831,91.945 22.409,91.671 23.104,91.688 23.902,91.987 23.997,92.049 23.744,92.761 23.521,93.937 23.512,94.038 	"/>
	<polygon fill="#FFFFFF" points="23.235,106.788 23.277,106.863 23.24,110.917 20.395,111.769 20.529,97.08 21.527,96.78 
		21.49,97.08 21.438,97.783 21.422,98.346 21.427,98.893 21.494,100.141 21.593,101.063 21.688,101.726 21.808,102.396 
		21.897,102.842 22.136,103.837 22.296,104.405 22.645,105.436 23.006,106.312 	"/>
</g>
<g>
	<path fill="#A0A09F" stroke="#A0A09F" stroke-width="0.15" stroke-miterlimit="10" d="M111.236,65.687l0.188-20.571l0.01-0.347
		c0-0.022-0.004-0.045-0.012-0.065l-0.012-0.841l-0.107-1.151l-0.053-0.354c-0.004-0.02-0.008-0.036-0.016-0.054l-0.002-0.021
		c-0.002-0.023-0.01-0.044-0.018-0.065l-0.379-0.872c-0.01-0.025-0.025-0.049-0.047-0.069l-0.084-0.087
		c-0.002-0.009,0-0.017-0.002-0.023l-0.135-0.361l-0.271-0.646l-0.303-0.643l-0.34-0.637l-0.34-0.569l0.004-0.548
		c0-0.015-0.002-0.028-0.004-0.042l-0.158-0.891c-0.006-0.03-0.016-0.061-0.035-0.086l-0.482-0.727
		c-0.016-0.021-0.033-0.039-0.053-0.055l-0.422-0.323l-1.176-0.758l-1.463-1.146l-1.318-1.277l-1.139-1.363l-0.854-1.267
		l-0.145-0.21l-0.01-0.02c-0.004-0.004-0.002-0.01-0.006-0.014l-0.75-1.392l-0.648-1.537c-0.006-0.012-0.012-0.023-0.02-0.034
		l-0.463-0.738c-0.016-0.026-0.039-0.05-0.066-0.068l-0.734-0.497c-0.023-0.017-0.053-0.028-0.08-0.034l-0.928-0.198
		c-0.02-0.004-0.041-0.007-0.063-0.004l-0.588,0.044l-3.168-10.02c0-0.001,0-0.001-0.002-0.002l-0.008-0.031
		c-0.008-0.023-0.02-0.045-0.037-0.066l-0.186-0.561l-0.432-0.966l-0.531-0.953l-0.635-0.931l-0.736-0.905L91.143,9.81l-0.934-0.847
		l-1.027-0.811L88.07,7.384l-1.195-0.726l-1.268-0.676l-1.336-0.627l-1.396-0.577l-1.449-0.525l-1.502-0.476l-1.545-0.42
		l-1.584-0.368l-1.621-0.314l-1.648-0.26L71.857,2.21l-1.686-0.15l-1.699-0.096l-1.705-0.039l-1.705,0.017l-1.7,0.071l-1.687,0.126
		l-1.668,0.183l-1.646,0.237l-1.618,0.29l-1.583,0.345l-1.547,0.4l-1.5,0.452L50.66,4.552L49.262,5.11L47.92,5.72l-1.277,0.664
		l-1.207,0.714l-1.133,0.768l-1.048,0.817l-0.963,0.863l-0.862,0.909l-0.762,0.946l-0.651,0.979l-0.529,0.981
		c-0.005,0.006-0.009,0.014-0.011,0.021l-0.415,0.997c-0.003,0.006-0.005,0.014-0.007,0.021l-0.042,0.142
		c-0.009,0.014-0.016,0.029-0.021,0.045c-0.001,0.003-0.004,0.003-0.004,0.005l-2.787,8.279l-0.72,2.14
		c0,0.003-0.002,0.003-0.003,0.005l-1.096,3.255l-0.762,0.084c-0.02,0.002-0.037,0.008-0.056,0.014l-1,0.379
		c-0.021,0.01-0.042,0.021-0.061,0.035l-0.802,0.64c-0.02,0.016-0.038,0.037-0.051,0.058l-0.513,0.827
		c-0.006,0.008-0.005,0.018-0.009,0.026c-0.001,0.002-0.005,0.003-0.006,0.006l-0.719,1.647l-0.864,1.599l-1.099,1.673l-1.255,1.591
		l-1.446,1.538l-1.594,1.431l-1.296,1.002c-0.052,0.039-0.084,0.1-0.089,0.165l-0.002,0.055l-1.203,2.899l-0.191,20.93l0.045,1.132
		c0,0.002,0,0.005,0,0.007l-0.065,1.096l0.001,0.021c0,0.001-0.001,0.001-0.001,0.002L21.24,78.964l0.044,1.124
		c0,0.008,0,0.016,0.002,0.021l0.159,1.142l-0.078,8.58l-0.146,0.072c-0.03,0.016-0.056,0.037-0.077,0.063l-0.501,0.639
		c-0.014,0.017-0.023,0.035-0.032,0.058l-0.383,0.953c-0.005,0.01-0.01,0.023-0.012,0.035l-0.265,1.211
		c-0.002,0.009-0.003,0.016-0.004,0.024l-0.167,1.527l-0.064,1.695l-0.15,16.36c0,0.045,0.011,0.085,0.033,0.122l0.774,1.264
		l0.904,1.241l1.035,1.211l1.154,1.186l1.279,1.15l1.396,1.111l1.509,1.072l1.618,1.032l1.723,0.986l1.813,0.934
		c0.034,0.016,0.07,0.025,0.104,0.025c0.022,0,0.045-0.004,0.064-0.011l2.796-0.838l1.646,0.734l1.797,0.727l1.864,0.674l1.929,0.63
		l1.987,0.579l2.039,0.526l2.09,0.477l2.134,0.419l2.168,0.366l2.202,0.31l2.228,0.25l2.249,0.195l2.265,0.138l2.271,0.077
		l2.271,0.019h0.002c0.002,0,0.004,0,0.004-0.001l2.271-0.038l2.268-0.1l2.252-0.154l2.23-0.213l2.205-0.273l2.176-0.327
		l2.139-0.383l2.096-0.44l2.047-0.494l1.994-0.544l1.934-0.595l1.875-0.646l1.807-0.694l1.732-0.739l1.658-0.785l1.574-0.829
		l1.494-0.868l1.4-0.908l1.309-0.943l1.213-0.976l1.113-1.008l1.012-1.038l0.906-1.065l0.801-1.09l0.689-1.111l0.58-1.127
		l0.463-1.145l0.35-1.157l0.234-1.169l0.115-1.166l0.016-0.467l0.354-38.626c0-0.019-0.016-0.032-0.021-0.049l0.006-0.52
		l-0.037-0.583c0-0.008-0.008-0.013-0.01-0.021l0.055-0.484L111.236,65.687z M22.022,44.491l-0.008-0.55
		c0-0.019-0.014-0.029-0.018-0.046l0.731-1.783l0.009,0.263l0.046,0.698l0.074,0.574l-0.63,0.637
		c-0.018,0.019-0.033,0.04-0.045,0.065l-0.147,0.328L22.022,44.491z M23.235,43.908c0.002-0.001,0.004-0.001,0.006-0.001
		l1.893-1.511l1.726-1.653c0.005-0.006,0.011-0.013,0.016-0.019l1.687-1.987c0.006-0.007,0.011-0.013,0.016-0.021l1.465-2.17
		l0.878-1.625l0.729-1.67c0-0.002,0-0.004,0-0.006l0.307-0.558l0.68-0.655l0.896-0.428l0.981-0.147l-1.325,3.991l-0.093,0.096
		c-0.017,0.017-0.029,0.034-0.038,0.053l-0.479,0.919c-0.004,0.007-0.009,0.016-0.013,0.024l-0.673,1.772l-0.811,1.75l-1.027,1.863
		l-1.174,1.81l-1.355,1.791l-0.607,0.697l-4.764,0.017l0.002-0.369l0.061-0.493l0.363-0.807L23.235,43.908z M37.975,44.175
		l0.463-1.596l0.02,0.013l0.134,0.09l0.573,0.365l0.278,0.179l0.44,0.262l0.91,0.517l0.777,0.408l-0.224,0.77l-0.273,0.939
		l-0.654,1.877l-1.093,2.604l-1.269,2.515l-1.292,2.202l-0.729,1.077l-0.576,0.852l-0.744-0.397l-0.892-0.51l-0.866-0.524
		l-0.638-0.412l0.849-1.234l0.57-0.919v-0.001l0.648-1.05l1.111-2.036l0.963-2.024l0.844-2.055L37.975,44.175z M39.473,40.474
		l0.718-0.667l0.446-0.258l0.71,0.472l0.87,0.531l0.912,0.515l0.593,0.312l-0.473,0.298c-0.018,0.011-0.032,0.022-0.045,0.037
		l-0.724,0.77c-0.01,0.011-0.021,0.025-0.029,0.039l-0.553,0.941c-0.008,0.012-0.014,0.025-0.019,0.038l-0.166,0.471l-0.704-0.369
		l-0.453-0.255l-0.878-0.513l-0.423-0.266l-0.672-0.441l0.313-0.799L39.473,40.474z M44.013,59.233l0.788-2.145l0.715-2.194
		l0.619-2.162l0.548-2.174l0.431-1.998l0.313-1.72l0.302,0.098l0.59,0.191l1.173,0.351l1.192,0.328l0.689,0.173l0.32,0.079
		l-0.321,1.764l-0.427,1.978l-0.709,2.77l-0.82,2.706l-0.838,2.396l-0.84,2.124l-0.553-0.142l-0.455-0.116l-1.184-0.326
		l-1.162-0.347l-0.571-0.181l-0.341-0.107l0.402-0.998c0.001-0.002-0.002-0.003,0-0.004L44.013,59.233z M48.096,44.607l0.463-0.783
		l0.266-0.301l1,0.326l1.168,0.354l1.196,0.324l0.864,0.216l-0.288,0.352c-0.01,0.013-0.018,0.024-0.024,0.038l-0.466,0.876
		c-0.006,0.009-0.01,0.02-0.015,0.031l-0.355,1.022c-0.002,0.009-0.004,0.018-0.006,0.026l-0.115,0.525l-0.982-0.248l-1.184-0.324
		l-1.16-0.348l-0.938-0.304l0.198-0.83L48.096,44.607z M54.525,62.808l0.893,0.153l1.575,0.24l-0.044,0.359L56.93,63.71
		c0,0.002-0.002,0.003-0.002,0.004l-0.053,0.456l-0.02,0.164l-0.089,1.09l-0.036,1.012c0,0.003-0.004,0.004-0.004,0.007
		l-0.004,0.358l-0.983-0.126l-1.233-0.173l-1.223-0.191l-1.211-0.206l-1.202-0.228l-1.188-0.243l-1.172-0.259l-0.743-0.18
		l1.04-0.951l2.347-2.143l0.742,0.174l0.868,0.189L54.525,62.808z M58.772,48.874l0.065-0.851l0.129-1.021l0.153-0.858l0.072-0.285
		l1.117,0.132l1.328,0.129l1.339,0.101l1.067,0.058l-0.106,0.447l-0.155,0.944l-0.119,1.072l-0.038,0.551l-1.776-0.11l-1.324-0.114
		l-1.558-0.172L58.772,48.874z M76.973,61.291l0.236,1.641c0,0.001,0.002,0.002,0.002,0.002l0.078,0.543l-1.727,0.195l-1.979,0.174
		l-1.117,0.077l-0.209-1.424l-0.293-2.228l-0.264-2.269l-0.229-2.224l-0.195-2.228l-0.15-2.038l-0.107-1.791l1.107-0.07l1.328-0.109
		l1.32-0.136l1.053-0.129l0.115,1.784l0.15,2.036l0.258,2.866l0.305,2.819L76.973,61.291z M85.918,43.902l0.469,0.836l0.357,0.988
		l0.117,0.538l-0.914,0.311l-1.131,0.354l-1.162,0.332l-0.961,0.253l-0.199-0.824c-0.002-0.011-0.006-0.019-0.01-0.028
		c0-0.002,0-0.005-0.002-0.007l-0.166-0.403l-0.236-0.578c-0.004-0.013-0.014-0.024-0.02-0.036l-0.512-0.812
		c-0.01-0.012-0.018-0.024-0.027-0.034l-0.051-0.055l-0.088-0.092l0.818-0.214l1.172-0.332l1.145-0.36l0.957-0.329L85.918,43.902z
		 M102.188,31.75l0.094,0.228l0.854,1.623l1.412,2.143c0.004,0.007,0.01,0.015,0.016,0.021l1.652,1.975
		c0.004,0.007,0.01,0.013,0.018,0.019l1.104,1.072c0,0.001,0,0.003,0.002,0.003l0.602,0.585l1.781,1.427l0.037,0.243l0.064,0.668
		l0.027,0.668l-0.002,0.335v0.006L109.834,43l-0.916-0.714l-1.568-1.415l-1.42-1.53l-1.227-1.581l-1.07-1.664l-0.834-1.596
		l-0.676-1.606l0.008-0.079l0.02-0.209l0.02-0.35l0.006-0.345v-0.004v-0.001v-0.001l-0.004-0.189L102.188,31.75z M110.299,43.987
		l0.477,0.75l0.109,0.564l0.053,0.282l-0.004,0.375l-4.336,0.015l-1.236-1.499l-1.551-2.248l-1.326-2.374l-0.789-1.735l-0.557-1.502
		l-0.105-0.287c0,0,0,0,0-0.001l-0.006-0.016c-0.002-0.002,0-0.003,0-0.004l-0.307-0.665c-0.008-0.016-0.018-0.032-0.031-0.049
		l-0.676-0.825c-0.016-0.017-0.031-0.03-0.049-0.043l-0.031-0.021l-1.086-3.454l0.711,0.075l0.932,0.349l0.727,0.586l0.469,0.775
		l0.697,1.66l0.854,1.631l1.092,1.697l1.252,1.613l1.447,1.559l1.594,1.442l1.275,0.991c0,0,0,0,0.002,0l0.352,0.313L110.299,43.987
		z M42.84,63.195l0.055-0.564l0.023-0.237l0.254-1.018l0.136-0.369l1.525,0.476l1.183,0.339l1.565,0.41l-0.266,0.791
		c-0.005,0.008-0.007,0.02-0.009,0.03l-0.193,1.045c-0.003,0.008-0.003,0.018-0.003,0.028l-0.019,0.291l-1.529-0.404l-1.752-0.51
		l-0.289-0.091L42.84,63.195z M57.788,64.044l1.295,0.131l0.032,0.004l1.999,0.164l1.101,0.067l-0.091,0.838l-0.067,1.078
		l-0.007,0.332l-1.768-0.118l-1.323-0.113l-1.763-0.187l0.008-0.242l0.021-0.547l0.087-1.073l0.048-0.384l0.01,0.002L57.788,64.044z
		 M72.678,65.916l-0.002-0.08l-0.008-0.093l-0.086-0.995l-0.043-0.297l-0.01-0.072l0.428-0.026l1.328-0.102l1.324-0.125l1.738-0.195
		l0.1,0.824l0.064,1.056l0.004,0.362l-1.1,0.13l-1.971,0.19l-1.748,0.13L72.678,65.916z M70.67,51.544l0.152,2.047l0.197,2.233
		l0.227,2.229l0.266,2.273l0.295,2.235l0.238,1.635l0.08,0.602l0.094,1.065l0.01,0.366l-1.051-2.721l-0.656-14.307L70.67,51.544z
		 M83.531,51.706l-0.428-1.979l-0.092-0.512l-0.225-1.255l0.988-0.258l1.17-0.335l1.143-0.356l0.863-0.293l0.307,1.725l0.432,1.991
		l0.725,2.786l0.846,2.72l0.873,2.407l0.857,2.081l-0.078,0.026l-1.092,0.353l-0.277,0.09l-1.729,0.51l-0.99,0.266l-0.574-1.37
		l-0.809-2.125l-0.73-2.172l-0.633-2.141l-0.408-1.611L83.531,51.706z M90.678,63.352l-1.713,0.521l-1.494,0.411l-0.061-0.726
		c-0.002-0.013-0.004-0.022-0.008-0.036l-0.264-1.048c-0.002-0.01-0.006-0.018-0.008-0.027l-0.133-0.344l0.35-0.092l1.756-0.498
		l1.143-0.354l0.904-0.301l0.277,0.792l0.186,1.01l0.02,0.375L90.678,63.352z M91.186,42.401l0.396,0.581l0.184,0.268l0.371,0.951
		l0.541,1.902l0.66,1.901l0.498,1.208l0.346,0.845l0.463,0.966l0.504,1.05l1.117,2.028l0.457,0.728l0.777,1.233l0.354,0.503
		l0.639,0.91c0,0.001,0,0,0,0.001l0.324,0.51l0.381,0.939l0.129,0.923l-0.004,0.269l-5.693-2.367L90.07,41.528l0.381,0.211
		L91.186,42.401z M108.514,51.986l-0.287,0.403l-0.123,0.165l-0.111,0.144l-0.076-0.44c-0.004-0.026-0.01-0.049-0.023-0.07
		l-0.49-0.906c-0.002-0.005-0.006-0.009-0.01-0.014c-0.006-0.012-0.012-0.021-0.02-0.03l-0.287-0.322l0.029-0.04l0.352-0.448
		l0.213-0.3l0.02-0.026l0.023-0.035l0.203-0.288l0.164-0.255l0.049-0.072l0.053-0.086l0.154-0.24l0.127-0.218l0.07-0.116
		l0.016-0.027l0.424,0.536l0.334,0.883l0.043,0.446l-0.336,0.582l-0.303,0.47L108.514,51.986z M107.176,54.299l-0.529,0.579
		l-0.564,0.572l-0.592,0.563l-0.434,0.382l-0.193,0.17l-0.658,0.544l-0.689,0.536l-0.361,0.262v-0.171
		c0-0.002,0.002-0.004,0.002-0.006l-0.041-0.562c0-0.017-0.004-0.031-0.008-0.048l-0.295-0.999
		c-0.004-0.009-0.008-0.019-0.012-0.028c-0.004-0.007-0.006-0.015-0.01-0.021l-0.227-0.393l-0.313-0.546c0,0-0.002,0-0.002-0.001
		l-0.008-0.016l-1.432-2.082l-0.143-0.235l6.748,1.215l-0.029,0.036L107.176,54.299z M99.34,39.018l0.18-0.217l0.494-0.645
		l0.439-0.654l0.033-0.055l0.17-0.275l0.08-0.146l0.043-0.07l0.494,1.336l0.805,1.77l1.346,2.408L105,44.75l0.791,0.96l0.525,0.638
		l0.295,0.357l1.633,1.685l-0.232,0.404l-0.053,0.092l-0.412,0.637l-0.445,0.631l-0.063,0.079l-0.271,0.347l-1.016-1.024
		l-1.484-1.693l-1.346-1.781l-1.162-1.8l-1.014-1.858l-0.795-1.747L99.34,39.018z M101.98,55.577l0.4,0.7l0.281,0.949l0.029,0.403
		l-0.686,0.469l-0.824,0.529l-0.852,0.518l-0.594,0.335l-0.088-0.645c-0.002-0.021-0.008-0.039-0.018-0.056l-0.398-0.985
		c-0.006-0.015-0.014-0.025-0.021-0.038l-0.209-0.329l0.686-0.39l0.867-0.521l0.832-0.537L101.98,55.577z M110.865,46.799
		l-0.105,0.633l-0.141,0.633l-0.174,0.627l-0.213,0.629l-0.246,0.622l-0.191,0.424l-0.025-0.259c-0.002-0.02-0.006-0.04-0.014-0.06
		l-0.357-0.942c-0.01-0.021-0.02-0.042-0.035-0.06l-0.656-0.834c-0.004-0.005-0.01-0.011-0.016-0.016l-1.715-1.767l0.736-0.002
		l3.191-0.011L110.865,46.799z M99.682,35.086l0.637,0.777l0.246,0.535l-0.117,0.223l-0.379,0.638l-0.426,0.631l-0.234,0.314
		l-0.283,0.353l-0.311-0.601c-0.01-0.021-0.023-0.039-0.039-0.056l-0.746-0.771c-0.014-0.016-0.031-0.028-0.049-0.038l-0.939-0.548
		c-0.018-0.009-0.033-0.016-0.053-0.021l-0.408-0.119l0.299-0.37l0.24-0.323l0.229-0.328l0.416-0.657l0.191-0.336l0.076-0.153
		l0.803,0.269L99.682,35.086z M96.229,36.775l0.605,0.177l0.889,0.518l0.699,0.725l0.455,0.884l0,0l0.654,1.771l0.809,1.775
		l1.029,1.887l1.18,1.829l1.363,1.81l1.506,1.716l1.209,1.219l0.387,0.438l0.461,0.85l0.111,0.644l0.039,0.239l-0.004,0.332
		l-7.023-1.265L96.25,36.85L96.229,36.775z M95.27,41.417l0.186,0.528l-0.637,0.448l-0.816,0.528l-0.857,0.515l-0.672,0.373
		l-0.291-0.749c-0.008-0.018-0.016-0.032-0.023-0.047l-0.611-0.894c-0.012-0.016-0.023-0.03-0.035-0.041l-0.775-0.697
		c-0.012-0.013-0.025-0.023-0.043-0.032l-0.242-0.134l0.986-0.562l0.852-0.532l0.807-0.547l0.26-0.189l0.682,0.412l0.699,0.727
		L95.27,41.417z M91.537,59.113l0.686-0.323l0.668-0.332l0.553-0.288l5.572,2.315l-0.445,0.239l-0.895,0.451l-0.924,0.438
		l-0.945,0.425l-0.971,0.41l-0.996,0.399l-1.014,0.38l-0.732,0.259l0.004-0.301v-0.002l0,0l-0.027-0.565
		c0-0.009-0.002-0.02-0.004-0.03l-0.191-1.043c-0.002-0.011-0.006-0.021-0.01-0.032l-0.355-1.022c0-0.002-0.002-0.002-0.002-0.003
		l-0.004-0.007l-0.469-1.146L91.537,59.113z M81.115,45.028l0.059,0.061l0.492,0.778l0.389,0.947l0.246,1.019l0.357,1.984
		l0.43,1.994l0.551,2.175l0.637,2.157l0.736,2.189l0.813,2.141l0.656,1.562c0,0.002,0.002,0.002,0.004,0.004l0.215,0.561
		l0.258,1.017l0.08,0.955c0,0.002-0.002,0.003-0.002,0.005v0.121l-3.623-3.065l-2.127-15.385L81.115,45.028z M83.141,62.002
		l3.631,3.073l-0.705,0.176l-1.152,0.269l-1.168,0.25l-1.182,0.235l-1.195,0.215l-1.207,0.198L78.941,66.6l-0.971,0.13l0.002-0.351
		c0-0.001,0.002-0.002,0.002-0.003l-0.006-0.582l-0.066-1.08l-0.129-1.063c0-0.001,0-0.001,0-0.001c0-0.002,0-0.003,0-0.004
		l-0.08-0.557l1.248-0.202l0.881-0.16l1.736-0.353l0.852-0.196l0.576-0.139L83.141,62.002z M75.453,46.295l0.178,0.917l0.133,1.053
		l0.035,0.555l-1.076,0.135l-1.309,0.132l-1.32,0.109l-1.107,0.071l-0.016-0.185l-0.057-0.686l-0.15-1.049l-0.195-0.896
		l-0.063-0.195l1.047-0.064l1.33-0.11l1.318-0.137l1.105-0.14L75.453,46.295z M67.219,63.896
		C67.219,63.896,67.221,63.896,67.219,63.896l0.936-0.008l1.875-0.054l0.768-0.038l1.344,3.475l-0.953,0.052l-1.27,0.05
		l-1.273,0.031l-1.275,0.014l-1.277-0.004l-1.147-0.022l-0.122-0.002l-1.271-0.04l-0.104-0.006l-0.878-0.043l0.146-0.473
		l0.929-3.009l0.761,0.03l0.938,0.027l0.94,0.018L67.219,63.896z M63.25,63.543l-0.705,2.285l0.035-0.54l0.112-1.055
		c0.001-0.002,0.003-0.004,0.004-0.006l0.302-2.427l0.279-2.506l0.275-2.82l0.139-1.655l-0.393,7.761L63.25,63.543z M47.531,64.793
		l0.033-0.627l0.093-0.508l0.095-0.508l0.335-0.992c0-0.001,0.002-0.002,0.002-0.004l0.918-2.318l0.844-2.415l0.826-2.726
		l0.714-2.786l0.432-1.993l0.36-1.982c0-0.001-0.002-0.002-0.002-0.003l0.16-0.729l0.346-0.992l0.447-0.842l0.135-0.164
		l-2.392,16.536L47.531,64.793z M42.954,60.64c0,0.001,0,0.001,0,0.002l-0.217,0.585c-0.002,0.009-0.004,0.016-0.007,0.023
		l-0.259,1.049c-0.002,0.011-0.005,0.021-0.007,0.032l-0.099,1.002l0.002,0.002l-0.002,0.013c0,0.003-0.002,0.004-0.002,0.006
		l-0.003,0.298l-0.768-0.261l-1.047-0.374l-1.022-0.392l-1.006-0.404l-0.978-0.417l-0.957-0.434l-0.929-0.444l-0.478-0.243
		l5.378-2.346l0.583,0.288l0.693,0.327l0.71,0.32l0.725,0.309l0.098,0.041L42.954,60.64z M33.006,37.405l0.137,0.195l0.089,0.132
		l0.491,0.651l0.267,0.321l0.462,0.522l-0.624,1.649l-0.808,1.741L31.676,45l-1.563,2.259l-1.597,1.94l-1.581,1.637l-0.301-0.349
		l-0.071-0.083l-0.499-0.629l-0.459-0.635l-0.098-0.147l-0.226-0.343l1.09-1.104l0.801-0.919c0.007-0.006,0.011-0.012,0.017-0.017
		c0.002-0.003,0.006-0.001,0.008-0.004l0.688-0.79l1.374-1.816l1.191-1.838l1.044-1.891l0.822-1.78l0.515-1.353l0.116,0.172
		L33.006,37.405z M33.833,59.356l-0.896-0.512l-0.862-0.524l-0.43-0.273l-0.285-0.183l0.121-0.808l0.388-0.947l0.2-0.322
		l0.646,0.416l0.874,0.53l0.904,0.517l0.37,0.197l0.357,0.191l-0.418,0.741c-0.01,0.015-0.016,0.029-0.021,0.045l-0.302,1.002
		c-0.005,0.017-0.009,0.03-0.009,0.047l-0.019,0.216l-0.389-0.208L33.833,59.356z M34.875,60.315l0.003-0.237
		c0-0.002,0.002-0.002,0.002-0.004l0.047-0.539l0.212-0.702l0.076-0.25l0.511-0.907l1.428-2.113l1.307-2.226l1.281-2.543
		l1.105-2.631l0.662-1.9l0.551-1.892l0.245-0.695l0.529-0.898l0.686-0.73l0.544-0.343l-3.7,16.219L34.875,60.315z M32.788,53.92
		l-0.979,1.42c-0.002,0.001,0,0.001-0.002,0.001l-0.003,0.006l-0.335,0.537c-0.008,0.012-0.014,0.023-0.019,0.035l-0.403,0.99
		c-0.008,0.018-0.013,0.035-0.015,0.054l-0.146,0.98c-0.002,0.005-0.002,0.009-0.002,0.016c0,0.004-0.004,0.009-0.004,0.014v0.185
		l-0.406-0.275l-0.732-0.531l-0.701-0.541l-0.672-0.55l-0.641-0.562l-0.608-0.566l-0.573-0.577L26.28,54.27l6.804-1.286l0.173,0.179
		L32.788,53.92z M23.704,46.694l2.811-0.007l-0.477,0.547L25.4,47.882l-0.573,0.58c0,0,0,0.001,0,0.002l-0.006,0.006l-0.416,0.468
		c-0.012,0.012-0.02,0.027-0.029,0.042l-0.5,0.91c-0.01,0.02-0.019,0.044-0.022,0.066l-0.155,0.83l-0.307-0.57l-0.294-0.623
		l-0.262-0.626l-0.225-0.627l-0.19-0.633l-0.152-0.629l-0.07-0.379L23.704,46.694z M24.976,52.108l-0.459-0.635l-0.375-0.568
		l0.153-0.829l0.468-0.856l0.198-0.223l0.234,0.349l0.036,0.055l0.472,0.651l0.509,0.645l0.128,0.147l0.29,0.34l-0.542,0.689
		c-0.014,0.017-0.025,0.036-0.033,0.057l-0.37,0.946c-0.006,0.017-0.013,0.036-0.013,0.058l-0.004,0.03l-0.04-0.047L24.976,52.108z
		 M27.61,53.554l-1.548,0.292l0.003-0.322l0.059-0.51l0.344-0.886l0.625-0.793l0,0l1.768-1.832l1.619-1.968l1.586-2.292l1.363-2.417
		l0.821-1.771l0.683-1.796c0,0,0-0.001,0-0.002l0.294-0.622l0.644-0.783l0.842-0.589l0.838-0.288L32.98,52.536L27.61,53.554z
		 M110.781,65.674l-0.021,0.589l-0.059,0.526c0,0.001,0,0.001,0,0.001l-0.068,0.605l-0.236,1.13l-0.355,1.122l-0.469,1.11l-0.58,1.1
		l-0.693,1.083l-0.799,1.064l-0.908,1.043l-1.018,1.017l-1.117,0.991l-1.217,0.962l-1.316,0.926l-1.408,0.894l-1.5,0.856
		l-1.582,0.815l-1.668,0.771l-1.744,0.73l-1.816,0.681l-1.883,0.632l-1.947,0.585l-2.008,0.532l-2.057,0.479l-2.107,0.426
		l-2.148,0.368l-2.18,0.315l-2.215,0.255l-2.24,0.196l-2.258,0.141l-2.268,0.082l-2.277,0.021l-2.277-0.037l-2.271-0.095
		l-2.262-0.154l-2.244-0.214l-2.221-0.271l-2.192-0.327l-2.157-0.383l-2.117-0.439l-2.073-0.493l-2.019-0.543l-1.964-0.599
		l-1.904-0.644l-1.836-0.693l-1.764-0.74l-1.688-0.785l-1.607-0.824l-1.522-0.866l-1.432-0.899l-1.342-0.938l-1.246-0.969
		l-1.146-0.995l-1.042-1.025l-0.938-1.047l-0.833-1.07l-0.72-1.085l-0.611-1.104l-0.502-1.112l-0.387-1.121l-0.273-1.131
		l-0.16-1.146c0,0-0.002-0.004-0.002-0.007l-0.042-1.103L21.98,47.82l0.196,0.664l0.235,0.648l0.271,0.647l0.303,0.643l0.343,0.636
		l0.37,0.623c0.024,0.043,0.064,0.069,0.109,0.088c0.005,0.003,0.01,0.003,0.016,0.004c0.023,0.008,0.045,0.02,0.07,0.02
		c0.02,0,0.041-0.002,0.061-0.009c0.057-0.015,0.098-0.056,0.128-0.104c0.005-0.006,0.014-0.006,0.017-0.012l0.044,0.064l0.47,0.651
		l0.512,0.645l0.484,0.563l-0.006,0.529c0,0.007,0.007,0.011,0.008,0.018c0.003,0.051,0.019,0.102,0.054,0.141l0.556,0.593
		l0.585,0.587l0.619,0.579l0.652,0.57l0.682,0.559l0.714,0.549l0.741,0.538l0.767,0.525c0.023,0.016,0.052,0.017,0.078,0.023
		c0.014,0.003,0.028,0.012,0.043,0.013c0.004,0,0.006,0.002,0.009,0.002c0.035,0,0.072-0.008,0.104-0.024
		c0.001-0.001,0.002-0.002,0.003-0.003s0.001-0.001,0.002-0.001c0.074-0.038,0.121-0.115,0.122-0.2l0.001-0.192l0.067,0.044
		l1.3,0.799l0.905,0.518l0.807,0.434l-0.005,0.474c-0.001,0.042,0.012,0.08,0.031,0.115c0.002,0.001,0.002,0.003,0.002,0.004
		c0.003,0.006,0.01,0.008,0.013,0.012c0.016,0.023,0.032,0.047,0.057,0.063c0.004,0.002,0.01,0.002,0.014,0.004
		c0.005,0.003,0.007,0.007,0.01,0.009l0.915,0.464l0.939,0.45l0.965,0.438l0.986,0.421l1.014,0.408l1.03,0.395l1.057,0.377
		l1.07,0.363c0.023,0.008,0.049,0.013,0.072,0.013c0.048,0,0.095-0.015,0.133-0.041c0.001,0,0-0.001,0.001-0.002h0.001
		c0.059-0.041,0.096-0.11,0.096-0.183l0.002-0.304l0.01,0.004l0.267,0.085l1.162,0.358l1.777,0.499l1.037,0.266l-0.007,0.436
		c0,0.01,0.009,0.019,0.009,0.028c0.002,0.01-0.002,0.021,0,0.031c0.003,0.014,0.014,0.021,0.019,0.033
		c0.007,0.015,0.011,0.028,0.02,0.041c0.004,0.006,0.008,0.01,0.013,0.016c0.015,0.016,0.032,0.025,0.049,0.038
		c0.011,0.007,0.017,0.019,0.027,0.023c0.009,0.004,0.017,0.003,0.023,0.005c0.006,0.002,0.011,0.007,0.017,0.009l1.165,0.279
		l1.183,0.261l1.192,0.245l1.211,0.229l1.219,0.208l1.228,0.192l1.24,0.174l1.243,0.157c0.01,0.001,0.02,0.001,0.028,0.001
		c0.055,0,0.107-0.02,0.149-0.056c0.051-0.042,0.078-0.104,0.08-0.169l0.004-0.361l0.507,0.053l1.227,0.13l1.333,0.113l1.788,0.12
		l-0.004,0.397c-0.001,0.038,0.02,0.07,0.036,0.102c0.005,0.01-0.002,0.021,0.005,0.03c0.002,0.003,0.006,0.002,0.008,0.004
		c0.004,0.006,0.006,0.011,0.011,0.017c0.012,0.013,0.029,0.015,0.044,0.024c0.028,0.02,0.053,0.044,0.089,0.05
		c0.008,0.002,0.015,0.002,0.022,0.002c0,0,0.001,0.001,0.002,0.001l1.279,0.063l1.278,0.04l1.281,0.024l1.281,0.005
		c0,0,0.002,0,0.004,0l1.279-0.013l1.279-0.032l1.275-0.051l1.256-0.068l0,0c0.014,0,0.027-0.001,0.043-0.001
		c0.043-0.008,0.074-0.034,0.105-0.062c0.004-0.005,0.014-0.005,0.02-0.011c0.006-0.009,0.01-0.017,0.016-0.025
		c0.002-0.003,0.006-0.002,0.01-0.006c0.004-0.008-0.002-0.018,0.002-0.026c0.014-0.029,0.035-0.058,0.035-0.092l0.004-0.404
		l0.287-0.021l1.498-0.11l1.982-0.193l0.506-0.06l0.541-0.063l-0.002,0.353c0,0.066,0.027,0.13,0.078,0.174
		c0.043,0.036,0.096,0.057,0.152,0.057c0.006,0,0.016-0.001,0.025-0.002c0.002,0,0.002,0.002,0.004,0.002l1.236-0.167l1.227-0.182
		l1.215-0.199l1.199-0.217l1.191-0.237l1.174-0.252l1.16-0.27l1.143-0.286c0.004-0.001,0.008-0.007,0.012-0.008
		c0.008-0.003,0.018-0.002,0.025-0.006c0.012-0.006,0.018-0.019,0.029-0.025c0.016-0.01,0.031-0.019,0.045-0.032
		c0.006-0.008,0.012-0.014,0.018-0.021c0.008-0.012,0.01-0.025,0.016-0.037c0.006-0.015,0.018-0.024,0.021-0.04
		c0.002-0.01-0.002-0.019-0.002-0.028c0.002-0.008,0.008-0.014,0.008-0.021l0.002-0.438l1.604-0.442l1.727-0.526l0.814-0.269
		l-0.004,0.271v0.019l0,0v0.002c0,0.075,0.035,0.145,0.096,0.188c0.039,0.029,0.088,0.043,0.133,0.043
		c0.025,0,0.051-0.004,0.076-0.014l1.049-0.369l1.023-0.385l1.004-0.402l0.979-0.413l0.957-0.43l0.93-0.443l0.904-0.455l0.875-0.468
		c0.002-0.001,0.002-0.003,0.004-0.005c0.002-0.001,0.008,0,0.01-0.002c0.006-0.005,0.004-0.012,0.008-0.016
		c0.025-0.019,0.051-0.037,0.064-0.063c0.01-0.015,0.01-0.031,0.014-0.047c0.008-0.021,0.02-0.042,0.02-0.065l0.004-0.481
		l0.781-0.442l0.865-0.524l0.834-0.537l0.029-0.019l0.404-0.271l-0.002,0.171c0,0.085,0.047,0.164,0.125,0.205
		c0.004,0.001,0.008,0,0.01,0.002c0.031,0.013,0.063,0.021,0.096,0.021c0.002,0,0.004-0.002,0.008-0.002
		c0.033-0.002,0.064-0.014,0.096-0.03c0.01-0.006,0.02-0.004,0.029-0.01l0.73-0.531l0.703-0.545l0.67-0.553l0.639-0.565l0.605-0.575
		l0.574-0.581l0.541-0.593l0.502-0.594c0.033-0.038,0.045-0.083,0.049-0.131c0-0.005,0.006-0.009,0.006-0.014l0.008-0.532
		l0.449-0.579l0.461-0.648l0.422-0.655l0.002-0.004c0.029,0.033,0.066,0.058,0.111,0.069c0.002,0,0.002-0.001,0.002,0l0,0
		c0.02,0.004,0.037,0.006,0.059,0.006s0.043-0.01,0.064-0.018c0.012-0.004,0.023-0.004,0.033-0.009
		c0.043-0.02,0.08-0.051,0.104-0.095l0.33-0.637l0.289-0.643l0.254-0.642l0.221-0.651l0.053-0.187L110.781,65.674z M101.275,29.737
		l0.117,0.217l0,0l0.168,0.316l0.098,0.639l0.053,0.668l0.006,0.33l-0.01,0.275l-0.117-0.194c-0.016-0.022-0.033-0.043-0.055-0.06
		l-0.789-0.635c-0.02-0.016-0.039-0.027-0.064-0.035l-0.992-0.373c-0.018-0.007-0.035-0.011-0.057-0.013l-0.559-0.059l0.033-0.471
		l0.012-0.353l-0.01-0.349l-0.02-0.352l-0.037-0.349l-0.049-0.352l-0.006-0.027l0.729,0.104l0.883,0.421L101.275,29.737z
		 M100.109,52.753c0.002,0,0,0.002,0.002,0.003l0.314,0.526l1.311,1.905l-0.602,0.413l-0.184,0.117l-0.639,0.411l-0.709,0.428
		l-0.146,0.088l-0.709,0.401l-0.867-1.235l-1.221-1.94l-1.107-2.006L94.6,49.871l-0.834-2.028l-0.65-1.878l-0.49-1.718l0.748-0.415
		l0.873-0.521l0.83-0.539l0.523-0.363l0.457,1.603l0.656,1.896l1.102,2.625l1.289,2.537l0.73,1.221L100.109,52.753z M58.484,53.148
		l0.146-2.041l0.109-1.777l0.887,0.101l0.19,0.021l1.329,0.129l1.338,0.103l0.057,0.003l1.057,0.061l-0.109,1.767l-0.002,0.026
		l-0.148,2.033l-0.239,2.857l-0.275,2.814l-0.278,2.501l-0.275,2.211l-0.064-0.004l-1.438-0.096l-0.283-0.02l-1.985-0.179
		l-1.083-0.119l0.062-0.505l0.374-3.146l0.238-2.273l0.208-2.23L58.484,53.148z M35.89,34.935l0.468,0.657l0.519,0.646l0.331,0.372
		l-0.676,0.231c-0.001,0.001-0.001,0.001-0.002,0.003l0,0c-0.02,0.006-0.039,0.016-0.056,0.028l-0.895,0.624
		c-0.018,0.014-0.032,0.026-0.046,0.043l-0.682,0.829c-0.013,0.016-0.022,0.032-0.031,0.049l-0.165,0.353l-0.575-0.673l-0.242-0.315
		l-0.453-0.632l-0.051-0.079l-0.288-0.456l0.403-0.773l0.107-0.111c0.005-0.004,0.005-0.011,0.009-0.016l0.582-0.606l0.882-0.52
		l0.541-0.163L35.89,34.935z M110.785,42.414c0.002,0.022,0.008,0.045,0.02,0.065l0.043,0.285l0.105,1.122l0.004,0.279l-0.287-0.451
		c-0.01-0.017-0.021-0.033-0.039-0.047l-0.359-0.316l0.027-0.57V42.77l0.004-0.35v-0.001v-0.001l-0.029-0.693l-0.029-0.354
		l0.188,0.191l0.35,0.804L110.785,42.414z M109.881,40.34l0.031,0.073l-0.066-0.052l-1.604-1.286l-0.271-0.263l1.002-0.189
		l0.285,0.478l0.33,0.617L109.881,40.34z M102.693,31.355c0.004,0.007,0.008,0.014,0.016,0.02l1.152,1.381
		c0.006,0.006,0.014,0.013,0.018,0.018l1.334,1.294c0.006,0.006,0.014,0.01,0.02,0.016l1.49,1.166l1.178,0.759l0.379,0.29
		l0.436,0.654l0.146,0.822l-0.002,0.402l-1.291,0.244l-1.012-0.983l-1.637-1.958l-1.395-2.113l-0.834-1.585l-0.479-1.14
		L102.693,31.355z M98.303,25.537l0.85,0.182l0.66,0.447l0.428,0.683l0.652,1.54l0.381,0.711l-0.09-0.089l-0.283-0.275
		c-0.018-0.018-0.039-0.032-0.061-0.042l-0.949-0.452c-0.021-0.01-0.045-0.018-0.066-0.021l-1.074-0.155
		c-0.012-0.002-0.021-0.002-0.033-0.002c0,0,0,0-0.002,0h-0.07l-0.352-1.107l-0.428-1.352l-0.004-0.014l-0.006-0.02L98.303,25.537z
		 M87.873,8.805l0.908,0.722l0.805,0.748l0.703,0.771l0.6,0.8l0.482,0.803l0.371,0.815l0.26,0.824l0.145,0.828l0.027,0.615
		l-0.072,0.748l-0.193,0.845l-0.305,0.836l-0.416,0.825l-0.523,0.802l-0.637,0.794l-0.746,0.773l-0.85,0.746l-0.947,0.714
		l-1.045,0.683l-1.135,0.647l-1.223,0.604l-1.303,0.563l-1.371,0.514l-1.445,0.467l-1.504,0.416l-1.555,0.363l-1.607,0.309
		l-1.641,0.255l-1.674,0.195l-1.701,0.139l-1.717,0.077l-1.721,0.021l-1.724-0.038l-1.718-0.098l-1.7-0.154l-1.679-0.216
		l-1.646-0.271l-1.607-0.326l-1.561-0.378l-1.509-0.433l-1.449-0.48l-1.379-0.53l-1.308-0.574l-1.229-0.616l-1.143-0.656
		l-1.051-0.692l-0.957-0.723l-0.857-0.756l-0.754-0.776l-0.648-0.799l-0.543-0.827l-0.43-0.831l-0.313-0.839l-0.204-0.846
		l-0.083-0.781l0.018-0.581l0.137-0.826l0.249-0.82l0.361-0.811l0.474-0.798l0.577-0.777l0.691-0.765l0.797-0.741l0.9-0.713
		l0.999-0.682l1.089-0.649l1.178-0.61l1.263-0.569l1.339-0.525l1.409-0.48l1.475-0.43l1.531-0.381l1.582-0.327l1.624-0.275
		l1.66-0.22l1.688-0.162l1.71-0.106l1.719-0.049l1.725,0.008l1.721,0.066l1.711,0.125l1.689,0.179L74.33,3.74l1.625,0.292
		l1.586,0.342l1.535,0.396l1.48,0.447l1.416,0.496l1.344,0.539l1.268,0.58l1.186,0.621l1.098,0.659L87.873,8.805z M48.823,6.115
		l1.263-0.582l1.339-0.539l1.409-0.492l1.475-0.44l1.531-0.391l1.582-0.335l1.624-0.281l1.661-0.226l1.688-0.166l1.709-0.108
		l1.724-0.051l1.72,0.009l1.721,0.067l1.711,0.128l1.689,0.184l1.662,0.242l1.625,0.3l1.586,0.351l1.535,0.406l1.48,0.458
		l1.416,0.508l1.344,0.553l1.268,0.594l1.186,0.636l0.186,0.114l-1.166-0.611L83.5,5.851l-1.365-0.548l-1.434-0.502l-1.498-0.452
		l-1.555-0.4l-1.602-0.347L74.4,3.306l-1.676-0.239L71.02,2.885l-1.727-0.126l-1.738-0.066l-1.74-0.01l-1.734,0.051L62.354,2.84
		L60.65,3.004l-1.675,0.221l-1.644,0.277l-1.599,0.332l-1.55,0.385L52.69,4.653l-1.428,0.487l-1.359,0.535L48.62,6.254l-1.166,0.604
		l0.191-0.117L48.823,6.115z M39.488,14.545l0.406-0.976l0.513-0.952l0.63-0.944l0.734-0.917l0.838-0.882l0.937-0.842l1.024-0.799
		l0.637-0.431l-0.852,0.69l-0.823,0.786l-0.719,0.815l-0.598,0.821c-0.006,0.006-0.01,0.014-0.015,0.02l-0.485,0.84
		c-0.004,0.007-0.008,0.015-0.012,0.022l-0.371,0.855c-0.005,0.009-0.008,0.018-0.01,0.026l-0.259,0.867
		c-0.002,0.008-0.005,0.019-0.006,0.028l-0.141,0.876c-0.002,0.011-0.002,0.02-0.002,0.03L40.89,15.36c0,0.009,0,0.019,0.001,0.029
		l0.006,0.054l-0.007,0.231c0,0.008,0,0.019,0.001,0.028l0.093,0.858c0.001,0.008,0.003,0.018,0.005,0.028l0.208,0.852
		c0.003,0.01,0.005,0.018,0.009,0.026l0.324,0.845c0.003,0.008,0.007,0.016,0.011,0.023l0.44,0.833
		c0.004,0.007,0.009,0.014,0.014,0.02l0.562,0.836l0.675,0.812l0.78,0.785l0.885,0.76l0.981,0.726l1.075,0.69l1.166,0.654
		l1.25,0.613l1.329,0.569l1.4,0.525l1.467,0.475l1.525,0.428l1.578,0.374l1.625,0.322l1.662,0.266l1.695,0.212l1.717,0.153
		l1.731,0.096l1.006,0.021l0.73,0.017c0,0,0.004,0,0,0.005l1.74-0.02l1.732-0.077l1.715-0.136l1.689-0.193l1.66-0.251l1.625-0.304
		l1.572-0.358l1.521-0.411l1.465-0.462l1.393-0.509l1.322-0.558l1.244-0.601l1.158-0.646l1.068-0.681l0.975-0.716l0.875-0.753
		l0.773-0.781l0.664-0.808l0.543-0.812c0.004-0.006,0.008-0.013,0.012-0.021l0.43-0.829c0.004-0.007,0.008-0.015,0.012-0.022
		l0.314-0.843c0.004-0.009,0.006-0.019,0.01-0.026l0.197-0.852c0.002-0.009,0.002-0.019,0.004-0.028l0.084-0.855
		c0.002-0.008,0.002-0.019,0.002-0.028l-0.008-0.177l0.01-0.106c0.002-0.01,0.002-0.02,0.002-0.03l-0.033-0.878
		c0-0.01,0-0.02-0.004-0.03l-0.15-0.879c-0.002-0.01-0.004-0.02-0.01-0.029l-0.27-0.868c-0.002-0.009-0.004-0.017-0.008-0.025
		l-0.381-0.86c-0.004-0.008-0.008-0.016-0.012-0.023l-0.496-0.844c-0.004-0.008-0.008-0.014-0.014-0.02l-0.621-0.845l-0.727-0.82
		l-0.832-0.792l-0.691-0.562l0.52,0.357l1.004,0.792l0.908,0.825l0.814,0.854l0.715,0.876l0.611,0.897l0.512,0.917l0.412,0.93
		l0.197,0.586c0.006,0.019,0.014,0.036,0.027,0.052l0.191,0.723l0.127,0.888l0.016,0.888l-0.096,0.889l-0.215,0.884l-0.324,0.874
		l-0.436,0.862l-0.541,0.843l-0.658,0.834l-0.768,0.81l-0.867,0.782l-0.973,0.756L88.504,26l-1.16,0.685l-1.246,0.646l-1.33,0.604
		l-1.404,0.559l-1.477,0.512l-1.539,0.462l-1.596,0.411L77.1,30.232l-1.689,0.302l-1.73,0.242l-1.756,0.188l-1.781,0.128
		l-1.795,0.071l-1.799,0.012l-1.8-0.05l-1.793-0.106l-1.776-0.167l-1.751-0.222l-1.721-0.282l-1.684-0.337l-1.64-0.389L52.8,29.18
		l-1.526-0.494l-1.46-0.542l-1.388-0.585l-1.311-0.632l-1.228-0.671l-1.139-0.709l-1.047-0.741l-0.948-0.774l-0.846-0.801
		l-0.742-0.825l-0.633-0.842l-0.529-0.87l-0.363-0.774l-0.046-0.098l-0.3-0.881l-0.186-0.887l-0.073-0.889l0.042-0.888l0.155-0.887
		l0.173-0.604c0.011-0.018,0.02-0.034,0.025-0.056L39.488,14.545z M38.583,17.227l0.071,0.877c0.001,0.01,0.002,0.02,0.005,0.028
		l0.192,0.915c0.002,0.008,0.004,0.018,0.007,0.025l0.309,0.907c0.002,0.009,0.006,0.017,0.009,0.023l0.423,0.897
		c0.003,0.007,0.007,0.015,0.011,0.021l0.549,0.899l0.658,0.875l0.768,0.853l0.87,0.825l0.975,0.795l1.068,0.758l1.161,0.723
		l1.25,0.684l1.331,0.642l1.405,0.595l1.478,0.549l1.545,0.499l1.602,0.446l1.654,0.395l1.699,0.34l1.737,0.284l1.766,0.225
		l1.794,0.167l1.808,0.108l0.907,0.025l0.904,0.024c0.002,0,0.002,0,0.004,0l1.816-0.013l1.811-0.069l1.795-0.129l1.773-0.19
		l1.746-0.246l1.707-0.304l1.668-0.359l1.613-0.414l1.559-0.467l1.494-0.519l1.424-0.565l1.35-0.614l1.27-0.656l1.184-0.699
		l1.09-0.738l0.998-0.775l0.891-0.807l0.793-0.839l0.684-0.866l0.561-0.869c0.006-0.007,0.008-0.015,0.014-0.021l0.447-0.886
		c0.004-0.008,0.006-0.016,0.01-0.024l0.334-0.899c0.002-0.008,0.006-0.017,0.008-0.025l0.219-0.91
		c0.002-0.009,0.004-0.019,0.004-0.028l0.102-0.917c0.002-0.009,0.002-0.019,0.002-0.027l2.43,7.682c0,0.001,0,0.002,0,0.003
		l0.094,0.294l0.229,0.893l0.131,0.945l0.02,0.942l-0.096,0.942l-0.154,0.688l-0.057,0.25l-0.236,0.686l-0.086,0.247l-0.432,0.918
		l-0.113,0.188l-0.43,0.712l-0.344,0.467l-0.311,0.42l-0.578,0.659L94.783,34.9l-0.867,0.846l-0.973,0.816l-1.07,0.786l-1.164,0.752
		l-1.256,0.715l-1.34,0.675l-1.424,0.629l-1.498,0.585l-1.568,0.539l-1.629,0.491l-1.689,0.437l-1.738,0.383l-1.787,0.33
		l-1.822,0.274l-1.852,0.215l-1.879,0.157l-1.895,0.1l-1.908,0.042l-1.904-0.019l-1.905-0.079l-1.891-0.134l-1.876-0.194L58,42.992
		l-1.814-0.307l-1.776-0.362l-1.729-0.418L51,41.435l-1.618-0.52l-1.554-0.565l-1.485-0.614l-1.406-0.659l-1.325-0.7l-1.24-0.735
		l-1.148-0.775l-1.05-0.805l-0.954-0.834l-0.85-0.86l-0.746-0.883l-0.634-0.899l-0.532-0.926l-0.411-0.929l-0.304-0.937
		l-0.188-0.941l-0.074-0.944l0.038-0.943l0.151-0.94l0.242-0.862L38.583,17.227z M35.024,27.794l-0.004,0.113
		c-0.001,0.009-0.001,0.019,0,0.026l0.075,0.974c0.001,0.008,0.002,0.018,0.004,0.026l0.194,0.968
		c0.002,0.008,0.004,0.017,0.006,0.024l0.311,0.962c0.002,0.007,0.005,0.014,0.008,0.021l0.424,0.951
		c0.002,0.01,0.006,0.016,0.01,0.021l0.549,0.954l0.658,0.932l0.77,0.913l0.875,0.885l0.977,0.854l1.074,0.822l1.17,0.789l1.26,0.75
		l1.345,0.71l1.428,0.669l1.503,0.622l1.571,0.572l1.637,0.525l1.693,0.475l1.746,0.422l1.793,0.367l1.83,0.308l1.861,0.255
		l1.892,0.195l1.904,0.136l1.919,0.079l1.922,0.02l1.918-0.041l1.91-0.102l1.893-0.157l1.865-0.218l1.838-0.276l1.803-0.332
		l1.752-0.388l1.707-0.44l1.646-0.494l1.584-0.545l1.518-0.593l1.443-0.641l1.361-0.684l1.277-0.729l1.186-0.766l1.096-0.802
		l0.996-0.838l0.891-0.871l0.791-0.898l0.678-0.922l0.561-0.924c0.004-0.008,0.006-0.015,0.01-0.021l0.447-0.943
		c0.002-0.005,0.004-0.01,0.006-0.015s0.004-0.011,0.006-0.015l0.307-0.895l0.018-0.053l0,0l0.002-0.006
		c0.004-0.007,0.006-0.016,0.008-0.023l0.219-0.966c0.002-0.008,0.004-0.018,0.004-0.026l0.088-0.873l0.057,0.363l0.035,0.331
		l0.018,0.331l0.006,0.334l-0.006,0.329l-0.021,0.332l-0.035,0.343c-0.004,0.03-0.002,0.062,0.008,0.091l1.002,3.188l-0.252-0.174
		c-0.018-0.011-0.037-0.022-0.057-0.028l-1.018-0.341c-0.008-0.004-0.016,0.002-0.025,0c-0.002,0-0.006-0.002-0.008-0.002
		l-0.273-0.049c-0.1-0.018-0.197,0.031-0.242,0.121l-0.164,0.319l-0.375,0.639l-0.207,0.318l-0.219,0.313l-0.234,0.312l-0.246,0.31
		l-0.248,0.292c-0.004,0.005-0.01,0.006-0.012,0.009c-0.053,0.059-0.072,0.14-0.051,0.217v0.001c0,0.001,0,0.002,0,0.003
		l4.201,14.948l-0.379-0.632l-0.004-0.006l-0.584-1.147l-0.693-1.366l-1.088-2.594l-0.646-1.868l-0.547-1.912
		c0-0.002,0-0.004,0-0.006l-0.252-0.715c-0.004-0.015-0.01-0.027-0.018-0.042l-0.559-0.935c-0.008-0.016-0.018-0.028-0.031-0.041
		l-0.74-0.768c-0.014-0.015-0.027-0.026-0.045-0.036l-0.838-0.506c-0.006-0.004-0.014-0.002-0.021-0.006
		c-0.002-0.001-0.006-0.005-0.01-0.006l-0.227-0.093c-0.074-0.03-0.156-0.02-0.221,0.027l-0.768,0.545l-0.813,0.53l-0.859,0.513
		l-0.904,0.495c-0.002,0.002-0.004,0.005-0.006,0.006c-0.01,0.006-0.025,0.008-0.035,0.017c-0.025,0.02-0.041,0.048-0.053,0.076
		c-0.002,0.005-0.006,0.007-0.006,0.01c-0.02,0.043-0.029,0.09-0.018,0.137l3.646,16.628l-0.488,0.253l-0.658,0.329l-0.678,0.32
		l-0.484,0.216l-0.301-0.726l-0.865-2.389l-0.84-2.7l-0.721-2.767l-0.428-1.974l-0.355-1.989l-0.164-0.752
		c-0.002-0.009-0.004-0.018-0.008-0.027l-0.367-1.021c-0.004-0.014-0.012-0.023-0.018-0.035l-0.492-0.873
		c-0.006-0.014-0.014-0.026-0.025-0.039l-0.555-0.63c-0.006-0.008-0.014-0.017-0.023-0.023l-0.15-0.129
		c-0.063-0.052-0.146-0.066-0.225-0.04l-1.098,0.381l-1.133,0.354l-1.16,0.332l-1.189,0.308c-0.006,0.001-0.008,0.007-0.012,0.009
		c-0.016,0.004-0.031,0.001-0.047,0.009c-0.027,0.016-0.045,0.043-0.063,0.068c-0.006,0.004-0.01,0.008-0.014,0.012
		c-0.029,0.046-0.047,0.098-0.037,0.152l2.371,17.151l-1.482,0.35l-1.721,0.349l-0.875,0.16l-1.236,0.2l-0.201-1.405l-0.314-2.499
		l-0.305-2.811l-0.256-2.858l-0.15-2.029L76.32,49.68l-0.043-0.677l-0.057-0.782l-0.137-1.079l-0.186-0.953l-0.213-0.713
		l-0.055-0.146c-0.037-0.097-0.139-0.157-0.244-0.144l-1.295,0.164l-1.311,0.136l-1.318,0.107l-1.332,0.081
		c-0.006,0-0.008,0.006-0.014,0.007c-0.008,0-0.014-0.006-0.02-0.005c-0.037,0.009-0.061,0.033-0.088,0.056
		c-0.014,0.009-0.029,0.012-0.039,0.022c-0.035,0.044-0.059,0.097-0.055,0.156v0.001l0,0l0.152,3.349l0.645,14.082l-0.701,0.036
		l-1.861,0.053l-0.932,0.008l-0.932-0.002l-1.589-0.038l-0.79-0.027l-0.192-0.007l0.842-16.586l0.044-0.847l0,0v-0.002
		c0.003-0.06-0.02-0.113-0.056-0.157c-0.002-0.002-0.001-0.005-0.002-0.007c-0.012-0.012-0.029-0.011-0.043-0.019
		c-0.027-0.022-0.053-0.048-0.089-0.054c-0.006-0.001-0.011,0.004-0.017,0.003c-0.004,0-0.006-0.005-0.011-0.005l-1.335-0.073
		l-1.327-0.097l-1.321-0.13l-1.309-0.153c-0.11-0.017-0.213,0.051-0.246,0.156l-0.035,0.134c-0.003,0.008-0.012,0.011-0.014,0.021
		l-0.125,0.494l-0.159,0.887l-0.131,1.044l-0.085,1.081c0,0.002,0.002,0.004,0.002,0.006l0,0l-0.126,2.017l-0.146,2.038l-0.186,2.23
		l-0.207,2.225l-0.236,2.27l-0.262,2.232l-0.085,0.674l-1.407-0.214l-0.15-0.023l-0.887-0.151l-1.748-0.342l-0.861-0.186
		l-0.188-0.044l-0.464-0.109l0.06-0.417l2.422-16.752c0.013-0.093-0.033-0.188-0.119-0.233c-0.031-0.017-0.065-0.018-0.1-0.019
		l-1.172-0.288l-1.186-0.321l-1.158-0.352l-1.134-0.373c-0.079-0.026-0.167-0.008-0.228,0.048l-0.137,0.126
		c-0.004,0.004-0.011,0.005-0.016,0.009l-0.38,0.433c-0.009,0.012-0.017,0.021-0.025,0.035l-0.483,0.816
		c-0.006,0.01-0.012,0.021-0.016,0.032l0,0c-0.002,0.004-0.004,0.006-0.004,0.009l-0.392,0.985c-0.004,0.01-0.006,0.021-0.008,0.031
		l-0.255,1.064l-0.359,1.97l-0.426,1.981l-0.544,2.161l-0.616,2.146l-0.709,2.178l-0.781,2.131l-0.046,0.115l-0.809-0.34
		l-0.701-0.315l-0.688-0.326l-0.514-0.253l3.798-16.646c0.02-0.084-0.012-0.172-0.078-0.227c-0.014-0.013-0.034-0.015-0.051-0.022
		l-0.935-0.482l-0.898-0.508l-0.856-0.524l-0.814-0.546c-0.065-0.045-0.148-0.052-0.221-0.021l-0.21,0.092
		c-0.008,0.004-0.019,0.002-0.026,0.007l-0.593,0.343c-0.016,0.008-0.029,0.018-0.042,0.03l-0.756,0.703
		c-0.013,0.011-0.024,0.026-0.035,0.039l-0.604,0.899c0,0.002-0.002,0.005-0.004,0.009l0,0c-0.004,0.006-0.007,0.013-0.011,0.02
		c-0.002,0.006-0.006,0.011-0.008,0.017v0.001c-0.002,0.003-0.003,0.005-0.005,0.007l-0.394,1.012l-0.547,1.884l-0.659,1.885
		l-0.831,2.027l-0.952,2.002l-1.099,2.012l-0.491,0.793l-0.089-0.091l4.683-15.94c0.006-0.018,0-0.036,0.001-0.055
		c0.005-0.061-0.009-0.123-0.052-0.17c-0.004-0.006-0.012-0.007-0.017-0.013L37.492,35.9l-0.503-0.625l-0.45-0.635l-0.401-0.646
		c-0.05-0.083-0.144-0.126-0.237-0.107l-0.26,0.048c-0.01,0.002-0.019-0.005-0.029-0.001l-0.737,0.223
		c-0.018,0.006-0.034,0.012-0.051,0.022l-0.906,0.534l1.135-3.416c0.003-0.008-0.006-0.018-0.004-0.026
		c0.005-0.027,0.01-0.055,0.005-0.083l-0.063-0.328l-0.047-0.333l-0.032-0.333l-0.021-0.332l-0.007-0.329l0.027-0.664l0.036-0.343
		c0.009-0.065-0.015-0.131-0.058-0.178c-0.012-0.013-0.025-0.025-0.039-0.035L35.024,27.794z M32.024,29.755l0.742-0.593
		l0.938-0.355l0.478-0.053l-0.03,0.42l-0.007,0.349l0.007,0.35l0.019,0.353l0.036,0.353l0.07,0.455l-0.845,0.128
		c-0.021,0.003-0.043,0.01-0.064,0.02l-0.96,0.459c-0.022,0.011-0.042,0.023-0.061,0.042l-0.73,0.705
		c-0.017,0.015-0.03,0.032-0.042,0.053l-0.011,0.02l-0.052-0.668l-0.007-0.331l0.024-0.665l0.026-0.29L32.024,29.755z
		 M24.442,40.168l1.62-1.455l1.474-1.565l1.28-1.623l1.12-1.705l0.882-1.633l0.235-0.539l0.002,0.159l0.022,0.351l0.032,0.349
		l0.094,0.622l-0.58,1.329l-0.114,0.261l-0.857,1.59l-1.446,2.142l-1.671,1.969l-1.7,1.633l-1.564,1.248l-0.062-0.606l-0.026-0.669
		v-0.335l0.031-0.571L24.442,40.168z M26.134,89.409l0.928,0.555l1.038,0.84l1.152,1.147l1.192,1.397l1.189,1.616l1.123,1.78
		l0.975,1.836l0.823,1.908l0.613,1.9l0.389,1.868l0.117,1.057l0.029,0.868l-0.252,0.074l-2.178,0.653l-0.063-1.266
		c0-0.006,0-0.016-0.002-0.025l-0.35-2.025c-0.002-0.007-0.004-0.017-0.006-0.025v-0.002c-0.001-0.001-0.001-0.001-0.001-0.002
		l-0.593-2.018l-0.822-2.037l-0.966-1.909l-1.085-1.787l-1.126-1.599l-1.177-1.436l-1.13-1.187l-1.123-0.967
		c-0.009-0.009-0.015-0.015-0.024-0.021l-0.999-0.649c-0.013-0.008-0.027-0.016-0.042-0.022l-0.675-0.257l1.622-0.487l0.65-0.032
		L26.134,89.409z M29.508,121.467l-1.601-1.02l-1.488-1.061l-1.38-1.096l-1.257-1.13l-1.134-1.164l-1.012-1.188l-0.885-1.211
		l-0.729-1.192l0.147-16.291l0.063-1.671l0.166-1.499l0.258-1.181l0.365-0.906l0.45-0.573l0.221-0.112c0.001,0,0.001,0,0.001,0
		l0.329-0.165l0.682,0.012l0.873,0.334l0.967,0.629l1.095,0.941l1.103,1.156l1.154,1.411l1.107,1.571l1.069,1.759l0.95,1.877
		l0.804,1.998l0.584,1.983l0.345,2l0.077,1.542L32.686,123.2l-1.475-0.759L29.508,121.467z M33.288,107.385l2.419-0.725
		l-0.146,15.881l-2.418,0.726L33.288,107.385z M110.41,106.574l-0.014,0.449l-0.109,1.128l-0.227,1.123l-0.338,1.118l-0.447,1.105
		l-0.563,1.092l-0.67,1.081l-0.779,1.062l-0.887,1.041l-0.992,1.017l-1.096,0.99l-1.191,0.959l-1.287,0.93l-1.383,0.896
		l-1.475,0.858l-1.557,0.819l-1.641,0.776l-1.717,0.734l-1.793,0.688l-1.859,0.642l-1.92,0.591l-1.98,0.541l-2.033,0.489
		l-2.084,0.437l-2.125,0.383l-2.162,0.325l-2.191,0.271l-2.219,0.211l-2.242,0.155l-2.252,0.097l-2.268,0.039l-2.26-0.019
		l-2.259-0.077l-2.252-0.136l-2.238-0.193l-2.216-0.251l-2.188-0.307l-2.157-0.364l-2.122-0.417l-2.076-0.473l-2.025-0.521
		l-1.974-0.576l-1.915-0.626l-1.85-0.67l-1.78-0.72l-1.579-0.706l0.076-8.381l0.071-7.832c0-0.001,0-0.001,0-0.002v-0.002
		c0-0.001,0-0.002,0-0.003l-0.034-1.061l-0.123-1.097l-0.396-1.9c-0.002-0.007-0.003-0.015-0.006-0.022l-0.623-1.932l-0.839-1.945
		l-0.992-1.867l-1.142-1.809l-1.211-1.642l-1.215-1.425l-1.172-1.168c-0.006-0.005-0.012-0.011-0.018-0.017l-1.062-0.856
		c-0.008-0.007-0.016-0.014-0.025-0.02l-0.962-0.578c-0.014-0.009-0.03-0.015-0.047-0.021l-0.836-0.272
		c-0.025-0.008-0.053-0.012-0.08-0.01h-0.002l0,0l-0.713,0.034c-0.007,0-0.016,0.001-0.021,0.003
		c-0.017,0.001-0.033,0.003-0.047,0.009l-2.694,0.808c-0.027,0.007-0.052,0.021-0.074,0.039l-0.009,0.005l0.076-8.361
		c0-0.011-0.001-0.021-0.002-0.032l-0.16-1.146l-0.043-1.104l0.078-8.606l0.072,0.293l0.399,1.164l0.517,1.15l0.629,1.134
		l0.742,1.118l0.852,1.094l0.96,1.072l1.061,1.043l1.167,1.017l1.265,0.983l1.358,0.947l1.452,0.915l1.541,0.875l1.622,0.836
		l0.913,0.423l0.791,0.367l0.373,0.155l1.407,0.591l1.852,0.699l1.917,0.651l1.976,0.601l1.76,0.473l0.273,0.074l0.497,0.118
		l1.59,0.378l2.131,0.44l2.169,0.387l2.206,0.33l2.233,0.272l2.256,0.212l2.118,0.145l0.154,0.01l0.048,0.002l2.235,0.096
		l2.29,0.038l2.289-0.022l2.279-0.083l2.271-0.139l2.252-0.2l2.225-0.259l2.195-0.313l2.16-0.374l2.119-0.426l2.07-0.482
		l2.021-0.536l1.963-0.587l1.898-0.639l1.83-0.687l1.76-0.735l1.684-0.781l1.6-0.823l1.52-0.866l1.426-0.904l1.336-0.941
		l1.236-0.976l1.139-1.01l1.035-1.04l0.928-1.067l0.824-1.091l0.713-1.113l0.598-1.134l0.482-1.148l0.283-0.903L110.41,106.574z"/>
	<path fill="#A0A09F" stroke="#A0A09F" stroke-width="0.15" stroke-miterlimit="10" d="M31.869,106.481l-0.055-1.23
		c0-0.008-0.001-0.016-0.003-0.023l-0.262-1.688c-0.002-0.008-0.004-0.017-0.006-0.022v-0.002c0-0.001,0-0.002,0-0.002l-0.471-1.741
		l-0.646-1.715l-0.791-1.659l-0.878-1.528l-0.949-1.401l-0.972-1.229l-0.975-1.042c0-0.001-0.002-0.001-0.004-0.002
		c-0.002-0.002-0.002-0.008-0.005-0.01l-0.928-0.805c-0.007-0.006-0.015-0.014-0.025-0.021l-0.778-0.503
		c-0.001-0.001-0.002,0-0.004-0.001l-0.095-0.06c-0.013-0.008-0.027-0.016-0.044-0.021l-0.799-0.299
		c-0.023-0.01-0.049-0.014-0.074-0.015l-0.692-0.016c-0.033,0-0.07,0.006-0.103,0.021l-0.58,0.275
		c-0.029,0.014-0.055,0.034-0.075,0.059l-0.471,0.548c-0.015,0.018-0.026,0.036-0.034,0.057l-0.357,0.805
		c-0.006,0.013-0.01,0.025-0.014,0.039l-0.255,1.048c-0.001,0.007-0.003,0.017-0.004,0.024l-0.159,1.292l-0.061,1.458
		c0,0,0,0,0,0.001v0.001c0,0.002-0.002,0.003-0.002,0.004l-0.135,14.69c0,0.001,0.002,0.002,0.002,0.004
		c0,0.047,0.015,0.091,0.041,0.131l0.818,1.17l0.932,1.145l1.041,1.122l1.15,1.092l1.255,1.063l1.356,1.028l1.453,0.99l1.548,0.959
		l1.633,0.906c0.032,0.02,0.071,0.029,0.109,0.029c0.04,0,0.079-0.01,0.115-0.03v-0.001c0,0,0.001,0,0.002,0
		c0.069-0.041,0.114-0.113,0.114-0.194l0.021-2.442c0-0.003-0.002-0.005-0.002-0.008l0.062-6.539L31.869,106.481z M20.625,111.464
		l0.129-14.21l0.504-0.15l-0.047,0.643l-0.002,0.033l-0.017,0.569v0.002l0,0l0.004,0.558l0.071,1.26l0.098,0.93l0.098,0.672
		l0.119,0.673l0.092,0.453l0.24,1.007l0.164,0.577l0.354,1.046l0.367,0.888l0.235,0.487l0.012,0.022l-0.034,3.826l-2.141,0.641
		L20.625,111.464z M24.633,92.738l0.622,0.54l-1.454,0.435l0.162-0.889l0.15-0.422L24.633,92.738z M26.488,94.542l0.951,1.199
		l0.929,1.372l0.862,1.499l0.774,1.624l0.633,1.677l0.461,1.708l0.257,1.661l0.056,1.204l-0.015,1.552l-0.361,0.336l-0.147,0.138
		l-0.6,0.291c-0.012,0.002-0.021,0.008-0.031,0.012l-1.353,0.404l0.317-0.4c0.009-0.011,0.017-0.022,0.021-0.033l0.313-0.581
		c0.004-0.008,0.008-0.017,0.012-0.024l0.15-0.381c0.004-0.009,0.007-0.017,0.009-0.024l0.213-0.795
		c0.002-0.009,0.004-0.018,0.005-0.027l0.111-0.826l0.026-0.517l-0.03-1.005l-0.119-0.963l-0.107-0.579l-0.276-1.083l-0.327-0.984
		L29,100.424l-0.468-1.041l-0.47-0.894l-0.294-0.502l-0.574-0.885l-0.541-0.729l-0.323-0.39l-0.604-0.655l-0.549-0.495l-0.305-0.237
		c-0.006-0.005-0.012-0.01-0.02-0.014l-0.548-0.34c-0.011-0.007-0.021-0.012-0.034-0.019l-0.15-0.062l-0.094-0.038l0.071-0.021
		l1.55-0.461l0.744,0.795L26.488,94.542z M26.535,109.68l-0.563-0.178l-0.285-0.146l-0.515-0.361l-0.543-0.522l-0.268-0.315
		l-0.457-0.647l-0.43-0.756c0-0.001-0.002-0.001-0.002-0.002l-0.258-0.526l-0.356-0.862l-0.346-1.019l-0.158-0.558l-0.237-0.988
		l-0.206-1.103l-0.095-0.655l-0.097-0.91l-0.069-1.237l-0.004-0.54l0.017-0.549l0.051-0.695l0.036-0.292c0-0.001,0-0.001,0-0.002
		l0.081-0.498l0.173-0.663l0.106-0.283l0.216-0.409l0.279-0.321l0.143-0.103l0.315-0.118l0.042-0.006l0.076-0.009l0.236,0.01
		l0.254,0.058l0.406,0.165l0.521,0.324l0.281,0.218l0.521,0.472l0.583,0.627l0.305,0.372l0.527,0.71l0.562,0.862l0.282,0.484
		l0.458,0.872l0.456,1.018l0.214,0.548l0.319,0.959l0.27,1.054l0.102,0.55l0.115,0.93l0.029,0.963l-0.024,0.478l-0.107,0.795
		l-0.205,0.768l-0.142,0.355l-0.297,0.553l-0.393,0.497l-0.219,0.2l-0.427,0.269l-0.308,0.104l-0.202,0.066l-0.263,0.03
		L26.535,109.68z M31.256,118.298l-1.45-0.976l-1.347-1.014l-1.236-1.046l-1.123-1.075l-1.005-1.104l-0.889-1.127l-0.739-1.106
		l0.028-3.134l0.005,0.007l0.019,0.031l0.359,0.507L24,108.437l0.288,0.341c0.006,0.005,0.01,0.011,0.017,0.017l0.562,0.543
		c0.01,0.007,0.02,0.015,0.028,0.021l0.544,0.379c0.008,0.006,0.016,0.012,0.025,0.017l0.319,0.164
		c0.012,0.006,0.022,0.01,0.036,0.015l0.604,0.191c0.019,0.007,0.034,0.009,0.054,0.011l0.549,0.038
		c0.015,0.003,0.028,0.003,0.042,0l0.309-0.034c0.017-0.002,0.032-0.006,0.047-0.01l0.13-0.045c0.006,0.001,0.012-0.002,0.018-0.002
		c0.001,0,0.002,0.001,0.004,0.001c0.012,0,0.024-0.003,0.037-0.005c0.009-0.002,0.018,0,0.028-0.003l2.778-0.833
		c0.006-0.002,0.012-0.005,0.018-0.007c0.005-0.002,0.009-0.003,0.013-0.005l0.002-0.001c0.004-0.002,0.009-0.003,0.014-0.005
		l0.651-0.317c0.018-0.01,0.033-0.021,0.048-0.034c0.003-0.002,0.006-0.004,0.009-0.006l0.033-0.03l0.184-0.168l-0.09,9.656
		L31.256,118.298z M23.713,92.166l-0.186,0.521c-0.005,0.012-0.007,0.021-0.009,0.034l-0.217,1.142l-0.367,0.11
		c-0.003,0.001-0.004,0.005-0.006,0.006c-0.019,0.005-0.034,0.013-0.049,0.021l-0.321,0.122c-0.019,0.006-0.035,0.014-0.052,0.026
		l-0.188,0.135c-0.017,0.011-0.028,0.023-0.041,0.036l-0.314,0.36c-0.012,0.014-0.021,0.028-0.029,0.043l-0.236,0.447
		c-0.004,0.007-0.008,0.016-0.011,0.024l-0.116,0.308c-0.003,0.007-0.006,0.015-0.008,0.023l-0.18,0.693l-0.064,0.375l-0.002,0.014
		l-0.548,0.163l0.047-1.119l0.156-1.26l0.246-1.012l0.335-0.757l0.416-0.488l0.487-0.23l0.601,0.015l0.207,0.077L23.713,92.166z
		 M23.142,111.188l0.693,1.035l0.909,1.154l1.025,1.127l1.145,1.097l1.257,1.065l1.367,1.025l1.466,0.986l0.29,0.183l-0.019,1.93
		l-1.285-0.715l-1.531-0.945l-1.436-0.979l-1.337-1.016l-1.235-1.046l-1.131-1.072l-1.021-1.101l-0.911-1.12l-0.346-0.495
		l-0.281-0.403L23.142,111.188z"/>
	<path fill="#A0A09F" stroke="#A0A09F" stroke-width="0.15" stroke-miterlimit="10" d="M29.573,86.279l-0.18-0.848
		c-0.003-0.013-0.006-0.023-0.01-0.034l-0.317-0.821c-0.007-0.013-0.011-0.022-0.018-0.033l-0.293-0.502l-0.12-0.205
		c-0.004-0.008-0.01-0.015-0.016-0.021c-0.003-0.004-0.006-0.009-0.01-0.013l-0.457-0.512l0,0v-0.001
		c-0.007-0.007-0.016-0.012-0.021-0.018c-0.011-0.01-0.02-0.019-0.031-0.025l-0.002-0.001l0,0l-0.443-0.263
		c-0.036-0.021-0.076-0.032-0.116-0.032h-0.017c-0.004,0-0.007,0-0.012,0l-0.371,0.018c-0.059,0.004-0.111,0.028-0.152,0.07
		l-0.29,0.3c-0.024,0.025-0.044,0.056-0.055,0.091l-0.166,0.546c-0.006,0.018-0.009,0.038-0.011,0.056l-0.034,0.736
		c0,0.015,0,0.026,0.003,0.041l0.106,0.841c0.003,0.011,0.005,0.021,0.007,0.032l0.238,0.854c0.002,0.011,0.006,0.023,0.011,0.033
		l0.347,0.765c0.006,0.015,0.015,0.025,0.022,0.037l0.426,0.588c0.013,0.019,0.028,0.034,0.047,0.048l0.458,0.346
		c0.031,0.021,0.067,0.037,0.105,0.042l0.44,0.065c0.01,0.002,0.022,0.002,0.032,0.002c0.041,0,0.083-0.013,0.119-0.035l0.254-0.154
		c0.01-0.006,0.021-0.011,0.03-0.017c0-0.001,0.002-0.001,0.002-0.001l0.087-0.055c0.035-0.022,0.063-0.053,0.082-0.09l0.243-0.484
		c0.012-0.022,0.021-0.047,0.023-0.071l0.091-0.688c0.001-0.015,0.001-0.028,0.001-0.042l-0.03-0.51
		C29.577,86.302,29.575,86.292,29.573,86.279z M28.893,87.797l-0.158-0.088l-0.188-0.156l-0.161-0.176l-0.141-0.192l-0.1-0.156
		l-0.18-0.335l-0.161-0.375L27.7,86.017l-0.086-0.302l-0.107-0.523l-0.041-0.299l-0.028-0.485l0.007-0.258l0.018-0.166l0.056-0.291
		l0.08-0.216l0.239,0.143l0.418,0.468l0.392,0.67l0.304,0.786l0.173,0.814l0.026,0.47l-0.083,0.627l-0.112,0.225L28.893,87.797z
		 M27.009,83.925l-0.021,0.195l-0.008,0.29l0.012,0.307l0.063,0.547l0.061,0.331l0.148,0.558l0.111,0.326l0.087,0.213l0.186,0.387
		l0.219,0.364l0.155,0.214c0.005,0.007,0.012,0.014,0.017,0.021l0.174,0.189l-0.271-0.205l-0.391-0.54l-0.33-0.728l-0.229-0.819
		l-0.104-0.807l0.033-0.688l0.142-0.464l0.003-0.003L27.009,83.925z"/>
	<path fill="#A0A09F" stroke="#A0A09F" stroke-width="0.15" stroke-miterlimit="10" d="M27.777,107.771l0.387-0.463
		c0.011-0.014,0.021-0.03,0.03-0.047l0.132-0.27l0,0l0.164-0.331c0.006-0.014,0.013-0.025,0.017-0.04l0.202-0.726
		c0.005-0.012,0.007-0.022,0.007-0.035l0.099-0.829c0.001-0.009,0.001-0.02,0.001-0.03l-0.011-0.909
		c-0.002-0.008-0.002-0.016-0.002-0.026l-0.126-0.992l-0.231-1.015l-0.326-1.015l-0.409-0.983l-0.471-0.923l-0.521-0.846
		l-0.55-0.744l-0.546-0.615c-0.006-0.006-0.012-0.014-0.02-0.019l-0.309-0.276c-0.001,0-0.001,0-0.002,0c0-0.001,0-0.002,0-0.002
		l-0.233-0.205c-0.008-0.008-0.019-0.015-0.028-0.021l-0.52-0.331c-0.016-0.009-0.029-0.016-0.047-0.021l-0.486-0.172
		c-0.021-0.008-0.047-0.012-0.07-0.013l-0.439-0.007c-0.033,0-0.063,0.006-0.094,0.019l-0.378,0.161
		c-0.026,0.013-0.052,0.028-0.073,0.051l-0.318,0.325c-0.016,0.016-0.03,0.033-0.04,0.053l-0.251,0.477
		c-0.007,0.014-0.013,0.028-0.017,0.042l-0.183,0.621c-0.003,0.01-0.005,0.02-0.006,0.03l-0.115,0.748
		c-0.001,0.007-0.002,0.017-0.002,0.022l-0.043,0.872l0.055,1.309l0.127,1.027l0.199,1.045l0.27,1.023l0.338,0.983l0.399,0.907
		l0.445,0.793c0.006,0.006,0.01,0.014,0.017,0.022l0.491,0.669c0.007,0.008,0.016,0.017,0.021,0.024l0.525,0.529
		c0.01,0.01,0.022,0.019,0.034,0.028l0.55,0.373c0.015,0.01,0.03,0.019,0.049,0.025l0.554,0.207
		c0.021,0.008,0.043,0.013,0.066,0.015l0.542,0.032c0.004,0,0.008,0.001,0.012,0.001c0.021,0,0.041-0.003,0.06-0.009l0.508-0.14
		c0.023-0.006,0.047-0.017,0.067-0.03l0.452-0.309C27.748,107.801,27.764,107.786,27.777,107.771z M27.693,101.199l0.313,0.976
		l0.222,0.974l0.12,0.957l0.012,0.882l-0.096,0.801l-0.192,0.688l-0.03,0.06l-0.314-0.252l-0.484-0.546l-0.469-0.713l-0.406-0.798
		l-0.363-0.922l-0.293-0.959l-0.235-1.015l-0.159-0.986l-0.096-0.99l-0.025-0.898l0.078-1.132l0.016-0.081v0.001l0.525,0.587
		l0.525,0.716l0.502,0.813l0.455,0.889L27.693,101.199z M27.055,107.722l-0.437,0.119l-0.47-0.028l-0.496-0.187l-0.51-0.347
		l-0.496-0.501l-0.475-0.644l-0.43-0.76l-0.384-0.868l-0.324-0.951l-0.261-0.991l-0.195-1.017l-0.123-0.993l-0.052-1.27l0.042-0.838
		l0.111-0.722l0.172-0.583l0.225-0.428l0.264-0.268l0.293-0.125l0.35,0.004l0.427,0.152l0.483,0.306l0.121,0.107l-0.07,0.357
		c-0.002,0.009-0.004,0.02-0.004,0.028l-0.079,1.169l0.026,0.936l0.098,1.021l0.165,1.017l0.241,1.043l0.304,0.991l0.377,0.959
		l0.424,0.827c0.002,0.008,0.006,0.017,0.013,0.022L26.869,106c0.006,0.008,0.012,0.016,0.019,0.024l0.51,0.578
		c0.008,0.009,0.018,0.019,0.028,0.025l0.409,0.326l-0.039,0.082l-0.347,0.416L27.055,107.722z"/>
</g>
</svg>
